<?xml version="1.0" encoding="utf-8"?>
<!-- Generator: Adobe Illustrator 16.0.5, SVG Export Plug-In . SVG Version: 6.00 Build 0)  -->
<!DOCTYPE svg PUBLIC "-//W3C//DTD SVG 1.1//EN" "http://www.w3.org/Graphics/SVG/1.1/DTD/svg11.dtd">
<svg version="1.1" id="Layer_1" xmlns="http://www.w3.org/2000/svg" xmlns:xlink="http://www.w3.org/1999/xlink" x="0px" y="0px"
	 width="1000px" height="1000px" viewBox="0 0 1000 1000" enable-background="new 0 0 1000 1000" xml:space="preserve">
<g id="Background">
	<rect x="-100" y="-100" fill="#F8F5E3" width="1200" height="1200"/>
</g>
<g id="Avatar">
	<g>
		<path fill="#41A8A4" d="M613.301,683.474c16.196-19.685,26.401-36.608,27.803-39.974c19.618-41.893,28.236-79.426,31.069-112.46
			c4.746-11.277,1.868-45.082,6.195-46.373c2.234-0.667,16.234-59.667,0-59.667c-5.075-0.631-8.705,3.977-11.293,11.37
			c-2.949-18.459-5.835-33.813-5.835-45.967c0-81.994-4.471-166.108-38.304-183.07c-50.283-25.209-92.683-35.513-128.333-35.914
			c-35.65,0.401-78.05,10.705-128.334,35.914c-33.833,16.962-38.303,101.076-38.303,183.07c0,12.153-2.885,27.507-5.835,45.967
			c-2.587-7.395-6.218-12.001-11.293-11.37c-16.235,0-2.235,59,0,59.667c4.327,1.291,1.45,35.096,6.195,46.373
			c2.833,33.034,11.451,70.567,31.068,112.46c1.401,3.364,11.606,20.289,27.804,39.974c-0.008,10.938-5.369,2.157-5.459,12.401
			c0-13.889-0.252,4.438-0.252-2.375c0,17.334-10.695,33.5-17.128,43.5L349,760.378L494.959,959L632.5,754.173l-2.5-48.84
			c0,0-16.549,5.538-16.549-11.833L613.301,683.474z"/>
		<path fill="#41A8A4" d="M349,760.378c0,0,30.834,197.555,145.959,198.622S633,770,633,770"/>
	</g>
	<g opacity="0.15">
		<path d="M668.721,444.698l-9.211-48.919c0,289.554-106.076,92.642-164.55,149.559c-58.475-57.166-166.992,139.995-166.992-149.559
			l-6.77,48.919c-7.11,47.748-11.881,114.158,27.385,198.008c1.406,3.373,11.661,20.382,27.937,40.136
			c27.125,32.924,70.973,73.478,118.44,71.242c75.949,3.574,142.628-102.383,146.376-111.378
			C680.602,558.856,675.831,492.446,668.721,444.698z M494.959,694.329c-87.312,21.139-60.559-88.938-87.312-112.662
			c37.894,1.994,44.206-13.907,87.312-13.996c43.104,0.089,49.417,15.99,87.311,13.996
			C555.518,605.392,582.271,715.48,494.959,694.329z"/>
	</g>
	<path fill="#F8F7E3" d="M494.959,589.479c-35.862,0.528-58.475-4.767-58.475,2.146c0,12.5,49.645,19.804,58.475,20
		c8.83-0.196,58.474-7.5,58.474-20C553.434,584.712,530.822,590.007,494.959,589.479z"/>
	<g>
		<path d="M705.604,259c-3.332-100-211-142.333-211-142.333V197c51,10.5,88.849-14.475,143,66c24,35.667,13.5,67.5,29.25,217.667
			h2.75C669.604,480.667,708.938,359,705.604,259z"/>
	</g>
	<path d="M640.98,161.5c0,44.642-146.021,51.486-196.021,55.604c-51.198,0.107-96.021-10.962-96.021-55.604
		s65.375-80.833,146.021-80.833C575.604,80.667,640.98,116.858,640.98,161.5z"/>
	<ellipse transform="matrix(0.5518 -0.834 0.834 0.5518 124.9574 602.8304)" cx="623.319" cy="185.162" rx="37.186" ry="67.175"/>
	<path fill="none" stroke="#000000" stroke-width="6" stroke-linecap="round" stroke-miterlimit="10" d="M348.938,185.167
		c0-149.833,160-104.5,160-104.5"/>
	<path fill="none" stroke="#000000" stroke-width="4" stroke-linecap="round" stroke-miterlimit="10" d="M579,263
		c-43.834,0,9.332-97.334-10.384-138.666"/>
	<path fill="none" stroke="#000000" stroke-width="12" stroke-linecap="round" stroke-miterlimit="10" d="M348.938,185.167
		c0-119.833,161.334-155.833,160-104.5"/>
	<path opacity="0.15" enable-background="new    " d="M630,362.195c-8.141-5.999-43.332-40.667-102.666,0
		c-4.667,9.333,2.816,16.138,8.359,12.17c42.186-30.2,90.973,0.497,96.307-0.17C637.334,373.528,638.141,368.194,630,362.195z"/>
	<g>
		<path d="M304.966,225.067c43.972-108.401,189.638-108.401,189.638-108.401V197c-51,10.5-88.85-14.475-143,66
			c-24,35.667-13.5,67.5-29.25,217.667h-2.75C319.604,480.667,274.02,301.357,304.966,225.067z"/>
	</g>
	<g>
		<g>
			<path d="M665.396,376.668c-3.334-3.833-50.66-16.146-50.66-16.146l0.008,0.008c-12.08-3.359-23.557-5.011-34.778-5.011
				c-19.221,0-37.31,4.906-55.298,14.998c-0.47,0.264-0.928,0.581-1.373,0.941c-5.207-1.756-13.876-2.958-28.691-2.958
				c-14.813,0-23.483,1.202-28.69,2.958c-0.445-0.36-0.903-0.677-1.373-0.941c-17.988-10.092-36.077-14.998-55.298-14.998
				c-11.223,0-22.698,1.652-34.778,5.011l0.008-0.008c0,0-47.327,12.312-50.659,16.146c0,0-10.874,11.998-10.874,16.832
				s0,29.833,0,29.833l3.188,0.806c0-17.639,7.479-28.972,7.479-28.972s16.333-1.667,20.905,16.843
				c0.003,0.011,0.005,0.021,0.009,0.03c1.684,16.363,7.718,33.454,18.568,44.429c10.671,10.791,26.594,16.734,44.836,16.734
				c13.044,0,26.266-3.139,37.227-8.838c26.881-13.976,31.287-40.769,31.521-55.495c0.121-7.57-0.903-15.909-2.919-22.955
				c3.323-0.659,9.589-1.416,20.854-1.416c11.263,0,17.528,0.757,20.852,1.416c-2.014,7.046-3.04,15.384-2.919,22.955
				c0.234,14.727,4.641,41.52,31.521,55.495c10.961,5.699,24.183,8.838,37.227,8.838c18.242,0,34.165-5.943,44.836-16.734
				c10.852-10.975,16.886-28.064,18.569-44.429c0.003-0.011,0.005-0.021,0.008-0.03c4.573-18.51,20.906-16.843,20.906-16.843
				s7.478,11.333,7.478,28.972l3.189-0.806c0,0,0-25,0-29.833S665.396,376.668,665.396,376.668z M464.241,415.412
				c-1.407,12.366-6.823,29.05-24.627,38.307c-9.283,4.826-20.538,7.484-31.69,7.484c-15.012,0-27.904-4.678-36.303-13.172
				c-13.358-13.51-18.159-41.275-14.263-58.731c1.591-7.129,4.438-11.929,7.812-13.167c15.789-5.796,30.205-8.613,44.07-8.613
				c17.059,0,33.18,4.377,49.277,13.381C461.111,383.273,466.222,398.004,464.241,415.412z M617.587,448.031
				c-8.397,8.494-21.291,13.172-36.303,13.172c-11.152,0-22.407-2.658-31.69-7.484c-17.804-9.257-23.22-25.94-24.627-38.307
				c-1.98-17.408,3.13-32.139,5.721-34.512c16.1-9.004,32.221-13.381,49.278-13.381c13.865,0,28.281,2.817,44.07,8.613
				c3.374,1.239,6.223,6.038,7.812,13.167C635.746,406.756,630.945,434.521,617.587,448.031z"/>
			<g>
				<path fill="#FFFFFF" d="M658.297,381.782c1.619,0.318,1.789,1.277,0.377,2.132l-9.202,5.572
					c-1.411,0.855-3.59,0.674-4.842-0.401l-1.374-1.181c-1.252-1.076-1.616-3.134-0.811-4.573l0.886-1.582
					c0.806-1.439,2.79-2.357,4.408-2.04L658.297,381.782z"/>
			</g>
			<g>
				<path fill="#FFFFFF" d="M330.911,381.782c-1.619,0.318-1.789,1.277-0.378,2.132l9.203,5.572c1.411,0.855,3.59,0.674,4.841-0.401
					l1.375-1.181c1.251-1.076,1.616-3.134,0.81-4.573l-0.885-1.582c-0.806-1.439-2.79-2.357-4.409-2.04L330.911,381.782z"/>
			</g>
		</g>
	</g>
	<path opacity="0.15" enable-background="new    " d="M494.604,632.838c-19.256,0.897-33.396-10.101-33.396,1.648
		c0,21.242,28.655,23.122,33.396,23.454c4.741-0.332,33.396-2.212,33.396-23.454C528,622.737,513.86,633.735,494.604,632.838z"/>
	<path opacity="0.15" enable-background="new    " d="M359.918,362.195c8.141-5.999,43.332-40.667,102.666,0
		c4.667,9.333-2.816,16.138-8.359,12.17c-42.186-30.2-90.973,0.497-96.307-0.17C352.584,373.528,351.777,368.194,359.918,362.195z"
		/>
	<g>
		<path fill="#EE4C2F" d="M575.938,830c-50.286,0-1.661,55.906-60.137,126.906c0.064,0.014,0.127,0.024,0.193,0.039
			c36.411-7.688,61.977-35.967,79.709-68.289C583.705,872.163,568.98,846.959,575.938,830z"/>
		<path fill="#EE4C2F" d="M577.306,830.395c-0.87-0.278-1.367-0.395-1.367-0.395L577.306,830.395z"/>
		<path fill="#4D3227" d="M577.306,830.395L575.938,830c-6.956,16.959,7.769,42.163,19.767,58.656
			c4.53-8.256,8.533-16.774,12.092-25.281C600.532,839.429,582.42,832.035,577.306,830.395z"/>
		<path fill="#EE4C2F" d="M630.02,705.333l-14.174-25.472l-2.524,3.611c0,0,4.34,42.033-6.896,85.625L633.02,770l-26.596-0.901
			c-5.554,21.551-14.911,43.479-30.486,60.901c21.117,0,33.927,3.207,41.261,8.021c10.941-33.483,15.045-62.144,15.719-67.223
			c-0.673,5.079-4.776,33.739-15.718,67.223v0.001c-7.334-4.814-20.145-8.021-41.261-8.021c-0.001-0.001,0.497,0.114,1.367,0.394
			c5.114,1.642,23.228,9.034,30.489,32.98c3.18,10.488,4.282,24.145,1.289,41.896C645.807,862,646.195,786.053,630.02,705.333z"/>
		<path fill="#EE4C2F" d="M403.52,847.5c6.221,15.163-1.028,31.439-8.625,42.84c19.168,31.846,45.479,59.029,80.974,66.577
			C430.34,928.371,461.218,878.661,403.52,847.5z"/>
		<path fill="#262E4F" d="M403.52,847.5l-31.366-4.218c0.81,2.077,1.644,4.165,2.503,6.259
			C381.546,848.258,390.931,847.5,403.52,847.5z"/>
		<path fill="#4D3227" d="M403.52,847.5c-12.589,0-21.974,0.758-28.863,2.041c5.622,13.692,12.322,27.643,20.24,40.799
			C402.491,878.939,409.74,862.663,403.52,847.5z"/>
	</g>
	<path fill="#EE4C2F" d="M382.717,905.273C371.73,840.105,403.52,847.5,403.52,847.5c-47.082-52.666-26.883-164.026-26.883-164.026
		l-2.524-3.611l-21.025,35.635C327.986,838.45,345.476,841.551,382.717,905.273z"/>
</g>
</svg>
