<?xml version="1.0" encoding="utf-8"?>
<!-- Generator: Adobe Illustrator 16.0.5, SVG Export Plug-In . SVG Version: 6.00 Build 0)  -->
<!DOCTYPE svg PUBLIC "-//W3C//DTD SVG 1.1//EN" "http://www.w3.org/Graphics/SVG/1.1/DTD/svg11.dtd">
<svg version="1.1" id="Layer_1" xmlns="http://www.w3.org/2000/svg" xmlns:xlink="http://www.w3.org/1999/xlink" x="0px" y="0px"
	 width="1024px" height="1024px" viewBox="0 0 1024 1024" enable-background="new 0 0 1024 1024" xml:space="preserve">
<g>
	<path d="M1012,512c0-276.142-223.858-500-500-500S12,235.858,12,512c0,216.053,137.037,400.097,328.931,469.965
		c-7.004-26.413-5.199-60.604,8.766-129.006l22.277-37.756c-16.129-20.029-26.238-36.84-27.685-40.314
		c-21.271-45.426-30.616-86.125-33.688-121.945c-5.145-12.229-2.025-48.885-6.718-50.284c-2.256-0.673-15.558-56.134-3.195-63.812
		c-11.89-64.143-24.854-164.231-3.172-217.684c11.096-27.354,28.167-48.336,47.826-64.44c-0.096-1.46-0.146-2.956-0.146-4.488
		c0-9.708,2.858-19.048,8.123-27.777c9.573-27.095,26.695-43.729,46.408-53.626c51.208-38.808,119.873-41.207,118.964-6.248
		l-0.572,0.374c74.227,3.753,133.636,35.862,142.579,76.593c1.433,0.871,2.862,1.764,4.284,2.705
		c24.717,16.354,40.561,38.591,42.287,56.597c14.582,16.678,23.962,35.669,24.676,57.106c2.127,63.794-11.76,135.71-23.554,184.119
		c7.234,14.149-3.931,59.971-5.979,60.582c-4.616,1.377-1.677,36.856-6.479,49.651c-1.758,20.332-5.545,42.236-12.383,65.682
		c-0.04,0.138-0.082,0.276-0.123,0.414c-0.252,0.858-0.5,1.718-0.761,2.581c-5.117,17.152-11.867,35.122-20.662,53.901
		c-1.433,3.442-11.36,19.962-27.218,39.735l15.199,27.312c10.799,53.891,14.784,105.815,6.962,148.721
		C862.406,928.522,1012,737.734,1012,512z"/>
</g>
</svg>
