<?xml version="1.0" encoding="utf-8"?>
<!-- Generator: Adobe Illustrator 16.0.5, SVG Export Plug-In . SVG Version: 6.00 Build 0)  -->
<!DOCTYPE svg PUBLIC "-//W3C//DTD SVG 1.1//EN" "http://www.w3.org/Graphics/SVG/1.1/DTD/svg11.dtd">
<svg version="1.1" id="Pattern" xmlns="http://www.w3.org/2000/svg" xmlns:xlink="http://www.w3.org/1999/xlink" x="0px" y="0px"
	 width="250px" height="250px" viewBox="0 0 250 250" enable-background="new 0 0 250 250" xml:space="preserve">
<path fill="none" d="M203.289,205.149c-1.356-0.619-2.869-0.337-3.305,0.615c-0.434,0.952,0.344,2.279,1.7,2.898
	s2.868,0.338,3.304-0.614C205.423,207.097,204.645,205.769,203.289,205.149z"/>
<polygon fill="none" points="213.585,189.221 198.674,186.967 197.893,188.677 212.805,190.931 "/>
<path fill="none" d="M185.293,202.43c-1.356-0.619-2.869-0.338-3.304,0.614c-0.435,0.953,0.343,2.28,1.699,2.899
	s2.869,0.338,3.304-0.614C187.428,204.376,186.648,203.049,185.293,202.43z"/>
<path fill="none" d="M236.635,131.877c9.469,0,15.579-10.704,16.975-13.418c-1.395-2.712-7.505-13.417-16.975-13.417
	c-9.471,0-15.58,10.704-16.975,13.417C221.055,121.171,227.164,131.877,236.635,131.877z M236.635,111.632
	c3.765,0,6.827,3.062,6.827,6.827c0,3.766-3.062,6.828-6.827,6.828c-3.766,0-6.828-3.062-6.828-6.828
	C229.807,114.694,232.869,111.632,236.635,111.632z"/>
<path fill="none" d="M247.127,221.534c-0.157-0.157-0.279-0.351-0.355-0.566l-3.762-10.767l-6.903,9.076
	c-0.276,0.364-0.704,0.582-1.161,0.592l-11.402,0.251l6.501,9.371c0.261,0.375,0.335,0.85,0.204,1.287l-3.287,10.921l10.923-3.285
	c0.437-0.132,0.911-0.057,1.286,0.204l9.371,6.5l0.251-11.402c0.011-0.457,0.228-0.885,0.592-1.161l9.077-6.903l-10.768-3.762
	C247.478,221.814,247.285,221.691,247.127,221.534z"/>
<path fill="none" d="M230.983,174.729c0.516,0.911,2.048,1.061,3.345,0.326s1.958-2.124,1.442-3.035s-2.048-1.06-3.345-0.326
	C231.129,172.428,230.468,173.817,230.983,174.729z"/>
<path fill="none" d="M236.635,122.287c2.11,0,3.827-1.717,3.827-3.828c0-2.11-1.717-3.827-3.827-3.827
	c-2.111,0-3.828,1.717-3.828,3.827C232.807,120.57,234.523,122.287,236.635,122.287z"/>
<path fill="none" d="M209.346,0.94h-4.323v4.324c0,0.828-0.672,1.5-1.5,1.5c-0.829,0-1.5-0.672-1.5-1.5V0.94h-4.324
	c-0.828,0-1.5-0.671-1.5-1.5c0-0.828,0.672-1.5,1.5-1.5h4.324v-4.323c0-0.828,0.671-1.5,1.5-1.5c0.828,0,1.5,0.672,1.5,1.5v4.323
	h4.323c0.828,0,1.5,0.672,1.5,1.5C210.846,0.27,210.174,0.94,209.346,0.94z M271.201,39.662c-0.096,0.093-2.377,2.291-5.777,3.404
	c-3.234,1.06-8.086,1.326-12.83-3.418c-1.859-1.858-4.671-2.403-8.357-1.619c-1.915,0.406-3.565,1.077-4.489,1.497v0.312
	c0,4.963-4.037,9-9,9h-12.091c-4.963,0-9-4.037-9-9v-2.499c0-4.963,4.037-9.001,9-9.001h12.091c4.61,0,8.419,3.484,8.938,7.957
	c1.052-0.416,2.415-0.879,3.928-1.2c4.677-0.995,8.517-0.153,11.103,2.433c6.977,6.976,14.098,0.272,14.396-0.018
	c0.596-0.573,1.545-0.559,2.119,0.036C271.807,38.139,271.795,39.086,271.201,39.662z"/>
<path fill="none" d="M-16.253,31.338h-12.091c-3.308,0-6,2.692-6,6.001v2.499c0,3.309,2.692,6,6,6h12.091c3.309,0,6-2.691,6-6
	v-1.244c0-0.002,0-0.003,0-0.005c0-0.001,0-0.002,0-0.003v-1.248C-10.253,34.029-12.944,31.338-16.253,31.338z M-15.192,39.648
	c-0.279,0.28-0.665,0.44-1.06,0.44s-0.782-0.16-1.062-0.44c-0.277-0.279-0.438-0.664-0.438-1.06c0-0.395,0.16-0.782,0.438-1.062
	c0.28-0.277,0.668-0.438,1.062-0.438c0.396,0,0.78,0.16,1.06,0.438c0.28,0.28,0.44,0.667,0.44,1.062
	C-14.752,38.983-14.912,39.369-15.192,39.648z"/>
<path fill="none" d="M230.747,31.338h-12.091c-3.309,0-6,2.692-6,6.001v2.499c0,3.309,2.691,6,6,6h12.091c3.309,0,6-2.691,6-6
	v-1.244c0-0.002-0.001-0.003,0-0.005c0-0.001,0-0.002,0-0.003v-1.248C236.747,34.029,234.056,31.338,230.747,31.338z
	 M231.808,39.648c-0.279,0.28-0.665,0.44-1.06,0.44s-0.782-0.16-1.062-0.44c-0.277-0.279-0.438-0.664-0.438-1.06
	c0-0.395,0.16-0.782,0.438-1.062c0.28-0.277,0.668-0.438,1.062-0.438c0.396,0,0.78,0.16,1.061,0.438
	c0.279,0.28,0.439,0.667,0.439,1.062C232.248,38.983,232.088,39.369,231.808,39.648z"/>
<path fill="none" d="M262.498,226.35l-10.723,8.155l-0.296,13.469c-0.012,0.553-0.326,1.054-0.819,1.304
	c-0.491,0.251-1.081,0.211-1.535-0.104l-11.07-7.678l-12.902,3.882c-0.527,0.159-1.102,0.015-1.492-0.376s-0.535-0.964-0.376-1.493
	l3.882-12.901l-7.678-11.07c-0.315-0.453-0.355-1.044-0.104-1.535c0.251-0.492,0.751-0.808,1.304-0.819l13.469-0.296l8.08-10.623
	c0.058-0.091,0.126-0.176,0.206-0.256c0.585-0.585,1.535-0.585,2.121,0c0,0,0.002,0.003,0.003,0.004
	c0.157,0.157,0.279,0.349,0.355,0.566l4.443,12.719l12.721,4.443c0.521,0.182,0.898,0.637,0.986,1.182
	C263.158,225.466,262.938,226.016,262.498,226.35z M224.596,152.276c-0.408-0.721-0.154-1.637,0.566-2.045
	c0.721-0.407,1.637-0.154,2.045,0.567l11.174,19.743c1.34,2.366,0.185,5.562-2.575,7.124c-2.759,1.562-6.093,0.907-7.433-1.46
	c-1.34-2.365-0.185-5.562,2.575-7.123c0.866-0.49,1.789-0.762,2.689-0.832L224.596,152.276z M236.635,102.042
	c5.323,0,10.487,2.762,14.933,7.986c3.272,3.847,5.009,7.653,5.081,7.813c0.178,0.393,0.178,0.843,0,1.234
	c-0.072,0.16-1.809,3.968-5.081,7.813c-4.445,5.226-9.609,7.987-14.933,7.987c-5.324,0-10.488-2.762-14.934-7.987
	c-3.271-3.847-5.008-7.653-5.08-7.813c-0.178-0.392-0.178-0.842,0-1.234c0.072-0.16,1.809-3.967,5.08-7.813
	C226.146,104.804,231.311,102.042,236.635,102.042z M206.332,88.292h4.324v-4.324c0-0.828,0.672-1.5,1.5-1.5s1.5,0.672,1.5,1.5
	v4.324h4.324c0.828,0,1.5,0.672,1.5,1.5s-0.672,1.5-1.5,1.5h-4.324v4.323c0,0.829-0.672,1.5-1.5,1.5s-1.5-0.671-1.5-1.5v-4.323
	h-4.324c-0.828,0-1.5-0.672-1.5-1.5S205.504,88.292,206.332,88.292z M200.961,144.731c0.586-0.586,1.535-0.586,2.122,0
	c0.585,0.586,0.586,1.535,0,2.121l-7.401,7.404c-0.024,0.024-0.053,0.042-0.078,0.063c-0.205,0.18-0.443,0.3-0.696,0.349
	c-0.095,0.018-0.19,0.027-0.286,0.027s-0.191-0.01-0.287-0.027c-0.029-0.006-0.057-0.019-0.086-0.025
	c-0.064-0.017-0.129-0.032-0.191-0.058c-0.023-0.009-0.043-0.023-0.065-0.034c-0.066-0.03-0.134-0.062-0.196-0.103
	c-0.031-0.021-0.06-0.051-0.09-0.074c-0.049-0.038-0.1-0.073-0.145-0.118l-3.084-3.087c-0.586-0.586-0.586-1.535,0-2.121
	c0.587-0.586,1.537-0.585,2.122,0.001l2.022,2.024L200.961,144.731z M182.442,208.672c-2.884-1.316-4.312-4.4-3.183-6.874
	c1.13-2.473,4.395-3.414,7.279-2.098c0.905,0.414,1.667,1.002,2.252,1.689l5.561-12.18c0.001-0.001,0.002-0.002,0.002-0.003
	l2.062-4.516c0.001-0.003,0.003-0.007,0.005-0.011c0.016-0.031,0.032-0.064,0.05-0.096c0.007-0.012,0.014-0.025,0.021-0.038
	c0.017-0.027,0.034-0.054,0.052-0.08c0.011-0.015,0.021-0.031,0.032-0.046c0.015-0.021,0.032-0.04,0.048-0.06
	c0.016-0.019,0.03-0.038,0.047-0.056c0.014-0.015,0.027-0.029,0.041-0.043c0.021-0.021,0.041-0.041,0.062-0.061
	c0.014-0.012,0.027-0.022,0.04-0.033c0.023-0.02,0.047-0.04,0.071-0.059c0.016-0.012,0.033-0.022,0.05-0.033
	c0.022-0.016,0.045-0.031,0.068-0.046c0.022-0.014,0.048-0.026,0.071-0.04c0.018-0.009,0.035-0.02,0.054-0.027
	c0.03-0.016,0.062-0.027,0.095-0.041c0.012-0.005,0.023-0.01,0.035-0.015c0.035-0.013,0.07-0.023,0.105-0.033
	c0.011-0.003,0.021-0.007,0.033-0.011c0.031-0.009,0.065-0.015,0.099-0.021c0.015-0.002,0.029-0.007,0.044-0.009
	c0.027-0.005,0.056-0.007,0.084-0.01c0.021-0.003,0.043-0.005,0.064-0.007c0.021-0.001,0.045-0.001,0.066-0.001
	c0.028-0.001,0.057-0.001,0.085,0c0.019,0.001,0.036,0.003,0.055,0.004c0.032,0.002,0.063,0.005,0.097,0.01
	c0.004,0,0.009,0,0.014,0.001L216,186.552c0.014,0.002,0.027,0.006,0.041,0.008c0.031,0.006,0.062,0.012,0.092,0.02
	c0.022,0.005,0.043,0.012,0.065,0.018c0.025,0.008,0.051,0.016,0.076,0.024c0.026,0.009,0.052,0.021,0.077,0.03
	c0.016,0.007,0.031,0.012,0.047,0.019c0.005,0.003,0.01,0.005,0.014,0.008c0.027,0.012,0.052,0.025,0.076,0.039
	c0.02,0.011,0.039,0.021,0.059,0.032c0.021,0.012,0.039,0.025,0.059,0.039c0.023,0.015,0.045,0.029,0.067,0.045
	c0.013,0.01,0.024,0.021,0.038,0.031c0.025,0.021,0.052,0.041,0.076,0.063c0.008,0.007,0.014,0.015,0.021,0.021
	c0.027,0.027,0.056,0.055,0.081,0.083c0.005,0.006,0.009,0.012,0.015,0.017c0.026,0.031,0.053,0.062,0.076,0.094
	c0.008,0.01,0.013,0.02,0.02,0.029c0.021,0.028,0.041,0.059,0.06,0.089c0.011,0.019,0.021,0.038,0.03,0.057
	c0.013,0.022,0.025,0.045,0.037,0.067c0.014,0.029,0.025,0.059,0.037,0.089c0.006,0.014,0.013,0.027,0.018,0.042
	c0.013,0.033,0.023,0.068,0.033,0.104c0.004,0.011,0.008,0.021,0.01,0.033c0.01,0.033,0.016,0.066,0.022,0.102
	c0.003,0.014,0.007,0.027,0.009,0.041c0.004,0.029,0.007,0.059,0.01,0.088c0.002,0.02,0.006,0.04,0.007,0.061
	c0.001,0.022,0.001,0.046,0.001,0.069c0,0.027,0.002,0.055,0,0.082c0,0.019-0.002,0.037-0.004,0.056
	c-0.002,0.032-0.006,0.064-0.01,0.096c0,0.004-0.001,0.01-0.002,0.014c-0.002,0.015-0.006,0.029-0.008,0.044
	c-0.006,0.029-0.012,0.059-0.018,0.088c-0.007,0.025-0.015,0.05-0.021,0.075c-0.008,0.021-0.014,0.043-0.021,0.064
	c-0.011,0.031-0.024,0.062-0.037,0.093c-0.005,0.012-0.009,0.023-0.014,0.034l-0.014,0.03c-0.001,0.001-0.001,0.002-0.001,0.003
	l-2.076,4.545c0,0.002,0,0.003-0.001,0.004l-7.331,16.056c-1.129,2.474-4.395,3.414-7.278,2.098
	c-2.885-1.317-4.312-4.401-3.183-6.874c1.129-2.474,4.395-3.414,7.279-2.098c0.905,0.414,1.667,1.001,2.251,1.689l4.722-10.342
	l-14.91-2.254l-6.877,15.061C188.592,209.048,185.326,209.989,182.442,208.672z M209.346,250.94h-4.323v4.324
	c0,0.828-0.672,1.5-1.5,1.5c-0.829,0-1.5-0.672-1.5-1.5v-4.324h-4.324c-0.828,0-1.5-0.671-1.5-1.5c0-0.828,0.672-1.5,1.5-1.5h4.324
	v-4.323c0-0.828,0.671-1.5,1.5-1.5c0.828,0,1.5,0.672,1.5,1.5v4.323h4.323c0.828,0,1.5,0.672,1.5,1.5
	C210.846,250.27,210.174,250.94,209.346,250.94z"/>
<path fill="none" d="M178.009,50.268c-0.729,0.678-1.564,1.154-2.424,1.43l2.603,2.803h0.312v-4.773v-0.001
	C178.341,49.909,178.191,50.098,178.009,50.268z"/>
<path fill="none" d="M172.638,48.525c0.713,0.767,2.238,0.558,3.33-0.457c1.092-1.014,1.414-2.519,0.701-3.285
	c-0.713-0.768-2.236-0.559-3.33,0.455C172.247,46.253,171.927,47.758,172.638,48.525z"/>
<path fill="none" d="M127.453,196.899c-0.607,0.563-1.557,0.528-2.121-0.078l-15.436-16.625c-1.852-1.992-1.465-5.369,0.857-7.526
	c2.324-2.157,5.719-2.292,7.57-0.299c1.85,1.992,1.465,5.368-0.859,7.526c-0.729,0.678-1.564,1.154-2.424,1.43l12.49,13.452
	C128.096,195.387,128.061,196.336,127.453,196.899z M175.66,169.619c0,8.34-8.312,15.125-18.529,15.125
	c-2.449,0-4.842-0.394-7.117-1.169c-3.137,1.338-6.102,2.017-8.822,2.017c-0.607,0-1.154-0.366-1.387-0.927
	s-0.104-1.205,0.326-1.634c1.119-1.121,2.08-2.339,2.865-3.634c-2.846-2.73-4.396-6.16-4.396-9.778
	c0-8.34,8.312-15.124,18.531-15.124C167.348,154.495,175.66,161.279,175.66,169.619z M137.301,139.877
	c0-2.719,2.58-4.932,5.75-4.932s5.75,2.213,5.75,4.932s-2.58,4.931-5.75,4.931S137.301,142.596,137.301,139.877z M143.324,87.254
	c0.777-0.287,1.641,0.11,1.928,0.888l0.992,2.684l8.41-3.113c0.775-0.288,1.639,0.108,1.928,0.886
	c0.287,0.776-0.109,1.64-0.887,1.927l-9.818,3.635c0,0,0,0,0,0.001c-0.031,0.013-0.064,0.016-0.098,0.025
	c-0.26,0.077-0.527,0.087-0.777,0.025c-0.094-0.023-0.186-0.055-0.271-0.095c-0.088-0.041-0.17-0.089-0.25-0.145
	c-0.023-0.018-0.043-0.041-0.066-0.059c-0.053-0.043-0.105-0.084-0.15-0.133c-0.018-0.018-0.029-0.04-0.045-0.059
	c-0.049-0.056-0.096-0.111-0.135-0.175c-0.021-0.033-0.033-0.071-0.053-0.105c-0.027-0.056-0.059-0.108-0.082-0.167v-0.001
	l-1.512-4.093C142.15,88.404,142.547,87.542,143.324,87.254z M83.932,64.266c-0.586-0.586-0.586-1.535,0-2.121s1.537-0.586,2.121,0
	l3.404,3.404l3.404-3.404c0.586-0.586,1.537-0.586,2.123,0c0.584,0.586,0.584,1.535-0.002,2.121l-3.404,3.404l3.404,3.404
	c0.586,0.586,0.586,1.535,0.002,2.121c-0.293,0.293-0.678,0.439-1.062,0.439c-0.383,0-0.768-0.146-1.061-0.439l-3.404-3.404
	l-3.404,3.404c-0.293,0.293-0.676,0.439-1.061,0.439c-0.383,0-0.768-0.146-1.061-0.439c-0.586-0.586-0.586-1.535,0-2.121
	l3.404-3.404L83.932,64.266z M70.834,134.838l28.353-45.174c1.172-1.868,3.646-2.435,5.514-1.262l32.344,20.3
	c1.869,1.172,2.434,3.646,1.262,5.515l-28.354,45.174c-1.172,1.868-3.645,2.435-5.514,1.262l-4.234-2.658l-3.342,5.322l-1.771-4.231
	l-4.581,0.244l3.34-5.322l-21.755-13.654C70.228,139.18,69.662,136.706,70.834,134.838z M57.299,74.794
	c3.171,0,5.75,2.211,5.75,4.93c0,2.721-2.579,4.932-5.75,4.932s-5.75-2.211-5.75-4.932C51.549,77.005,54.128,74.794,57.299,74.794z
	 M34.049,117.889c0.995,0,1.933,0.218,2.75,0.602V105.1c0-0.001,0-0.002,0-0.003v-4.964c0-0.004,0-0.008,0-0.012
	c0.001-0.035,0.003-0.071,0.006-0.107c0.001-0.015,0.001-0.029,0.003-0.044c0.004-0.031,0.009-0.062,0.015-0.095
	c0.003-0.018,0.006-0.036,0.01-0.055c0.005-0.025,0.012-0.05,0.019-0.074c0.007-0.023,0.012-0.047,0.02-0.07
	c0.006-0.019,0.014-0.037,0.021-0.056c0.01-0.027,0.02-0.055,0.03-0.081c0.008-0.017,0.016-0.031,0.023-0.047
	c0.013-0.028,0.025-0.056,0.04-0.083c0.01-0.018,0.021-0.034,0.031-0.051c0.015-0.023,0.028-0.048,0.044-0.07
	c0.015-0.022,0.032-0.044,0.049-0.065c0.012-0.016,0.023-0.032,0.036-0.048c0.021-0.026,0.046-0.051,0.069-0.076
	c0.009-0.01,0.018-0.02,0.026-0.028c0.026-0.026,0.054-0.05,0.081-0.074c0.009-0.007,0.018-0.016,0.026-0.022
	c0.025-0.021,0.054-0.041,0.081-0.062c0.012-0.008,0.023-0.018,0.036-0.026c0.023-0.016,0.048-0.029,0.072-0.044
	c0.019-0.011,0.037-0.022,0.056-0.032c0.02-0.011,0.04-0.02,0.061-0.029c0.025-0.012,0.051-0.024,0.077-0.035
	c0.017-0.007,0.034-0.013,0.052-0.019c0.029-0.012,0.06-0.022,0.091-0.031c0.005-0.002,0.009-0.004,0.014-0.005l17.5-5
	c0.014-0.004,0.027-0.006,0.041-0.01c0.03-0.008,0.061-0.015,0.092-0.021c0.022-0.005,0.044-0.007,0.066-0.011
	c0.026-0.004,0.053-0.008,0.079-0.01c0.028-0.003,0.056-0.003,0.083-0.004c0.018-0.001,0.033-0.003,0.051-0.003
	c0.005,0,0.011,0.001,0.016,0.001c0.029,0,0.058,0.002,0.086,0.004c0.021,0.002,0.044,0.003,0.066,0.005
	c0.023,0.003,0.046,0.007,0.069,0.011c0.026,0.005,0.054,0.009,0.08,0.014c0.016,0.004,0.031,0.009,0.047,0.013
	c0.032,0.008,0.064,0.016,0.097,0.026c0.009,0.003,0.019,0.007,0.027,0.01c0.037,0.013,0.073,0.026,0.108,0.042
	c0.007,0.003,0.014,0.006,0.02,0.009c0.037,0.017,0.074,0.034,0.109,0.054c0.01,0.006,0.02,0.013,0.029,0.018
	c0.03,0.019,0.062,0.037,0.091,0.057c0.019,0.013,0.035,0.026,0.052,0.039c0.021,0.016,0.042,0.03,0.062,0.046
	c0.024,0.021,0.047,0.043,0.07,0.065c0.012,0.01,0.023,0.02,0.034,0.03c0.025,0.026,0.049,0.054,0.073,0.081
	c0.007,0.009,0.016,0.017,0.022,0.025c0.022,0.026,0.042,0.055,0.062,0.083c0.008,0.012,0.017,0.022,0.024,0.034
	c0.017,0.024,0.031,0.05,0.046,0.075c0.011,0.018,0.021,0.035,0.031,0.053c0.011,0.021,0.02,0.042,0.03,0.062
	c0.012,0.025,0.023,0.05,0.034,0.075c0.007,0.017,0.013,0.035,0.019,0.053c0.012,0.029,0.022,0.06,0.031,0.091
	c0.001,0.004,0.003,0.009,0.005,0.013c0.004,0.015,0.006,0.029,0.01,0.044c0.007,0.028,0.015,0.058,0.021,0.087
	c0.005,0.026,0.008,0.052,0.012,0.077c0.003,0.022,0.006,0.045,0.009,0.067c0.003,0.033,0.004,0.066,0.005,0.1
	c0,0.013,0.002,0.024,0.002,0.037v0.033c0,0.001,0,0.002,0,0.003v4.997c0,0.001,0,0.002,0,0.003v17.65
	c0,2.719-2.58,4.932-5.75,4.932c-3.171,0-5.75-2.213-5.75-4.932s2.579-4.931,5.75-4.931c0.995,0,1.933,0.218,2.75,0.602v-11.368
	l-14.5,4.143v16.555c0,2.719-2.58,4.932-5.75,4.932c-3.171,0-5.75-2.213-5.75-4.932S30.878,117.889,34.049,117.889z M48.325,152.897
	c0.586,0.586,0.586,1.536,0,2.122c-0.293,0.293-0.677,0.439-1.061,0.439s-0.768-0.146-1.061-0.439l-3.404-3.404l-3.404,3.404
	c-0.293,0.293-0.677,0.439-1.061,0.439c-0.385,0-0.769-0.146-1.062-0.439c-0.585-0.586-0.585-1.536,0.001-2.122l3.403-3.403
	l-3.403-3.404c-0.586-0.586-0.586-1.536-0.001-2.121c0.586-0.586,1.536-0.586,2.122-0.001l3.404,3.404l3.404-3.404
	c0.586-0.585,1.535-0.585,2.121,0.001c0.586,0.585,0.586,1.535,0,2.121l-3.404,3.404L48.325,152.897z M13.53,90.356
	c-0.586-0.586-0.586-1.535-0.001-2.121c0.586-0.586,1.536-0.586,2.122,0l3.404,3.404l3.404-3.404c0.586-0.586,1.535-0.586,2.121,0
	s0.586,1.535,0,2.121l-3.404,3.404l3.404,3.404c0.586,0.586,0.586,1.535,0,2.121c-0.293,0.293-0.677,0.439-1.061,0.439
	s-0.768-0.146-1.061-0.439l-3.404-3.404l-3.404,3.404c-0.293,0.293-0.677,0.439-1.061,0.439c-0.385,0-0.769-0.146-1.062-0.439
	c-0.585-0.586-0.585-1.535,0.001-2.121l3.403-3.404L13.53,90.356z M15.375,150.037c0,2.72-2.579,4.931-5.75,4.931
	s-5.75-2.211-5.75-4.931c0-2.719,2.58-4.931,5.75-4.931S15.375,147.318,15.375,150.037z M12.499,226.35l-10.723,8.155l-0.296,13.469
	c-0.012,0.553-0.326,1.054-0.819,1.304c-0.492,0.251-1.082,0.211-1.536-0.104l-11.07-7.678l-12.902,3.882
	c-0.528,0.159-1.102,0.015-1.492-0.376c-0.391-0.391-0.535-0.964-0.376-1.493l3.882-12.901l-7.678-11.07
	c-0.315-0.453-0.354-1.044-0.104-1.535c0.251-0.492,0.751-0.808,1.304-0.819l13.469-0.296l8.08-10.623
	c0.058-0.091,0.126-0.176,0.206-0.256c0.585-0.585,1.535-0.585,2.121,0c0,0,0.002,0.003,0.003,0.004
	c0.157,0.157,0.279,0.349,0.355,0.566l4.444,12.719l12.72,4.443c0.521,0.182,0.899,0.637,0.986,1.182
	C13.158,225.466,12.938,226.016,12.499,226.35z M-13.365,102.042c5.323,0,10.487,2.762,14.933,7.986
	c3.272,3.847,5.009,7.653,5.082,7.813c0.177,0.393,0.177,0.843,0,1.234c-0.073,0.16-1.809,3.968-5.082,7.813
	c-4.445,5.226-9.609,7.987-14.933,7.987c-5.324,0-10.488-2.762-14.933-7.987c-3.272-3.847-5.009-7.653-5.081-7.813
	c-0.177-0.392-0.177-0.842,0-1.234c0.072-0.16,1.809-3.967,5.081-7.813C-23.854,104.804-18.69,102.042-13.365,102.042z
	 M31.635,212.007c0-1.729,5.652-0.404,14.618-0.536c8.967,0.132,14.619-1.192,14.619,0.536c0,3.125-12.411,4.951-14.619,5
	C44.046,216.958,31.635,215.132,31.635,212.007z M83.81,242.725L83.81,242.725l-1.062,1.061l-29.477,29.478
	c-0.003,0.003-0.007,0.006-0.01,0.009c-0.024,0.023-0.05,0.046-0.075,0.067c-0.013,0.011-0.023,0.021-0.036,0.031
	c-0.025,0.021-0.053,0.04-0.079,0.059c-0.014,0.01-0.027,0.021-0.042,0.029c-0.024,0.017-0.051,0.031-0.077,0.046
	c-0.017,0.01-0.033,0.021-0.051,0.029c-0.022,0.012-0.047,0.022-0.07,0.032c-0.021,0.011-0.043,0.021-0.064,0.029
	c-0.021,0.008-0.042,0.015-0.063,0.022c-0.025,0.009-0.052,0.019-0.077,0.025c-0.021,0.006-0.041,0.01-0.062,0.016
	c-0.027,0.006-0.056,0.014-0.084,0.019c-0.005,0.001-0.011,0.002-0.016,0.003l-14.938,2.563c-0.006,0.001-0.012,0.001-0.019,0.002
	c-0.047,0.007-0.095,0.012-0.143,0.016c-0.011,0-0.021,0.002-0.031,0.002c-0.056,0.003-0.111,0.002-0.168-0.002
	c-0.021-0.002-0.042-0.006-0.063-0.008c-0.027-0.004-0.056-0.005-0.083-0.011c-0.005,0-0.009-0.002-0.013-0.003
	c-0.072-0.013-0.143-0.03-0.211-0.053c-0.013-0.005-0.023-0.01-0.036-0.015c-0.053-0.019-0.104-0.041-0.154-0.065
	c-0.022-0.012-0.044-0.023-0.065-0.036c-0.04-0.022-0.078-0.047-0.116-0.072c-0.02-0.014-0.04-0.026-0.059-0.041
	c-0.051-0.039-0.101-0.081-0.146-0.125c-0.002-0.003-0.005-0.004-0.007-0.006c0-0.001,0-0.001-0.001-0.001
	c0-0.001,0-0.001-0.001-0.001c-0.002-0.002-0.003-0.005-0.005-0.007c-0.046-0.046-0.087-0.095-0.126-0.146
	c-0.015-0.019-0.027-0.039-0.041-0.059c-0.025-0.037-0.05-0.076-0.072-0.116c-0.012-0.021-0.024-0.043-0.035-0.065
	c-0.025-0.051-0.047-0.102-0.066-0.154c-0.005-0.013-0.011-0.023-0.015-0.036c-0.022-0.068-0.04-0.139-0.053-0.21
	c-0.001-0.005-0.003-0.009-0.003-0.014c-0.005-0.027-0.007-0.056-0.011-0.083c-0.002-0.021-0.006-0.042-0.008-0.063
	c-0.004-0.057-0.004-0.112-0.002-0.167c0-0.012,0.002-0.021,0.003-0.032c0.003-0.049,0.008-0.096,0.015-0.143
	c0.002-0.006,0.002-0.013,0.002-0.019l2.563-14.938c0.001-0.005,0.002-0.011,0.003-0.016c0.006-0.028,0.013-0.057,0.02-0.084
	c0.005-0.021,0.009-0.041,0.015-0.062c0.007-0.025,0.017-0.051,0.025-0.077c0.008-0.021,0.015-0.043,0.022-0.063
	c0.009-0.021,0.019-0.043,0.028-0.064c0.011-0.023,0.021-0.048,0.033-0.07c0.009-0.018,0.02-0.034,0.029-0.051
	c0.015-0.026,0.029-0.053,0.046-0.077c0.009-0.015,0.02-0.027,0.029-0.041c0.019-0.027,0.038-0.055,0.058-0.08
	c0.011-0.013,0.021-0.024,0.032-0.036c0.021-0.025,0.044-0.051,0.067-0.075c0.003-0.003,0.006-0.007,0.009-0.01l29.478-29.477
	l1.061-1.061v-0.001c3.598-3.597,8.479-3.011,13.058,1.567C86.936,234.361,87.46,239.073,83.81,242.725z M84.23,186.666
	c-0.001,0.003-0.002,0.005-0.002,0.008c-0.421,4.091-1.93,8.363-4.643,11.106c-2.668,2.698-6.648,4.184-11.209,4.184
	c-3.261,0-6.566-0.784-9.307-2.209c-6.72-3.494-7.821-10.192-7.88-13.874c-0.03-1.893,0.226-3.978,0.729-5.739
	c-0.831-0.164-2.397-0.354-5.214-0.354c-2.815,0-4.382,0.189-5.213,0.354c0.504,1.762,0.76,3.847,0.729,5.739
	c-0.059,3.682-1.16,10.38-7.88,13.874c-2.74,1.425-6.046,2.209-9.307,2.209c-4.561,0-8.541-1.485-11.209-4.184
	c-2.713-2.743-4.222-7.016-4.643-11.106c-0.001-0.003-0.001-0.005-0.002-0.008c-1.144-4.628-5.227-4.212-5.227-4.212v-4.624
	c0.833-0.958,12.717-4.036,12.717-4.036l-0.002,0.002c3.021-0.84,5.89-1.253,8.694-1.253c4.806,0,9.328,1.227,13.825,3.749
	c0.117,0.066,0.231,0.146,0.343,0.236c1.302-0.439,3.47-0.74,7.173-0.74c3.704,0,5.872,0.301,7.174,0.74
	c0.111-0.091,0.226-0.17,0.343-0.236c4.497-2.522,9.02-3.749,13.824-3.749c2.806,0,5.675,0.413,8.695,1.253l-0.002-0.002
	c0,0,11.885,3.078,12.718,4.036l-0.001,4.624C89.457,182.454,85.373,182.038,84.23,186.666z M106.482,214.514
	c0.586,0.586,0.586,1.535,0.002,2.121c-0.293,0.293-0.678,0.439-1.062,0.439c-0.383,0-0.768-0.146-1.061-0.439l-3.404-3.404
	l-3.404,3.404c-0.293,0.293-0.676,0.439-1.061,0.439c-0.383,0-0.768-0.146-1.061-0.439c-0.586-0.586-0.586-1.535,0-2.121
	l3.404-3.404l-3.404-3.404c-0.586-0.586-0.586-1.535,0-2.121s1.537-0.586,2.121,0l3.404,3.404l3.404-3.404
	c0.586-0.586,1.537-0.586,2.123,0c0.584,0.586,0.584,1.535-0.002,2.121l-3.404,3.404L106.482,214.514z"/>
<polygon fill="none" points="178.188,54.5 178.5,54.837 178.5,54.836 178.5,54.5 "/>
<path fill="none" d="M178.5,129.702c-0.477,0.063-0.977,0.24-1.438,0.537c-1.254,0.807-1.836,2.23-1.27,3.111
	c0.472,0.733,1.614,0.891,2.708,0.462V129.702L178.5,129.702z"/>
<polygon fill="none" points="173.993,114.828 178.5,121.841 178.5,121.841 178.5,109.705 178.5,109.705 "/>
<path fill="none" d="M180.42,130.378c-0.357-0.557-1.104-0.784-1.92-0.676v4.11l0,0c0.221-0.086,0.439-0.188,0.65-0.323
	C180.404,132.683,180.986,131.259,180.42,130.378z"/>
<polygon fill="none" points="182.267,100.88 181.25,99.298 178.5,102.425 178.5,102.426 178.5,105.162 "/>
<polygon fill="none" points="178.5,102.426 171.291,110.622 172.308,112.203 178.5,105.163 178.5,105.162 "/>
<path fill="none" d="M182.256,226.089c0.061-0.258,0.014-0.525-0.129-0.754s-0.361-0.387-0.619-0.445l-3.008-0.695v18.132
	L182.256,226.089z"/>
<path fill="none" d="M137.934,256.058l8.761,2.026c0.003,0,0.006,0,0.009,0.001s0.006,0.002,0.009,0.003l25.739,5.953
	c0.535,0.125,1.08-0.228,1.199-0.749l4.85-20.966v-18.132l-57.26-13.244c-0.074-0.018-0.148-0.025-0.223-0.025
	c-0.463,0-0.873,0.325-0.977,0.774l-8.605,37.203c-0.059,0.259-0.014,0.525,0.129,0.753c0.143,0.229,0.363,0.387,0.621,0.447
	L137.934,256.058L137.934,256.058L137.934,256.058z"/>
<rect x="137.517" y="259.866" transform="matrix(-0.9743 -0.2253 0.2253 -0.9743 217.7585 554.5646)" fill="none" width="6" height="9.987"/>
<path fill="none" d="M133.171,67.542c6.783-4.189,11.474-8.725,13.67-13.042h-27.344C121.695,58.817,126.386,63.354,133.171,67.542z
	"/>
<path fill="none" d="M187.812,119.685c0.566,0.88,2.103,0.943,3.357,0.138c0.94-0.604,1.502-1.557,1.486-2.367
	c-0.006-0.27-0.075-0.524-0.217-0.745c-0.566-0.881-2.104-0.944-3.357-0.138C187.828,117.379,187.246,118.804,187.812,119.685z"/>
<path fill="none" d="M28.299,67.339c-1.49,0-2.75,0.885-2.75,1.932s1.259,1.932,2.75,1.932c1.492,0,2.75-0.885,2.75-1.932
	S29.791,67.339,28.299,67.339z"/>
<path fill="none" d="M147.952,46.866c-0.918-3.305-3.947-5.613-7.367-5.613c-0.295,0-0.59,0.018-0.881,0.053
	c-2.5,0.303-4.242,1.471-5.178,3.475c-0.246,0.527-0.775,0.865-1.359,0.865c-0.582,0-1.113-0.338-1.359-0.865
	c-0.934-2.004-2.676-3.172-5.176-3.475c-0.266-0.031-0.51-0.049-0.746-0.053l-0.133-0.002c-3.422,0-6.451,2.309-7.369,5.613
	c-0.657,2.371-0.248,4.961,1.113,7.636h27.344C148.201,51.826,148.61,49.236,147.952,46.866z"/>
<path fill="none" d="M116.125,174.413c-0.713-0.768-2.236-0.559-3.33,0.455c-1.092,1.015-1.412,2.52-0.701,3.287
	c0.713,0.767,2.238,0.558,3.33-0.457C116.516,176.685,116.838,175.18,116.125,174.413z"/>
<rect x="62.945" y="239.339" transform="matrix(-0.7071 -0.7071 0.7071 -0.7071 -72.5181 483.8272)" fill="none" width="2" height="35.187"/>
<rect x="41.932" y="250.264" transform="matrix(-0.7071 0.7071 -0.7071 -0.7071 280.1703 388.977)" fill="none" width="35.187" height="4.5"/>
<polygon fill="none" points="39.972,267.909 44.129,272.066 49.101,271.213 40.826,262.938 "/>
<rect x="54.106" y="230.5" transform="matrix(0.7071 0.7071 -0.7071 0.7071 191.5689 33.6992)" fill="none" width="2" height="35.187"/>
<path fill="none" d="M145.85,177.925c0.545,0.451,0.701,1.221,0.375,1.848c-0.428,0.823-0.914,1.621-1.455,2.391
	c1.455-0.332,2.984-0.855,4.572-1.569c0.195-0.087,0.406-0.131,0.615-0.131c0.178,0,0.355,0.031,0.523,0.094
	c2.113,0.788,4.35,1.188,6.65,1.188c8.562,0,15.529-5.439,15.529-12.125s-6.967-12.124-15.529-12.124
	c-8.564,0-15.531,5.438-15.531,12.124C141.6,172.708,143.109,175.657,145.85,177.925z"/>
<polygon fill="none" points="83.3,180.15 84.782,181.423 88.366,179.253 84.254,178.446 "/>
<path fill="none" d="M79.064,177.696c-3.947-1.449-7.551-2.153-11.018-2.153c-4.265,0-8.295,1.095-12.319,3.345
	c-0.647,0.594-1.926,4.276-1.43,8.629c0.352,3.092,1.705,7.263,6.156,9.576c2.321,1.207,5.135,1.871,7.923,1.871
	c3.753,0,6.976-1.169,9.075-3.293c3.34-3.377,4.54-10.318,3.566-14.683C80.62,179.206,79.908,178.006,79.064,177.696z"/>
<rect x="67.544" y="236.245" transform="matrix(-0.7071 -0.7071 0.7071 -0.7071 -40.076 457.8892)" fill="none" width="14.5" height="2"/>
<path fill="none" d="M72.634,229.428l9.984,9.984c1.246-2.157,0.454-4.672-2.369-7.495C78.192,229.86,75.318,227.934,72.634,229.428
	z"/>
<polygon fill="none" points="5.046,179.253 8.63,181.423 10.112,180.15 9.158,178.446 "/>
<path fill="none" d="M25.365,175.543c-3.466,0-7.07,0.704-11.018,2.153c-0.843,0.31-1.556,1.51-1.953,3.292
	c-0.974,4.364,0.227,11.306,3.565,14.683c2.1,2.124,5.323,3.293,9.076,3.293c2.788,0,5.602-0.664,7.923-1.871
	c4.45-2.313,5.805-6.484,6.156-9.576c0.495-4.353-0.782-8.035-1.43-8.629C33.66,176.638,29.629,175.543,25.365,175.543z"/>
<polygon fill="none" points="54.299,97.122 39.799,101.265 39.799,103.145 54.299,99.001 "/>
<path fill="none" d="M57.299,81.655c1.49,0,2.75-0.885,2.75-1.932s-1.26-1.93-2.75-1.93c-1.491,0-2.75,0.883-2.75,1.93
	S55.808,81.655,57.299,81.655z"/>
<path fill="none" d="M51.549,115.889c-1.491,0-2.75,0.884-2.75,1.931s1.259,1.932,2.75,1.932c1.49,0,2.75-0.885,2.75-1.932
	S53.04,115.889,51.549,115.889z"/>
<path fill="none" d="M34.049,124.751c1.49,0,2.75-0.885,2.75-1.932s-1.26-1.931-2.75-1.931c-1.491,0-2.75,0.884-2.75,1.931
	S32.558,124.751,34.049,124.751z"/>
<path fill="none" d="M121.018-39.075c-0.463,0-0.873,0.325-0.977,0.774l-8.605,37.203c-0.059,0.259-0.014,0.525,0.129,0.753
	c0.143,0.229,0.363,0.387,0.621,0.447l25.748,5.955l0,0l0,0l8.761,2.026c0.003,0,0.006,0,0.009,0.001s0.006,0.002,0.009,0.003
	l25.739,5.953c0.535,0.125,1.08-0.228,1.199-0.749l4.85-20.966v-18.132L121.24-39.05C121.166-39.067,121.092-39.075,121.018-39.075z
	"/>
<path fill="none" d="M143.051,141.808c1.49,0,2.75-0.884,2.75-1.931s-1.26-1.932-2.75-1.932s-2.75,0.885-2.75,1.932
	S141.561,141.808,143.051,141.808z"/>
<path fill="none" d="M73.691,137.812l2.964,1.86l29.416-46.868l-2.963-1.86c-0.459-0.288-1.092-0.144-1.379,0.315l-28.353,45.174
	C73.087,136.892,73.232,137.522,73.691,137.812z"/>
<path fill="none" d="M106.033,158.111c0.461,0.288,1.092,0.144,1.379-0.315l28.354-45.174c0.287-0.459,0.145-1.091-0.316-1.379
	l-26.836-16.845l-29.417,46.868L106.033,158.111z"/>
<path fill="none" d="M-13.365,122.287c2.11,0,3.827-1.717,3.827-3.828c0-2.11-1.717-3.827-3.827-3.827
	c-2.111,0-3.828,1.717-3.828,3.827C-17.193,120.57-15.476,122.287-13.365,122.287z"/>
<rect x="137.517" y="9.865" transform="matrix(-0.9743 -0.2254 0.2254 -0.9743 274.0671 61.0108)" fill="none" width="6" height="9.988"/>
<path fill="none" d="M9.625,151.968c1.49,0,2.75-0.884,2.75-1.931s-1.26-1.931-2.75-1.931c-1.491,0-2.75,0.884-2.75,1.931
	S8.134,151.968,9.625,151.968z"/>
<path fill="none" d="M182.256-23.911c0.061-0.258,0.014-0.525-0.129-0.754s-0.361-0.387-0.619-0.445l-3.008-0.696v18.132
	L182.256-23.911z"/>
<path fill="none" d="M-13.365,131.877c9.469,0,15.579-10.704,16.975-13.418c-1.395-2.712-7.505-13.417-16.975-13.417
	c-9.471,0-15.58,10.704-16.975,13.417C-28.945,121.171-22.836,131.877-13.365,131.877z M-13.365,111.632
	c3.765,0,6.827,3.062,6.827,6.827c0,3.766-3.062,6.828-6.827,6.828c-3.765,0-6.828-3.062-6.828-6.828
	C-20.193,114.694-17.13,111.632-13.365,111.632z"/>
<path fill="none" d="M-2.873,221.534c-0.157-0.157-0.279-0.351-0.355-0.566l-3.762-10.767l-6.904,9.076
	c-0.276,0.364-0.704,0.582-1.161,0.592l-11.402,0.251l6.5,9.371c0.261,0.375,0.335,0.85,0.204,1.287l-3.287,10.921l10.922-3.285
	c0.437-0.132,0.911-0.057,1.286,0.204l9.372,6.5l0.25-11.402c0.01-0.457,0.228-0.885,0.592-1.161l9.078-6.903l-10.768-3.762
	C-2.522,221.814-2.715,221.691-2.873,221.534z"/>
<path fill="none" d="M24.202,39.662c-0.096,0.093-2.378,2.291-5.777,3.404c-3.234,1.06-8.086,1.326-12.831-3.418
	c-1.859-1.858-4.671-2.403-8.357-1.619c-1.915,0.406-3.565,1.077-4.489,1.497v0.312c0,4.963-4.037,9-9,9h-12.091
	c-4.962,0-9-4.037-9-9l0-2.499c0-4.963,4.037-9.001,9-9.001h12.091c4.61,0,8.418,3.484,8.938,7.957
	c1.051-0.416,2.415-0.879,3.928-1.2C1.29,34.1,5.129,34.941,7.715,37.527c6.976,6.976,14.097,0.272,14.396-0.018
	c0.595-0.573,1.544-0.559,2.119,0.036C24.806,38.139,24.794,39.086,24.202,39.662z M18.616,15.977c0.586,0.586,0.586,1.535,0,2.121
	c-0.293,0.293-0.677,0.439-1.061,0.439s-0.768-0.146-1.061-0.439l-3.404-3.404l-3.404,3.404c-0.293,0.293-0.677,0.439-1.061,0.439
	c-0.385,0-0.769-0.146-1.062-0.439c-0.585-0.586-0.585-1.535,0-2.121l3.404-3.404L7.564,9.168c-0.586-0.586-0.586-1.535,0-2.121
	c0.586-0.586,1.536-0.586,2.122,0l3.404,3.404l3.404-3.404c0.586-0.586,1.535-0.586,2.121,0s0.586,1.535,0,2.121l-3.404,3.404
	L18.616,15.977z M60.873,51.632c-3.171,0-5.75-2.212-5.75-4.932c0-2.719,2.579-4.931,5.75-4.931s5.75,2.212,5.75,4.931
	C66.623,49.42,64.043,51.632,60.873,51.632z M83.81-7.275L83.81-7.275l-1.062,1.061L53.272,23.263
	c-0.003,0.003-0.007,0.006-0.01,0.009c-0.024,0.023-0.05,0.046-0.075,0.067c-0.013,0.011-0.023,0.021-0.036,0.031
	c-0.025,0.021-0.053,0.04-0.079,0.059c-0.014,0.01-0.027,0.021-0.042,0.029c-0.024,0.017-0.051,0.031-0.077,0.046
	c-0.017,0.01-0.033,0.021-0.051,0.029c-0.022,0.012-0.047,0.022-0.07,0.032c-0.021,0.011-0.043,0.021-0.064,0.029
	c-0.021,0.008-0.042,0.015-0.063,0.022c-0.025,0.009-0.052,0.019-0.077,0.025c-0.021,0.006-0.041,0.01-0.062,0.016
	c-0.027,0.006-0.056,0.014-0.084,0.019c-0.005,0.001-0.011,0.002-0.016,0.003l-14.938,2.563c-0.006,0.001-0.012,0.001-0.019,0.002
	c-0.047,0.007-0.095,0.012-0.143,0.016c-0.011,0-0.021,0.002-0.031,0.002c-0.056,0.003-0.111,0.002-0.168-0.002
	c-0.021-0.002-0.042-0.006-0.063-0.008c-0.027-0.004-0.056-0.005-0.083-0.011c-0.005,0-0.009-0.002-0.013-0.003
	c-0.072-0.013-0.143-0.03-0.211-0.053c-0.013-0.005-0.023-0.01-0.036-0.015c-0.053-0.019-0.104-0.041-0.154-0.065
	c-0.022-0.012-0.044-0.023-0.065-0.036c-0.04-0.022-0.078-0.047-0.116-0.072c-0.02-0.014-0.04-0.026-0.059-0.041
	c-0.051-0.039-0.101-0.081-0.146-0.125c-0.002-0.003-0.005-0.004-0.007-0.006c0-0.001,0-0.001-0.001-0.001
	c0-0.001,0-0.001-0.001-0.001c-0.002-0.002-0.003-0.005-0.005-0.007c-0.046-0.046-0.087-0.095-0.126-0.146
	c-0.015-0.019-0.027-0.039-0.041-0.059c-0.025-0.037-0.05-0.076-0.072-0.116c-0.012-0.021-0.024-0.043-0.035-0.065
	c-0.025-0.051-0.047-0.102-0.066-0.154c-0.005-0.013-0.011-0.023-0.015-0.036c-0.022-0.068-0.04-0.139-0.053-0.21
	c-0.001-0.005-0.003-0.009-0.003-0.014c-0.005-0.027-0.007-0.056-0.011-0.083c-0.002-0.021-0.006-0.042-0.008-0.063
	c-0.004-0.057-0.004-0.112-0.002-0.167c0-0.012,0.002-0.021,0.003-0.032c0.003-0.049,0.008-0.096,0.015-0.143
	c0.002-0.006,0.002-0.013,0.002-0.019l2.563-14.938c0.001-0.005,0.002-0.011,0.003-0.016c0.006-0.028,0.013-0.057,0.02-0.084
	c0.005-0.021,0.009-0.041,0.015-0.062c0.007-0.025,0.017-0.051,0.025-0.077c0.008-0.021,0.015-0.043,0.022-0.063
	c0.009-0.021,0.019-0.043,0.028-0.064c0.011-0.023,0.021-0.048,0.033-0.07c0.009-0.018,0.02-0.034,0.029-0.051
	c0.015-0.026,0.029-0.053,0.046-0.077c0.009-0.015,0.02-0.027,0.029-0.041c0.019-0.027,0.038-0.055,0.058-0.08
	c0.011-0.013,0.021-0.024,0.032-0.036c0.021-0.025,0.044-0.051,0.067-0.075c0.003-0.003,0.006-0.007,0.009-0.01L68.253-20.71
	l1.061-1.061v-0.001c3.598-3.597,8.479-3.011,13.058,1.567C86.936-15.639,87.46-10.927,83.81-7.275z M100.957,28.165
	c0,2.719-2.578,4.932-5.75,4.932c-3.17,0-5.75-2.213-5.75-4.932s2.579-4.932,5.75-4.932c0.996,0,1.934,0.219,2.75,0.602V5.479
	c0-0.828,0.672-1.5,1.5-1.5s1.5,0.672,1.5,1.5V28.165z"/>
<path fill="none" d="M95.207,26.233c-1.49,0-2.75,0.885-2.75,1.932s1.259,1.932,2.75,1.932c1.492,0,2.75-0.885,2.75-1.932
	S96.699,26.233,95.207,26.233z"/>
<path fill="none" d="M72.634-20.572l9.984,9.984c1.246-2.157,0.454-4.672-2.369-7.495C78.192-20.14,75.318-22.066,72.634-20.572z"/>
<path fill="none" d="M60.873,44.77c-1.491,0-2.75,0.884-2.75,1.931s1.259,1.932,2.75,1.932c1.49,0,2.75-0.885,2.75-1.932
	S62.363,44.77,60.873,44.77z"/>
<rect x="54.106" y="-19.5" transform="matrix(0.7071 0.7071 -0.7071 0.7071 14.7922 -39.5241)" fill="none" width="2" height="35.187"/>
<polygon fill="none" points="39.972,17.909 44.129,22.066 49.101,21.213 40.826,12.938 "/>
<rect x="62.945" y="-10.661" transform="matrix(-0.7071 -0.7071 0.7071 -0.7071 104.2585 57.0505)" fill="none" width="2" height="35.187"/>
<rect x="67.544" y="-13.755" transform="matrix(-0.7071 -0.7071 0.7071 -0.7071 136.7007 31.1125)" fill="none" width="14.5" height="2"/>
<rect x="41.932" y="0.264" transform="matrix(-0.7071 0.7071 -0.7071 -0.7071 103.3936 -37.7997)" fill="none" width="35.187" height="4.5"/>
<path fill="#2D7E79" d="M178.5,49.727c1.859-2.15,2.073-5.149,0.369-6.985c-0.112-0.121-0.246-0.209-0.369-0.314v0v7.297V49.727z"/>
<path fill="#2D7E79" d="M269.111,37.51c-0.299,0.29-7.42,6.993-14.396,0.018c-2.586-2.586-6.426-3.428-11.103-2.433
	c-1.513,0.321-2.876,0.784-3.928,1.2c-0.519-4.473-4.327-7.957-8.938-7.957h-12.091c-4.963,0-9,4.038-9,9.001v2.499
	c0,4.963,4.037,9,9,9h12.091c4.963,0,9-4.037,9-9v-0.312c0.924-0.42,2.574-1.091,4.489-1.497c3.687-0.784,6.498-0.239,8.357,1.619
	c4.744,4.744,9.596,4.478,12.83,3.418c3.4-1.113,5.682-3.312,5.777-3.404c0.594-0.576,0.605-1.523,0.029-2.116
	C270.656,36.951,269.707,36.937,269.111,37.51z M236.747,38.586c0,0.001,0,0.002,0,0.003c-0.001,0.002,0,0.003,0,0.005v1.244
	c0,3.309-2.691,6-6,6h-12.091c-3.309,0-6-2.691-6-6v-2.499c0-3.309,2.691-6.001,6-6.001h12.091c3.309,0,6,2.691,6,6V38.586z"/>
<path fill="#2D7E79" d="M230.748,37.089c-0.395,0-0.782,0.16-1.062,0.438c-0.277,0.28-0.438,0.668-0.438,1.062
	c0,0.396,0.16,0.78,0.438,1.06c0.28,0.28,0.668,0.44,1.062,0.44s0.78-0.16,1.06-0.44c0.28-0.279,0.44-0.665,0.44-1.06
	c0-0.396-0.16-0.782-0.439-1.062C231.528,37.249,231.144,37.089,230.748,37.089z"/>
<path fill="#2D7E79" d="M209.346-2.06h-4.323v-4.323c0-0.828-0.672-1.5-1.5-1.5c-0.829,0-1.5,0.672-1.5,1.5v4.323h-4.324
	c-0.828,0-1.5,0.672-1.5,1.5c0,0.829,0.672,1.5,1.5,1.5h4.324v4.324c0,0.828,0.671,1.5,1.5,1.5c0.828,0,1.5-0.672,1.5-1.5V0.94
	h4.323c0.828,0,1.5-0.671,1.5-1.5C210.846-1.388,210.174-2.06,209.346-2.06z"/>
<path fill="#2D7E79" d="M184.672-26.253c-0.566-0.908-1.451-1.541-2.488-1.781l-3.684-0.852v3.08l3.008,0.696
	c0.258,0.059,0.477,0.217,0.619,0.445s0.189,0.496,0.129,0.754L178.5-7.674V5.641l6.678-28.875
	C185.42-24.272,185.24-25.345,184.672-26.253z"/>
<path fill="#2D7E79" d="M211.508,193.769l-4.722,10.342c-0.584-0.688-1.346-1.275-2.251-1.689c-2.885-1.316-6.15-0.376-7.279,2.098
	c-1.129,2.473,0.298,5.557,3.183,6.874c2.884,1.316,6.149,0.376,7.278-2.098l7.331-16.056c0.001-0.001,0.001-0.002,0.001-0.004
	l2.076-4.545c0-0.001,0-0.002,0.001-0.003l0.014-0.03c0.005-0.011,0.009-0.022,0.014-0.034c0.013-0.03,0.026-0.062,0.037-0.093
	c0.007-0.021,0.013-0.043,0.021-0.064c0.007-0.025,0.015-0.05,0.021-0.075c0.006-0.029,0.012-0.059,0.018-0.088
	c0.002-0.015,0.006-0.029,0.008-0.044c0.001-0.004,0.002-0.01,0.002-0.014c0.004-0.031,0.008-0.063,0.01-0.096
	c0.002-0.019,0.004-0.037,0.004-0.056c0.002-0.027,0-0.055,0-0.082c0-0.023,0-0.047-0.001-0.069
	c-0.001-0.021-0.005-0.041-0.007-0.061c-0.003-0.029-0.006-0.059-0.01-0.088c-0.002-0.014-0.006-0.027-0.009-0.041
	c-0.007-0.035-0.013-0.068-0.022-0.102c-0.002-0.012-0.006-0.022-0.01-0.033c-0.01-0.035-0.021-0.07-0.033-0.104
	c-0.005-0.015-0.012-0.028-0.018-0.042c-0.012-0.03-0.023-0.06-0.037-0.089c-0.012-0.022-0.024-0.045-0.037-0.067
	c-0.01-0.019-0.02-0.038-0.03-0.057c-0.019-0.03-0.039-0.061-0.06-0.089c-0.007-0.01-0.012-0.02-0.02-0.029
	c-0.023-0.031-0.05-0.062-0.076-0.094c-0.006-0.005-0.01-0.011-0.015-0.017c-0.025-0.028-0.054-0.056-0.081-0.083
	c-0.008-0.006-0.014-0.014-0.021-0.021c-0.024-0.022-0.051-0.043-0.076-0.063c-0.014-0.011-0.025-0.021-0.038-0.031
	c-0.022-0.016-0.044-0.03-0.067-0.045c-0.02-0.014-0.038-0.027-0.059-0.039c-0.02-0.012-0.039-0.021-0.059-0.032
	c-0.024-0.014-0.049-0.027-0.076-0.039c-0.004-0.003-0.009-0.005-0.014-0.008c-0.016-0.007-0.031-0.012-0.047-0.019
	c-0.025-0.01-0.051-0.021-0.077-0.03c-0.025-0.009-0.051-0.017-0.076-0.024c-0.022-0.006-0.043-0.013-0.065-0.018
	c-0.03-0.008-0.061-0.014-0.092-0.02c-0.014-0.002-0.027-0.006-0.041-0.008l-17.996-2.721c-0.005-0.001-0.01-0.001-0.014-0.001
	c-0.033-0.005-0.064-0.008-0.097-0.01c-0.019-0.001-0.036-0.003-0.055-0.004c-0.028-0.001-0.057-0.001-0.085,0
	c-0.021,0-0.045,0-0.066,0.001c-0.021,0.002-0.043,0.004-0.064,0.007c-0.028,0.003-0.057,0.005-0.084,0.01
	c-0.015,0.002-0.029,0.007-0.044,0.009c-0.033,0.007-0.067,0.013-0.099,0.021c-0.012,0.004-0.022,0.008-0.033,0.011
	c-0.035,0.01-0.07,0.021-0.105,0.033c-0.012,0.005-0.023,0.01-0.035,0.015c-0.032,0.014-0.064,0.025-0.095,0.041
	c-0.019,0.008-0.036,0.019-0.054,0.027c-0.023,0.014-0.049,0.026-0.071,0.04c-0.023,0.015-0.046,0.03-0.068,0.046
	c-0.017,0.011-0.034,0.021-0.05,0.033c-0.024,0.019-0.048,0.039-0.071,0.059c-0.013,0.011-0.026,0.021-0.04,0.033
	c-0.021,0.02-0.041,0.04-0.062,0.061c-0.014,0.014-0.027,0.028-0.041,0.043c-0.017,0.018-0.031,0.037-0.047,0.056
	c-0.016,0.02-0.033,0.039-0.048,0.06c-0.011,0.015-0.021,0.031-0.032,0.046c-0.018,0.026-0.035,0.053-0.052,0.08
	c-0.008,0.013-0.015,0.026-0.021,0.038c-0.018,0.031-0.034,0.064-0.05,0.096c-0.002,0.004-0.004,0.008-0.005,0.011l-2.062,4.516
	c0,0.001-0.001,0.002-0.002,0.003l-5.561,12.18c-0.585-0.688-1.347-1.275-2.252-1.689c-2.885-1.316-6.149-0.375-7.279,2.098
	c-1.129,2.474,0.299,5.558,3.183,6.874c2.884,1.317,6.149,0.376,7.278-2.097l6.877-15.061L211.508,193.769z M204.988,208.049
	c-0.436,0.952-1.947,1.233-3.304,0.614s-2.134-1.946-1.7-2.898c0.436-0.952,1.948-1.234,3.305-0.615
	C204.645,205.769,205.423,207.097,204.988,208.049z M198.674,186.967l14.911,2.254l-0.78,1.71l-14.912-2.254L198.674,186.967z
	 M186.992,205.329c-0.435,0.952-1.947,1.233-3.304,0.614s-2.134-1.946-1.699-2.899c0.435-0.952,1.947-1.233,3.304-0.614
	C186.648,203.049,187.428,204.376,186.992,205.329z"/>
<path fill="#2D7E79" d="M178.5,129.702L178.5,129.702c0.816-0.108,1.562,0.119,1.92,0.676c0.566,0.881-0.016,2.305-1.27,3.111
	c-0.211,0.136-0.43,0.237-0.65,0.323v3.107c0.417-0.082,0.834-0.194,1.244-0.366c0.35-0.146,0.694-0.327,1.027-0.541
	c2.334-1.5,3.372-4.18,2.61-6.358c-0.109-0.312-0.255-0.612-0.438-0.898l-4.443-6.915v0V129.702z"/>
<path fill="#2D7E79" d="M181.25,99.298l1.017,1.582l-3.767,4.282v0v4.542v0l5.453-6.2l6.146,9.564
	c-0.896,0.118-1.801,0.441-2.639,0.979c-2.667,1.714-3.642,4.97-2.171,7.257c1.469,2.287,4.834,2.755,7.502,1.041
	c2.668-1.715,3.643-4.971,2.172-7.258l-9.541-14.849c0-0.001-0.001-0.002-0.002-0.003l-2.701-4.204c0-0.001-0.001-0.001-0.002-0.002
	l-0.018-0.028c-0.006-0.01-0.015-0.02-0.021-0.029c-0.019-0.028-0.037-0.056-0.059-0.082c-0.014-0.018-0.028-0.034-0.043-0.052
	c-0.018-0.02-0.033-0.04-0.052-0.059c-0.021-0.021-0.042-0.042-0.064-0.062c-0.011-0.011-0.021-0.021-0.032-0.031
	c-0.004-0.003-0.007-0.006-0.01-0.009c-0.025-0.021-0.051-0.04-0.076-0.06c-0.015-0.011-0.029-0.022-0.045-0.034
	c-0.021-0.016-0.045-0.029-0.068-0.044c-0.02-0.013-0.039-0.024-0.059-0.036c-0.019-0.01-0.037-0.019-0.055-0.027
	c-0.027-0.014-0.053-0.027-0.08-0.039c-0.012-0.006-0.025-0.01-0.039-0.016c-0.032-0.013-0.064-0.025-0.098-0.035
	c-0.01-0.004-0.021-0.007-0.033-0.01c-0.035-0.011-0.069-0.021-0.104-0.028c-0.015-0.004-0.03-0.005-0.045-0.008
	c-0.032-0.006-0.063-0.013-0.095-0.017c-0.025-0.003-0.051-0.004-0.076-0.006c-0.021-0.001-0.043-0.004-0.064-0.005
	c-0.035-0.001-0.072,0-0.107,0.002c-0.012,0.001-0.023,0-0.035,0.001c-0.039,0.003-0.08,0.008-0.12,0.014
	c-0.007,0.002-0.014,0.002-0.022,0.003c-0.037,0.006-0.074,0.015-0.112,0.023c-0.01,0.003-0.021,0.005-0.029,0.007
	c-0.032,0.009-0.063,0.02-0.096,0.03c-0.015,0.005-0.03,0.009-0.046,0.015c-0.025,0.01-0.049,0.021-0.074,0.031
	c-0.021,0.01-0.043,0.019-0.064,0.029c-0.021,0.01-0.039,0.021-0.059,0.031c-0.025,0.014-0.05,0.027-0.074,0.043
	c-0.005,0.003-0.01,0.005-0.014,0.008c-0.015,0.01-0.027,0.02-0.041,0.029c-0.023,0.016-0.046,0.031-0.067,0.049
	c-0.022,0.017-0.042,0.033-0.062,0.051c-0.018,0.016-0.034,0.029-0.051,0.045c-0.023,0.021-0.044,0.044-0.065,0.066
	c-0.011,0.012-0.021,0.021-0.029,0.031l-1.812,2.06v4.542L181.25,99.298z M192.439,116.711c0.142,0.22,0.211,0.475,0.217,0.745
	c0.016,0.81-0.546,1.762-1.486,2.367c-1.255,0.806-2.791,0.742-3.357-0.138c-0.566-0.881,0.016-2.306,1.27-3.111
	C190.336,115.767,191.873,115.83,192.439,116.711z"/>
<path fill="#2D7E79" d="M228.373,176.206c1.34,2.367,4.674,3.021,7.433,1.46c2.76-1.562,3.915-4.758,2.575-7.124l-11.174-19.743
	c-0.408-0.722-1.324-0.975-2.045-0.567c-0.721,0.408-0.975,1.324-0.566,2.045l9.042,15.975c-0.9,0.07-1.823,0.342-2.689,0.832
	C228.188,170.645,227.033,173.841,228.373,176.206z M232.426,171.693c1.297-0.733,2.829-0.585,3.345,0.326s-0.146,2.301-1.442,3.035
	s-2.829,0.585-3.345-0.326S231.129,172.428,232.426,171.693z"/>
<path fill="#2D7E79" d="M178.5,59.246l7.377,7.945c0.564,0.606,1.514,0.642,2.121,0.078s0.643-1.513,0.078-2.12L178.5,54.836v0.001
	V59.246z"/>
<path fill="#2D7E79" d="M262.086,223.739l-12.721-4.443l-4.443-12.719c-0.076-0.218-0.198-0.409-0.355-0.566
	c-0.001-0.001-0.003-0.004-0.003-0.004c-0.586-0.585-1.536-0.585-2.121,0c-0.08,0.08-0.148,0.165-0.206,0.256l-8.08,10.623
	l-13.469,0.296c-0.553,0.012-1.053,0.327-1.304,0.819c-0.251,0.491-0.211,1.082,0.104,1.535l7.678,11.07l-3.882,12.901
	c-0.159,0.529-0.015,1.103,0.376,1.493s0.965,0.535,1.492,0.376l12.902-3.882l11.07,7.678c0.454,0.315,1.044,0.355,1.535,0.104
	c0.493-0.25,0.808-0.751,0.819-1.304l0.296-13.469l10.723-8.155c0.439-0.334,0.66-0.884,0.574-1.429
	C262.984,224.376,262.607,223.921,262.086,223.739z M249.384,232.555c-0.364,0.276-0.581,0.704-0.592,1.161l-0.251,11.402
	l-9.371-6.5c-0.375-0.261-0.85-0.336-1.286-0.204l-10.923,3.285l3.287-10.921c0.131-0.438,0.057-0.912-0.204-1.287l-6.501-9.371
	l11.402-0.251c0.457-0.01,0.885-0.228,1.161-0.592l6.903-9.076l3.762,10.767c0.076,0.216,0.198,0.409,0.355,0.566
	c0.158,0.157,0.351,0.28,0.566,0.355l10.768,3.762L249.384,232.555z"/>
<path fill="#2D7E79" d="M190.477,149.049c-0.586,0.586-0.586,1.535,0,2.121l3.084,3.087c0.045,0.045,0.096,0.08,0.145,0.118
	c0.03,0.023,0.059,0.053,0.09,0.074c0.062,0.041,0.13,0.072,0.196,0.103c0.022,0.011,0.042,0.025,0.065,0.034
	c0.062,0.025,0.127,0.041,0.191,0.058c0.029,0.007,0.057,0.02,0.086,0.025c0.096,0.018,0.191,0.027,0.287,0.027
	s0.191-0.01,0.286-0.027c0.253-0.049,0.491-0.169,0.696-0.349c0.025-0.021,0.054-0.039,0.078-0.063l7.401-7.404
	c0.586-0.586,0.585-1.535,0-2.121c-0.587-0.586-1.536-0.586-2.122,0l-6.34,6.343l-2.022-2.024
	C192.014,148.464,191.063,148.463,190.477,149.049z"/>
<path fill="#2D7E79" d="M236.635,125.287c3.765,0,6.827-3.062,6.827-6.828c0-3.765-3.062-6.827-6.827-6.827
	c-3.766,0-6.828,3.062-6.828,6.827C229.807,122.225,232.869,125.287,236.635,125.287z M236.635,114.632
	c2.11,0,3.827,1.717,3.827,3.827c0,2.111-1.717,3.828-3.827,3.828c-2.111,0-3.828-1.717-3.828-3.828
	C232.807,116.349,234.523,114.632,236.635,114.632z"/>
<path fill="#2D7E79" d="M216.621,119.076c0.072,0.16,1.809,3.967,5.08,7.813c4.445,5.226,9.609,7.987,14.934,7.987
	c5.323,0,10.487-2.762,14.933-7.987c3.272-3.846,5.009-7.653,5.081-7.813c0.178-0.392,0.178-0.842,0-1.234
	c-0.072-0.16-1.809-3.967-5.081-7.813c-4.445-5.225-9.609-7.986-14.933-7.986c-5.324,0-10.488,2.762-14.934,7.986
	c-3.271,3.847-5.008,7.653-5.08,7.813C216.443,118.234,216.443,118.685,216.621,119.076z M236.635,105.042
	c9.47,0,15.58,10.705,16.975,13.417c-1.396,2.714-7.506,13.418-16.975,13.418c-9.471,0-15.58-10.706-16.975-13.418
	C221.055,115.746,227.164,105.042,236.635,105.042z"/>
<path fill="#2D7E79" d="M209.346,247.94h-4.323v-4.323c0-0.828-0.672-1.5-1.5-1.5c-0.829,0-1.5,0.672-1.5,1.5v4.323h-4.324
	c-0.828,0-1.5,0.672-1.5,1.5c0,0.829,0.672,1.5,1.5,1.5h4.324v4.324c0,0.828,0.671,1.5,1.5,1.5c0.828,0,1.5-0.672,1.5-1.5v-4.324
	h4.323c0.828,0,1.5-0.671,1.5-1.5C210.846,248.612,210.174,247.94,209.346,247.94z"/>
<path fill="#2D7E79" d="M206.332,91.292h4.324v4.323c0,0.829,0.672,1.5,1.5,1.5s1.5-0.671,1.5-1.5v-4.323h4.324
	c0.828,0,1.5-0.672,1.5-1.5s-0.672-1.5-1.5-1.5h-4.324v-4.324c0-0.828-0.672-1.5-1.5-1.5s-1.5,0.672-1.5,1.5v4.324h-4.324
	c-0.828,0-1.5,0.672-1.5,1.5S205.504,91.292,206.332,91.292z"/>
<path fill="#2D7E79" d="M181.508,224.89c0.258,0.059,0.477,0.217,0.619,0.445s0.189,0.496,0.129,0.754l-3.756,16.237v13.314
	l6.678-28.875c0.242-1.038,0.062-2.11-0.506-3.019c-0.566-0.908-1.451-1.541-2.488-1.781l-3.684-0.852v3.08L181.508,224.89z"/>
<path fill="#2D7E79" d="M178.188,54.5l-2.603-2.803c0.859-0.275,1.695-0.752,2.424-1.43c0.183-0.17,0.332-0.358,0.491-0.542v-7.297
	c-1.906-1.631-5.019-1.415-7.202,0.612c-2.322,2.157-2.709,5.534-0.857,7.526l3.652,3.934H178.188z M176.669,44.783
	c0.713,0.767,0.391,2.271-0.701,3.285c-1.092,1.015-2.617,1.224-3.33,0.457c-0.711-0.768-0.391-2.272,0.701-3.287
	C174.433,44.225,175.956,44.016,176.669,44.783z"/>
<path fill="#2D7E79" d="M34.049,46.585c0-0.828-0.672-1.5-1.5-1.5s-1.5,0.672-1.5,1.5V54.5h3V46.585z"/>
<path fill="#2D7E79" d="M118.384,46.864c0.918-3.305,3.947-5.613,7.369-5.613l0.133,0.002c0.236,0.004,0.48,0.021,0.746,0.053
	c2.5,0.303,4.242,1.471,5.176,3.475c0.246,0.527,0.777,0.865,1.359,0.865c0.584,0,1.113-0.338,1.359-0.865
	c0.936-2.004,2.678-3.172,5.178-3.475c0.291-0.035,0.586-0.053,0.881-0.053c3.42,0,6.449,2.309,7.367,5.613
	c0.658,2.37,0.249,4.96-1.111,7.634h3.291c1.518-3.773,1.181-6.744,0.711-8.437c-1.277-4.598-5.494-7.811-10.258-7.811
	c-0.414,0-0.834,0.025-1.242,0.074c-3.008,0.363-4.939,1.645-6.174,3.074c-1.236-1.43-3.166-2.709-6.174-3.074
	c-0.371-0.045-0.719-0.068-1.057-0.074c-0.062-0.002-0.125-0.002-0.186-0.002c-4.764,0-8.982,3.213-10.26,7.812
	c-0.469,1.692-0.805,4.662,0.713,8.437h3.291C118.136,51.826,117.727,49.235,118.384,46.864z"/>
<path fill="#2D7E79" d="M173.65,13.292c-0.119,0.521-0.664,0.874-1.199,0.749l-25.739-5.953c0.802,0.191,1.299,0.992,1.114,1.797
	l-0.338,1.461l24.287,5.618c0.295,0.068,0.598,0.104,0.898,0.104c1.846,0,3.484-1.305,3.9-3.1l1.926-8.327V-7.674L173.65,13.292z"/>
<path fill="#2D7E79" d="M137.934,6.058l-25.748-5.955c-0.258-0.061-0.479-0.219-0.621-0.447c-0.143-0.228-0.188-0.494-0.129-0.753
	l8.605-37.203c0.104-0.449,0.514-0.774,0.977-0.774c0.074,0,0.148,0.008,0.223,0.025l57.26,13.244v-3.08l-56.584-13.086
	c-0.295-0.068-0.598-0.103-0.898-0.103c-1.844,0-3.484,1.303-3.9,3.099l-8.604,37.202c-0.24,1.039-0.061,2.111,0.506,3.02
	s1.451,1.54,2.49,1.779l24.287,5.618l0.338-1.461C136.32,6.373,137.127,5.87,137.934,6.058z"/>
<path fill="#2D7E79" d="M139.057,7.856l-0.338,1.461l5.846,1.352l0.338-1.461c0.187-0.805,0.99-1.305,1.792-1.125l-8.761-2.026
	C138.74,6.244,139.244,7.05,139.057,7.856z"/>
<polygon fill="#2D7E79" points="146.694,8.084 146.712,8.088 146.703,8.085 "/>
<rect x="143.402" y="10.88" transform="matrix(-0.9743 -0.2253 0.2253 -0.9743 282.4992 63.9902)" fill="#2D7E79" width="2.999" height="9.988"/>
<path fill="#2D7E79" d="M146.712,8.088l-0.018-0.004c-0.802-0.18-1.605,0.32-1.792,1.125l-0.338,1.461l2.924,0.676l0.338-1.461
	C148.011,9.08,147.514,8.279,146.712,8.088z"/>
<polygon fill="#2D7E79" points="137.934,6.058 137.934,6.058 137.934,6.058 "/>
<polygon fill="#2D7E79" points="134.332,21.634 134.333,21.634 134.331,21.633 "/>
<rect x="134.632" y="8.851" transform="matrix(0.9743 0.2253 -0.2253 0.9743 6.6209 -30.3192)" fill="#2D7E79" width="2.999" height="9.987"/>
<path fill="#2D7E79" d="M139.057,7.856c0.188-0.807-0.316-1.613-1.123-1.799l0,0c-0.807-0.188-1.613,0.315-1.799,1.123l-0.338,1.461
	l2.922,0.676L139.057,7.856z"/>
<path fill="#2D7E79" d="M133.207,19.835l0.338-1.463l-9.82-2.271c-0.805-0.187-1.613,0.316-1.799,1.124
	c-0.188,0.808,0.316,1.612,1.123,1.8l11.282,2.609C133.523,21.446,133.021,20.641,133.207,19.835z"/>
<path fill="#2D7E79" d="M143.439,23.7c-0.113,0-0.227-0.012-0.34-0.039c-0.807-0.186-1.311-0.992-1.123-1.799l0.338-1.461
	l-5.846-1.353l-0.338,1.462c-0.16,0.693-0.777,1.162-1.461,1.162c-0.111,0-0.224-0.013-0.337-0.039l20.05,4.637
	c0.113,0.027,0.227,0.039,0.338,0.039c0.684,0,1.301-0.469,1.461-1.162c0.186-0.807-0.316-1.613-1.123-1.799l-9.822-2.272
	l-0.338,1.461C144.738,23.231,144.121,23.7,143.439,23.7z"/>
<path fill="#2D7E79" d="M141.977,21.862c-0.188,0.807,0.316,1.613,1.123,1.799c0.113,0.027,0.227,0.039,0.34,0.039
	c0.682,0,1.299-0.469,1.459-1.162l0.338-1.461l-2.922-0.676L141.977,21.862z"/>
<path fill="#2D7E79" d="M136.131,20.511l0.338-1.462l-2.924-0.676l-0.338,1.463c-0.186,0.806,0.316,1.611,1.124,1.798l0.002,0
	c0.113,0.026,0.226,0.039,0.337,0.039C135.354,21.673,135.971,21.204,136.131,20.511z"/>
<path fill="#2D7E79" d="M69.314-21.771L69.314-21.771l-1.061,1.062L38.776,8.767c-0.003,0.003-0.006,0.007-0.009,0.01
	c-0.023,0.024-0.046,0.05-0.067,0.075c-0.011,0.012-0.021,0.023-0.032,0.036c-0.02,0.025-0.039,0.053-0.058,0.08
	c-0.01,0.014-0.021,0.026-0.029,0.041c-0.017,0.024-0.031,0.051-0.046,0.077c-0.01,0.017-0.021,0.033-0.029,0.051
	c-0.012,0.022-0.022,0.047-0.033,0.07c-0.01,0.021-0.02,0.043-0.028,0.064c-0.008,0.021-0.015,0.042-0.022,0.063
	c-0.009,0.026-0.019,0.052-0.025,0.077c-0.006,0.021-0.01,0.041-0.015,0.062c-0.007,0.027-0.014,0.056-0.02,0.084
	c-0.001,0.005-0.002,0.011-0.003,0.016l-2.563,14.938c0,0.006,0,0.013-0.002,0.019c-0.007,0.047-0.012,0.094-0.015,0.143
	c-0.001,0.011-0.003,0.021-0.003,0.032c-0.002,0.055-0.002,0.11,0.002,0.167c0.002,0.021,0.006,0.042,0.008,0.063
	c0.004,0.027,0.006,0.056,0.011,0.083c0,0.005,0.002,0.009,0.003,0.014c0.013,0.071,0.03,0.142,0.053,0.21
	c0.004,0.013,0.01,0.023,0.015,0.036c0.02,0.053,0.041,0.104,0.066,0.154c0.011,0.022,0.023,0.044,0.035,0.065
	c0.022,0.04,0.047,0.079,0.072,0.116c0.014,0.02,0.026,0.04,0.041,0.059c0.039,0.051,0.08,0.1,0.126,0.146
	c0.002,0.002,0.003,0.005,0.005,0.007c0.001,0,0.001,0,0.001,0.001c0.001,0,0.001,0,0.001,0.001
	c0.002,0.002,0.005,0.003,0.007,0.006c0.045,0.044,0.095,0.086,0.146,0.125c0.019,0.015,0.039,0.027,0.059,0.041
	c0.038,0.025,0.076,0.05,0.116,0.072c0.021,0.013,0.043,0.024,0.065,0.036c0.05,0.024,0.102,0.047,0.154,0.065
	c0.013,0.005,0.023,0.01,0.036,0.015c0.068,0.022,0.139,0.04,0.211,0.053c0.004,0.001,0.008,0.003,0.013,0.003
	c0.027,0.006,0.056,0.007,0.083,0.011c0.021,0.002,0.042,0.006,0.063,0.008c0.057,0.004,0.112,0.005,0.168,0.002
	c0.011,0,0.021-0.002,0.031-0.002c0.048-0.004,0.096-0.009,0.143-0.016c0.007-0.001,0.013-0.001,0.019-0.002l14.938-2.563
	c0.005-0.001,0.011-0.002,0.016-0.003c0.028-0.005,0.057-0.013,0.084-0.019c0.021-0.006,0.041-0.01,0.062-0.016
	c0.025-0.007,0.052-0.017,0.077-0.025c0.021-0.008,0.043-0.015,0.063-0.022c0.021-0.009,0.043-0.019,0.064-0.029
	c0.023-0.01,0.048-0.021,0.07-0.032c0.018-0.009,0.034-0.02,0.051-0.029c0.026-0.015,0.053-0.029,0.077-0.046
	c0.015-0.009,0.028-0.02,0.042-0.029c0.026-0.019,0.054-0.037,0.079-0.059c0.013-0.01,0.023-0.021,0.036-0.031
	c0.025-0.021,0.051-0.044,0.075-0.067c0.003-0.003,0.007-0.006,0.01-0.009L82.749-6.215l1.061-1.061h0.001
	c3.65-3.651,3.126-8.363-1.438-12.929C77.792-24.782,72.912-25.368,69.314-21.771z M66.839-15.054l1.414,1.414L43.373,11.241
	l-1.414-1.414L66.839-15.054z M70.375-11.518l3.183,3.182L48.676,16.545l-3.183-3.182L70.375-11.518z M44.129,22.066l-4.157-4.157
	l0.854-4.972l8.275,8.275L44.129,22.066z M52.211,20.08l-1.414-1.414L75.678-6.215l1.414,1.414L52.211,20.08z M79.213-6.922
	L68.96-17.175l1.414-1.414L80.627-8.336L79.213-6.922z M82.619-10.588l-9.984-9.984c2.684-1.494,5.558,0.433,7.615,2.489
	C83.073-15.26,83.865-12.745,82.619-10.588z"/>
<path fill="#2D7E79" d="M99.457,3.979c-0.828,0-1.5,0.672-1.5,1.5v18.356c-0.816-0.383-1.754-0.602-2.75-0.602
	c-3.17,0-5.75,2.213-5.75,4.932s2.579,4.932,5.75,4.932c3.172,0,5.75-2.213,5.75-4.932V5.479
	C100.957,4.65,100.285,3.979,99.457,3.979z M95.207,30.097c-1.49,0-2.75-0.885-2.75-1.932s1.259-1.932,2.75-1.932
	c1.492,0,2.75,0.885,2.75,1.932S96.699,30.097,95.207,30.097z"/>
<path fill="#2D7E79" d="M22.112,37.51c-0.3,0.29-7.421,6.993-14.396,0.018C5.129,34.941,1.29,34.1-3.388,35.095
	c-1.513,0.321-2.876,0.784-3.928,1.2c-0.519-4.473-4.328-7.957-8.938-7.957h-12.091c-4.963,0-9,4.038-9,9.001l0,2.499
	c0,4.963,4.037,9,9,9h12.091c4.963,0,9-4.037,9-9v-0.312c0.924-0.42,2.574-1.091,4.489-1.497c3.687-0.784,6.498-0.239,8.357,1.619
	c4.745,4.744,9.596,4.478,12.831,3.418c3.399-1.113,5.682-3.312,5.777-3.404c0.593-0.576,0.604-1.523,0.029-2.116
	C23.656,36.951,22.707,36.937,22.112,37.51z M-10.253,38.586c0,0.001,0,0.002,0,0.003c0,0.002,0,0.003,0,0.005v1.244
	c0,3.309-2.691,6-6,6h-12.091c-3.308,0-6-2.691-6-6v-2.499c0-3.309,2.692-6.001,6-6.001h12.091c3.309,0,6,2.691,6,6V38.586z"/>
<path fill="#2D7E79" d="M-16.252,37.089c-0.395,0-0.782,0.16-1.062,0.438c-0.277,0.28-0.438,0.668-0.438,1.062
	c0,0.396,0.16,0.78,0.438,1.06c0.28,0.28,0.667,0.44,1.062,0.44s0.78-0.16,1.06-0.44c0.28-0.279,0.44-0.665,0.44-1.06
	c0-0.396-0.16-0.782-0.44-1.062C-15.472,37.249-15.856,37.089-16.252,37.089z"/>
<path fill="#2D7E79" d="M18.616,7.047c-0.586-0.586-1.535-0.586-2.121,0l-3.404,3.404L9.686,7.047c-0.586-0.586-1.536-0.586-2.122,0
	c-0.585,0.586-0.585,1.535,0,2.121l3.404,3.404l-3.404,3.404c-0.586,0.586-0.586,1.535,0,2.121c0.293,0.293,0.677,0.439,1.062,0.439
	c0.384,0,0.768-0.146,1.061-0.439l3.404-3.404l3.404,3.404c0.293,0.293,0.677,0.439,1.061,0.439s0.768-0.146,1.061-0.439
	c0.586-0.586,0.586-1.535,0-2.121l-3.404-3.404l3.404-3.404C19.202,8.582,19.202,7.633,18.616,7.047z"/>
<path fill="#2D7E79" d="M60.873,41.77c-3.171,0-5.75,2.212-5.75,4.931c0,2.72,2.579,4.932,5.75,4.932s5.75-2.212,5.75-4.932
	C66.623,43.981,64.043,41.77,60.873,41.77z M60.873,48.632c-1.491,0-2.75-0.885-2.75-1.932s1.259-1.931,2.75-1.931
	c1.49,0,2.75,0.884,2.75,1.931S62.363,48.632,60.873,48.632z"/>
<path fill="#2D7E79" d="M168.282,109.501c-0.021,0.024-0.041,0.05-0.06,0.076c-0.012,0.014-0.023,0.028-0.033,0.043
	c-0.016,0.023-0.031,0.047-0.046,0.072c-0.012,0.018-0.024,0.037-0.035,0.056c-0.01,0.019-0.02,0.039-0.029,0.058
	c-0.012,0.025-0.025,0.051-0.037,0.076c-0.006,0.014-0.01,0.029-0.016,0.042c-0.013,0.032-0.025,0.063-0.036,0.095
	c-0.003,0.012-0.006,0.022-0.009,0.034c-0.011,0.034-0.021,0.07-0.028,0.105c-0.003,0.013-0.005,0.025-0.007,0.038
	c-0.007,0.034-0.014,0.068-0.018,0.102c-0.002,0.021-0.003,0.041-0.005,0.061c-0.002,0.027-0.005,0.055-0.005,0.082
	c-0.002,0.027,0,0.055,0.001,0.082c0,0.02,0,0.039,0.001,0.06c0.003,0.03,0.007,0.062,0.011,0.092
	c0.002,0.017,0.003,0.034,0.007,0.052c0.004,0.028,0.012,0.056,0.018,0.085c0.004,0.019,0.008,0.039,0.013,0.058
	c0.007,0.023,0.015,0.046,0.022,0.07c0.007,0.023,0.015,0.048,0.023,0.072c0.007,0.018,0.015,0.034,0.021,0.051
	c0.013,0.029,0.024,0.06,0.039,0.088c0.006,0.014,0.014,0.026,0.021,0.039c0.016,0.031,0.034,0.062,0.053,0.093
	c0.002,0.003,0.004,0.007,0.006,0.01l2.684,4.177c0.001,0,0.001,0.002,0.002,0.002l7.238,11.266
	c-0.895,0.119-1.801,0.442-2.639,0.98c-2.668,1.714-3.642,4.969-2.172,7.256c1.071,1.668,3.15,2.354,5.231,1.948l0,0v-3.107l0,0
	c-1.094,0.429-2.236,0.271-2.708-0.462c-0.566-0.881,0.016-2.305,1.27-3.111c0.462-0.297,0.962-0.474,1.438-0.537v-7.861
	l-4.507-7.013l4.507-5.124v-4.542l-6.192,7.041l-1.017-1.581l7.209-8.196v-0.001v-4.542l-10.209,11.607
	C168.288,109.493,168.285,109.497,168.282,109.501z"/>
<polygon fill="#2D7E79" points="178.5,59.246 178.5,54.837 178.188,54.5 174.093,54.5 178.5,59.247 "/>
<path fill="#2D7E79" d="M76.74,173.794l0.002,0.002c-3.021-0.84-5.89-1.253-8.695-1.253c-4.805,0-9.327,1.227-13.824,3.749
	c-0.117,0.066-0.231,0.146-0.343,0.236c-1.302-0.439-3.47-0.74-7.174-0.74c-3.703,0-5.871,0.301-7.173,0.74
	c-0.111-0.091-0.226-0.17-0.343-0.236c-4.497-2.522-9.02-3.749-13.825-3.749c-2.805,0-5.674,0.413-8.694,1.253l0.002-0.002
	c0,0-11.884,3.078-12.717,4.036v4.624c0,0,4.083-0.416,5.227,4.212c0.001,0.003,0.001,0.005,0.002,0.008
	c0.421,4.091,1.93,8.363,4.643,11.106c2.668,2.698,6.648,4.184,11.209,4.184c3.261,0,6.566-0.784,9.307-2.209
	c6.72-3.494,7.821-10.192,7.88-13.874c0.03-1.893-0.226-3.978-0.729-5.739c0.831-0.164,2.397-0.354,5.213-0.354
	c2.816,0,4.383,0.189,5.214,0.354c-0.504,1.762-0.76,3.847-0.729,5.739c0.059,3.682,1.16,10.38,7.88,13.874
	c2.74,1.425,6.046,2.209,9.307,2.209c4.561,0,8.541-1.485,11.209-4.184c2.713-2.743,4.222-7.016,4.643-11.106
	c0-0.003,0.001-0.005,0.002-0.008c1.143-4.628,5.227-4.212,5.227-4.212l0.001-4.624C88.625,176.872,76.74,173.794,76.74,173.794z
	 M8.63,181.423l-3.584-2.17l4.112-0.807l0.954,1.704L8.63,181.423z M39.115,187.517c-0.352,3.092-1.706,7.263-6.156,9.576
	c-2.321,1.207-5.135,1.871-7.923,1.871c-3.753,0-6.977-1.169-9.076-3.293c-3.339-3.377-4.539-10.318-3.565-14.683
	c0.397-1.782,1.11-2.982,1.953-3.292c3.947-1.449,7.552-2.153,11.018-2.153c4.265,0,8.295,1.095,12.32,3.345
	C38.333,179.481,39.61,183.164,39.115,187.517z M77.452,195.671c-2.1,2.124-5.322,3.293-9.075,3.293
	c-2.788,0-5.602-0.664-7.923-1.871c-4.451-2.313-5.805-6.484-6.156-9.576c-0.496-4.353,0.782-8.035,1.43-8.629
	c4.024-2.25,8.055-3.345,12.319-3.345c3.467,0,7.07,0.704,11.018,2.153c0.844,0.31,1.556,1.51,1.954,3.292
	C81.992,185.353,80.792,192.294,77.452,195.671z M84.782,181.423L83.3,180.15l0.954-1.704l4.111,0.807L84.782,181.423z"/>
<path fill="#2D7E79" d="M60.873,212.007c0-1.729-5.652-0.404-14.619-0.536c-8.966,0.132-14.618-1.192-14.618,0.536
	c0,3.125,12.411,4.951,14.618,5C48.461,216.958,60.873,215.132,60.873,212.007z"/>
<path fill="#2D7E79" d="M139.057,257.856l-0.338,1.462l5.846,1.352l0.338-1.461c0.187-0.805,0.99-1.305,1.792-1.125l-8.761-2.026
	C138.74,256.243,139.244,257.05,139.057,257.856z"/>
<path fill="#2D7E79" d="M173.65,263.292c-0.119,0.521-0.664,0.874-1.199,0.749l-25.739-5.953c0.802,0.191,1.299,0.992,1.114,1.797
	l-0.338,1.461l24.287,5.618c0.295,0.068,0.598,0.104,0.898,0.104c1.846,0,3.484-1.305,3.9-3.1l1.926-8.327v-13.314L173.65,263.292z"
	/>
<path fill="#2D7E79" d="M121.018,207.925c-1.844,0-3.484,1.303-3.9,3.099l-8.604,37.202c-0.24,1.039-0.061,2.111,0.506,3.02
	s1.451,1.54,2.49,1.779l24.287,5.617l0.338-1.461c0.186-0.808,0.992-1.311,1.799-1.123l-25.748-5.955
	c-0.258-0.061-0.479-0.219-0.621-0.447c-0.143-0.228-0.188-0.494-0.129-0.753l8.605-37.203c0.104-0.449,0.514-0.774,0.977-0.774
	c0.074,0,0.148,0.008,0.223,0.025l57.26,13.244v-3.08l-56.584-13.087C121.621,207.959,121.318,207.925,121.018,207.925z"/>
<rect x="143.402" y="260.879" transform="matrix(-0.9743 -0.2253 0.2253 -0.9743 226.1655 557.5596)" fill="#2D7E79" width="2.999" height="9.988"/>
<polygon fill="#2D7E79" points="146.694,258.084 146.712,258.088 146.703,258.085 "/>
<path fill="#2D7E79" d="M146.712,258.088l-0.018-0.004c-0.802-0.18-1.605,0.32-1.792,1.125l-0.338,1.461l2.924,0.676l0.338-1.461
	C148.011,259.08,147.514,258.279,146.712,258.088z"/>
<polygon fill="#2D7E79" points="134.332,271.634 134.333,271.634 134.331,271.634 "/>
<rect x="134.632" y="258.851" transform="matrix(0.9742 0.2256 -0.2256 0.9742 63.046 -23.9127)" fill="#2D7E79" width="2.999" height="9.988"/>
<polygon fill="#2D7E79" points="137.934,256.058 137.934,256.058 137.934,256.058 "/>
<path fill="#2D7E79" d="M139.057,257.856c0.188-0.807-0.316-1.613-1.123-1.799l0,0c-0.807-0.188-1.613,0.315-1.799,1.123
	l-0.338,1.461l2.922,0.677L139.057,257.856z"/>
<path fill="#2D7E79" d="M143.439,273.7c-0.113,0-0.227-0.012-0.34-0.039c-0.807-0.186-1.311-0.992-1.123-1.799l0.338-1.462
	l-5.846-1.352l-0.338,1.462c-0.16,0.693-0.777,1.162-1.461,1.162c-0.111,0-0.224-0.013-0.337-0.039l20.05,4.637
	c0.113,0.027,0.227,0.039,0.338,0.039c0.684,0,1.301-0.469,1.461-1.162c0.186-0.807-0.316-1.613-1.123-1.799l-9.822-2.272
	l-0.338,1.462C144.738,273.231,144.121,273.7,143.439,273.7z"/>
<path fill="#2D7E79" d="M133.207,269.835l0.338-1.463l-9.82-2.271c-0.805-0.187-1.613,0.316-1.799,1.124
	c-0.188,0.808,0.316,1.612,1.123,1.8l11.282,2.609C133.523,271.446,133.021,270.642,133.207,269.835z"/>
<path fill="#2D7E79" d="M141.977,271.862c-0.188,0.807,0.316,1.613,1.123,1.799c0.113,0.027,0.227,0.039,0.34,0.039
	c0.682,0,1.299-0.469,1.459-1.162l0.338-1.462l-2.922-0.676L141.977,271.862z"/>
<path fill="#2D7E79" d="M136.131,270.511l0.338-1.462l-2.924-0.677l-0.338,1.463c-0.186,0.807,0.316,1.611,1.124,1.799h0.002
	c0.113,0.026,0.226,0.039,0.337,0.039C135.354,271.673,135.971,271.204,136.131,270.511z"/>
<path fill="#2D7E79" d="M69.314,228.229L69.314,228.229l-1.061,1.062l-29.478,29.477c-0.003,0.003-0.006,0.007-0.009,0.01
	c-0.023,0.024-0.046,0.05-0.067,0.075c-0.011,0.012-0.021,0.023-0.032,0.036c-0.02,0.025-0.039,0.053-0.058,0.08
	c-0.01,0.014-0.021,0.026-0.029,0.041c-0.017,0.024-0.031,0.051-0.046,0.077c-0.01,0.017-0.021,0.033-0.029,0.051
	c-0.012,0.022-0.022,0.047-0.033,0.07c-0.01,0.021-0.02,0.043-0.028,0.064c-0.008,0.021-0.015,0.042-0.022,0.063
	c-0.009,0.026-0.019,0.052-0.025,0.077c-0.006,0.021-0.01,0.041-0.015,0.062c-0.007,0.027-0.014,0.056-0.02,0.084
	c-0.001,0.005-0.002,0.011-0.003,0.016l-2.563,14.938c0,0.006,0,0.013-0.002,0.019c-0.007,0.047-0.012,0.094-0.015,0.143
	c-0.001,0.011-0.003,0.021-0.003,0.032c-0.002,0.055-0.002,0.11,0.002,0.167c0.002,0.021,0.006,0.042,0.008,0.063
	c0.004,0.027,0.006,0.056,0.011,0.083c0,0.005,0.002,0.009,0.003,0.014c0.013,0.071,0.03,0.142,0.053,0.21
	c0.004,0.013,0.01,0.023,0.015,0.036c0.02,0.053,0.041,0.104,0.066,0.154c0.011,0.022,0.023,0.044,0.035,0.065
	c0.022,0.04,0.047,0.079,0.072,0.116c0.014,0.02,0.026,0.04,0.041,0.059c0.039,0.051,0.08,0.1,0.126,0.146
	c0.002,0.002,0.003,0.005,0.005,0.007c0.001,0,0.001,0,0.001,0.001c0.001,0,0.001,0,0.001,0.001
	c0.002,0.002,0.005,0.003,0.007,0.006c0.045,0.044,0.095,0.086,0.146,0.125c0.019,0.015,0.039,0.027,0.059,0.041
	c0.038,0.025,0.076,0.05,0.116,0.072c0.021,0.013,0.043,0.024,0.065,0.036c0.05,0.024,0.102,0.047,0.154,0.065
	c0.013,0.005,0.023,0.01,0.036,0.015c0.068,0.022,0.139,0.04,0.211,0.053c0.004,0.001,0.008,0.003,0.013,0.003
	c0.027,0.006,0.056,0.007,0.083,0.011c0.021,0.002,0.042,0.006,0.063,0.008c0.057,0.004,0.112,0.005,0.168,0.002
	c0.011,0,0.021-0.002,0.031-0.002c0.048-0.004,0.096-0.009,0.143-0.016c0.007-0.001,0.013-0.001,0.019-0.002l14.938-2.563
	c0.005-0.001,0.011-0.002,0.016-0.003c0.028-0.005,0.057-0.013,0.084-0.019c0.021-0.006,0.041-0.01,0.062-0.016
	c0.025-0.007,0.052-0.017,0.077-0.025c0.021-0.008,0.043-0.015,0.063-0.022c0.021-0.009,0.043-0.019,0.064-0.029
	c0.023-0.01,0.048-0.021,0.07-0.032c0.018-0.009,0.034-0.02,0.051-0.029c0.026-0.015,0.053-0.029,0.077-0.046
	c0.015-0.009,0.028-0.02,0.042-0.029c0.026-0.019,0.054-0.037,0.079-0.059c0.013-0.01,0.023-0.021,0.036-0.031
	c0.025-0.021,0.051-0.044,0.075-0.067c0.003-0.003,0.007-0.006,0.01-0.009l29.477-29.478l1.061-1.061h0.001
	c3.65-3.651,3.126-8.363-1.438-12.929C77.792,225.218,72.912,224.632,69.314,228.229z M66.839,234.946l1.414,1.414l-24.881,24.881
	l-1.414-1.414L66.839,234.946z M70.375,238.482l3.183,3.182l-24.881,24.881l-3.183-3.182L70.375,238.482z M44.129,272.066
	l-4.157-4.157l0.854-4.972l8.275,8.275L44.129,272.066z M52.211,270.08l-1.414-1.414l24.881-24.881l1.414,1.414L52.211,270.08z
	 M79.213,243.078L68.96,232.825l1.414-1.414l10.253,10.253L79.213,243.078z M82.619,239.412l-9.984-9.984
	c2.684-1.494,5.558,0.433,7.615,2.489C83.073,234.74,83.865,237.255,82.619,239.412z"/>
<path fill="#2D7E79" d="M72.096,140.353l21.755,13.654l-3.34,5.322l4.581-0.244l1.771,4.231l3.342-5.322l4.234,2.658
	c1.869,1.173,4.342,0.606,5.514-1.262l28.354-45.174c1.172-1.868,0.607-4.343-1.262-5.515l-32.344-20.3
	c-1.867-1.173-4.342-0.606-5.514,1.262l-28.353,45.174C69.662,136.706,70.228,139.18,72.096,140.353z M135.449,111.243
	c0.461,0.288,0.604,0.92,0.316,1.379l-28.354,45.174c-0.287,0.459-0.918,0.604-1.379,0.315l-26.836-16.845l29.417-46.868
	L135.449,111.243z M73.375,136.433l28.353-45.174c0.287-0.459,0.92-0.604,1.379-0.315l2.963,1.86l-29.416,46.868l-2.964-1.86
	C73.232,137.522,73.087,136.892,73.375,136.433z"/>
<path fill="#2D7E79" d="M34.049,127.751c3.17,0,5.75-2.213,5.75-4.932v-16.555l14.5-4.143v11.368
	c-0.817-0.384-1.755-0.602-2.75-0.602c-3.171,0-5.75,2.212-5.75,4.931s2.579,4.932,5.75,4.932c3.17,0,5.75-2.213,5.75-4.932v-17.65
	c0-0.001,0-0.002,0-0.003v-4.997c0-0.001,0-0.002,0-0.003v-0.033c0-0.013-0.002-0.024-0.002-0.037
	c-0.001-0.033-0.002-0.066-0.005-0.1c-0.003-0.022-0.006-0.045-0.009-0.067c-0.004-0.025-0.007-0.051-0.012-0.077
	c-0.006-0.029-0.014-0.059-0.021-0.087c-0.004-0.015-0.006-0.029-0.01-0.044c-0.002-0.004-0.004-0.009-0.005-0.013
	c-0.009-0.031-0.02-0.062-0.031-0.091c-0.006-0.018-0.012-0.036-0.019-0.053c-0.011-0.025-0.022-0.05-0.034-0.075
	c-0.011-0.021-0.02-0.042-0.03-0.062c-0.01-0.018-0.021-0.035-0.031-0.053c-0.015-0.025-0.029-0.051-0.046-0.075
	c-0.008-0.012-0.017-0.022-0.024-0.034c-0.021-0.028-0.04-0.057-0.062-0.083c-0.007-0.009-0.016-0.017-0.022-0.025
	c-0.024-0.027-0.048-0.055-0.073-0.081c-0.011-0.011-0.022-0.021-0.034-0.03c-0.023-0.022-0.046-0.045-0.07-0.065
	c-0.02-0.016-0.041-0.03-0.062-0.046c-0.017-0.013-0.033-0.026-0.052-0.039c-0.029-0.02-0.061-0.038-0.091-0.057
	c-0.01-0.005-0.02-0.012-0.029-0.018c-0.035-0.02-0.072-0.037-0.109-0.054c-0.006-0.003-0.013-0.006-0.02-0.009
	c-0.035-0.016-0.071-0.029-0.108-0.042c-0.009-0.003-0.019-0.007-0.027-0.01c-0.032-0.011-0.064-0.019-0.097-0.026
	c-0.016-0.004-0.031-0.009-0.047-0.013c-0.026-0.005-0.054-0.009-0.08-0.014c-0.023-0.004-0.046-0.008-0.069-0.011
	c-0.022-0.002-0.045-0.003-0.066-0.005c-0.028-0.002-0.057-0.004-0.086-0.004c-0.005,0-0.011-0.001-0.016-0.001
	c-0.018,0-0.033,0.002-0.051,0.003c-0.027,0.001-0.055,0.001-0.083,0.004c-0.026,0.002-0.053,0.006-0.079,0.01
	c-0.022,0.004-0.044,0.006-0.066,0.011c-0.031,0.006-0.062,0.013-0.092,0.021c-0.014,0.004-0.027,0.006-0.041,0.01l-17.5,5
	c-0.005,0.001-0.009,0.003-0.014,0.005c-0.031,0.009-0.062,0.02-0.091,0.031c-0.018,0.006-0.035,0.012-0.052,0.019
	c-0.026,0.011-0.052,0.023-0.077,0.035c-0.021,0.01-0.041,0.019-0.061,0.029c-0.019,0.01-0.037,0.021-0.056,0.032
	c-0.024,0.015-0.049,0.028-0.072,0.044c-0.013,0.009-0.024,0.019-0.036,0.026c-0.027,0.021-0.056,0.04-0.081,0.062
	c-0.009,0.007-0.018,0.016-0.026,0.022c-0.027,0.024-0.055,0.048-0.081,0.074c-0.009,0.009-0.018,0.019-0.026,0.028
	c-0.023,0.025-0.048,0.05-0.069,0.076c-0.013,0.016-0.024,0.032-0.036,0.048c-0.017,0.021-0.034,0.043-0.049,0.065
	c-0.016,0.022-0.029,0.047-0.044,0.07c-0.01,0.017-0.021,0.033-0.031,0.051c-0.015,0.027-0.027,0.055-0.04,0.083
	c-0.008,0.016-0.016,0.03-0.023,0.047c-0.011,0.026-0.021,0.054-0.03,0.081c-0.007,0.019-0.015,0.037-0.021,0.056
	c-0.008,0.023-0.013,0.047-0.02,0.07c-0.007,0.024-0.014,0.049-0.019,0.074c-0.004,0.019-0.007,0.037-0.01,0.055
	c-0.006,0.032-0.011,0.063-0.015,0.095c-0.002,0.015-0.002,0.029-0.003,0.044c-0.003,0.036-0.005,0.072-0.006,0.107
	c0,0.004,0,0.008,0,0.012v4.964c0,0.001,0,0.002,0,0.003v13.391c-0.817-0.384-1.755-0.602-2.75-0.602
	c-3.171,0-5.75,2.212-5.75,4.931S30.878,127.751,34.049,127.751z M51.549,119.751c-1.491,0-2.75-0.885-2.75-1.932
	s1.259-1.931,2.75-1.931c1.49,0,2.75,0.884,2.75,1.931S53.04,119.751,51.549,119.751z M39.799,101.265l14.5-4.143v1.879l-14.5,4.144
	V101.265z M34.049,120.889c1.49,0,2.75,0.884,2.75,1.931s-1.26,1.932-2.75,1.932c-1.491,0-2.75-0.885-2.75-1.932
	S32.558,120.889,34.049,120.889z"/>
<path fill="#2D7E79" d="M28.299,64.339c-3.17,0-5.75,2.213-5.75,4.932s2.579,4.932,5.75,4.932c3.172,0,5.75-2.213,5.75-4.932V54.5
	h-3v10.44C30.232,64.558,29.295,64.339,28.299,64.339z M28.299,71.202c-1.49,0-2.75-0.885-2.75-1.932s1.259-1.932,2.75-1.932
	c1.492,0,2.75,0.885,2.75,1.932S29.791,71.202,28.299,71.202z"/>
<path fill="#2D7E79" d="M115.041,181.327c0.859-0.275,1.695-0.752,2.424-1.43c2.324-2.158,2.709-5.534,0.859-7.526
	c-1.852-1.993-5.246-1.858-7.57,0.299c-2.322,2.157-2.709,5.534-0.857,7.526l15.436,16.625c0.564,0.606,1.514,0.642,2.121,0.078
	s0.643-1.513,0.078-2.12L115.041,181.327z M112.094,178.155c-0.711-0.768-0.391-2.272,0.701-3.287
	c1.094-1.014,2.617-1.223,3.33-0.455c0.713,0.767,0.391,2.271-0.701,3.285C114.332,178.713,112.807,178.922,112.094,178.155z"/>
<path fill="#2D7E79" d="M132.317,70.534c0.26,0.156,0.557,0.229,0.854,0.213c0.027,0.002,0.055,0.002,0.082,0.002
	c0.27,0,0.537-0.072,0.771-0.215c9.905-5.958,14.31-11.561,16.107-16.034h-3.291c-2.196,4.317-6.887,8.853-13.67,13.042
	c-6.785-4.188-11.476-8.725-13.674-13.042h-3.291C118.006,58.973,122.411,64.576,132.317,70.534z"/>
<path fill="#2D7E79" d="M138.6,169.619c0,3.618,1.551,7.048,4.396,9.778c-0.785,1.295-1.746,2.513-2.865,3.634
	c-0.43,0.429-0.559,1.073-0.326,1.634s0.779,0.927,1.387,0.927c2.721,0,5.686-0.679,8.822-2.017
	c2.275,0.775,4.668,1.169,7.117,1.169c10.217,0,18.529-6.785,18.529-15.125s-8.312-15.124-18.529-15.124
	C146.912,154.495,138.6,161.279,138.6,169.619z M157.131,157.495c8.562,0,15.529,5.438,15.529,12.124s-6.967,12.125-15.529,12.125
	c-2.301,0-4.537-0.399-6.65-1.188c-0.168-0.062-0.346-0.094-0.523-0.094c-0.209,0-0.42,0.044-0.615,0.131
	c-1.588,0.714-3.117,1.237-4.572,1.569c0.541-0.77,1.027-1.567,1.455-2.391c0.326-0.627,0.17-1.396-0.375-1.848
	c-2.74-2.268-4.25-5.217-4.25-8.306C141.6,162.934,148.566,157.495,157.131,157.495z"/>
<path fill="#2D7E79" d="M12.085,223.739l-12.72-4.443l-4.444-12.719c-0.076-0.218-0.198-0.409-0.355-0.566
	c-0.001-0.001-0.003-0.004-0.003-0.004c-0.586-0.585-1.536-0.585-2.121,0c-0.08,0.08-0.148,0.165-0.206,0.256l-8.08,10.623
	l-13.469,0.296c-0.552,0.012-1.053,0.327-1.304,0.819c-0.25,0.491-0.211,1.082,0.104,1.535l7.678,11.07l-3.882,12.901
	c-0.159,0.529-0.014,1.103,0.376,1.493c0.39,0.391,0.964,0.535,1.492,0.376l12.902-3.882l11.07,7.678
	c0.454,0.315,1.044,0.355,1.536,0.104c0.493-0.25,0.807-0.751,0.819-1.304l0.296-13.469l10.723-8.155
	c0.439-0.334,0.659-0.884,0.573-1.429C12.985,224.376,12.607,223.921,12.085,223.739z M-0.616,232.555
	c-0.364,0.276-0.582,0.704-0.592,1.161l-0.25,11.402l-9.372-6.5c-0.375-0.261-0.849-0.336-1.286-0.204l-10.922,3.285l3.287-10.921
	c0.131-0.438,0.057-0.912-0.204-1.287l-6.5-9.371l11.402-0.251c0.457-0.01,0.885-0.228,1.161-0.592l6.904-9.076l3.762,10.767
	c0.076,0.216,0.198,0.409,0.355,0.566c0.158,0.157,0.351,0.28,0.566,0.355l10.768,3.762L-0.616,232.555z"/>
<path fill="#2D7E79" d="M48.325,143.969c-0.586-0.586-1.535-0.586-2.121-0.001l-3.404,3.404l-3.404-3.404
	c-0.586-0.585-1.536-0.585-2.122,0.001c-0.585,0.585-0.585,1.535,0.001,2.121l3.403,3.404l-3.403,3.403
	c-0.586,0.586-0.586,1.536-0.001,2.122c0.293,0.293,0.677,0.439,1.062,0.439c0.384,0,0.768-0.146,1.061-0.439l3.404-3.404
	l3.404,3.404c0.293,0.293,0.677,0.439,1.061,0.439s0.768-0.146,1.061-0.439c0.586-0.586,0.586-1.536,0-2.122l-3.404-3.403
	l3.404-3.404C48.911,145.504,48.911,144.554,48.325,143.969z"/>
<path fill="#2D7E79" d="M13.529,99.286c0.293,0.293,0.677,0.439,1.062,0.439c0.384,0,0.768-0.146,1.061-0.439l3.404-3.404
	l3.404,3.404c0.293,0.293,0.677,0.439,1.061,0.439s0.768-0.146,1.061-0.439c0.586-0.586,0.586-1.535,0-2.121l-3.404-3.404
	l3.404-3.404c0.586-0.586,0.586-1.535,0-2.121s-1.535-0.586-2.121,0l-3.404,3.404l-3.404-3.404c-0.586-0.586-1.536-0.586-2.122,0
	c-0.585,0.586-0.585,1.535,0.001,2.121l3.403,3.404l-3.403,3.404C12.944,97.751,12.944,98.7,13.529,99.286z"/>
<path fill="#2D7E79" d="M106.484,205.584c-0.586-0.586-1.537-0.586-2.123,0l-3.404,3.404l-3.404-3.404
	c-0.584-0.586-1.535-0.586-2.121,0s-0.586,1.535,0,2.121l3.404,3.404l-3.404,3.404c-0.586,0.586-0.586,1.535,0,2.121
	c0.293,0.293,0.678,0.439,1.061,0.439c0.385,0,0.768-0.146,1.061-0.439l3.404-3.404l3.404,3.404
	c0.293,0.293,0.678,0.439,1.061,0.439c0.385,0,0.77-0.146,1.062-0.439c0.584-0.586,0.584-1.535-0.002-2.121l-3.404-3.404
	l3.404-3.404C107.068,207.119,107.068,206.17,106.484,205.584z"/>
<path fill="#2D7E79" d="M83.932,73.195c0.293,0.293,0.678,0.439,1.061,0.439c0.385,0,0.768-0.146,1.061-0.439l3.404-3.404
	l3.404,3.404c0.293,0.293,0.678,0.439,1.061,0.439c0.385,0,0.77-0.146,1.062-0.439c0.584-0.586,0.584-1.535-0.002-2.121
	l-3.404-3.404l3.404-3.404c0.586-0.586,0.586-1.535,0.002-2.121c-0.586-0.586-1.537-0.586-2.123,0l-3.404,3.404l-3.404-3.404
	c-0.584-0.586-1.535-0.586-2.121,0s-0.586,1.535,0,2.121l3.404,3.404l-3.404,3.404C83.346,71.66,83.346,72.609,83.932,73.195z"/>
<path fill="#2D7E79" d="M143.949,93.273L143.949,93.273c0.023,0.06,0.055,0.112,0.082,0.168c0.02,0.034,0.031,0.072,0.053,0.105
	c0.039,0.063,0.086,0.119,0.135,0.175c0.016,0.019,0.027,0.041,0.045,0.059c0.045,0.049,0.098,0.09,0.15,0.133
	c0.023,0.018,0.043,0.041,0.066,0.059c0.08,0.056,0.162,0.104,0.25,0.145c0.086,0.04,0.178,0.071,0.271,0.095
	c0.25,0.062,0.518,0.052,0.777-0.025c0.033-0.01,0.066-0.013,0.098-0.025c0-0.001,0-0.001,0-0.001l9.818-3.635
	c0.777-0.287,1.174-1.15,0.887-1.927c-0.289-0.777-1.152-1.174-1.928-0.886l-8.41,3.113l-0.992-2.684
	c-0.287-0.777-1.15-1.175-1.928-0.888c-0.777,0.288-1.174,1.15-0.887,1.927L143.949,93.273z"/>
<path fill="#2D7E79" d="M-13.365,125.287c3.765,0,6.827-3.062,6.827-6.828c0-3.765-3.062-6.827-6.827-6.827
	c-3.765,0-6.828,3.062-6.828,6.827C-20.193,122.225-17.13,125.287-13.365,125.287z M-13.365,114.632c2.11,0,3.827,1.717,3.827,3.827
	c0,2.111-1.717,3.828-3.827,3.828c-2.111,0-3.828-1.717-3.828-3.828C-17.193,116.349-15.476,114.632-13.365,114.632z"/>
<path fill="#2D7E79" d="M-33.379,119.076c0.072,0.16,1.809,3.967,5.081,7.813c4.445,5.226,9.609,7.987,14.933,7.987
	c5.323,0,10.487-2.762,14.933-7.987c3.272-3.846,5.009-7.653,5.082-7.813c0.177-0.392,0.177-0.842,0-1.234
	c-0.073-0.16-1.809-3.967-5.082-7.813c-4.445-5.225-9.609-7.986-14.933-7.986c-5.325,0-10.488,2.762-14.934,7.986
	c-3.272,3.847-5.008,7.653-5.081,7.813C-33.557,118.234-33.557,118.685-33.379,119.076z M-13.365,105.042
	c9.47,0,15.58,10.705,16.975,13.417c-1.396,2.714-7.506,13.418-16.975,13.418c-9.471,0-15.58-10.706-16.975-13.418
	C-28.945,115.746-22.836,105.042-13.365,105.042z"/>
<path fill="#2D7E79" d="M57.299,84.655c3.171,0,5.75-2.211,5.75-4.932c0-2.719-2.579-4.93-5.75-4.93s-5.75,2.211-5.75,4.93
	C51.549,82.444,54.128,84.655,57.299,84.655z M57.299,77.794c1.49,0,2.75,0.883,2.75,1.93s-1.26,1.932-2.75,1.932
	c-1.491,0-2.75-0.885-2.75-1.932S55.808,77.794,57.299,77.794z"/>
<path fill="#2D7E79" d="M3.875,150.037c0,2.72,2.58,4.931,5.75,4.931s5.75-2.211,5.75-4.931c0-2.719-2.579-4.931-5.75-4.931
	S3.875,147.318,3.875,150.037z M9.625,148.106c1.49,0,2.75,0.884,2.75,1.931s-1.26,1.931-2.75,1.931c-1.491,0-2.75-0.884-2.75-1.931
	S8.134,148.106,9.625,148.106z"/>
<path fill="#2D7E79" d="M143.051,144.808c3.17,0,5.75-2.212,5.75-4.931s-2.58-4.932-5.75-4.932s-5.75,2.213-5.75,4.932
	S139.881,144.808,143.051,144.808z M143.051,137.945c1.49,0,2.75,0.885,2.75,1.932s-1.26,1.931-2.75,1.931s-2.75-0.884-2.75-1.931
	S141.561,137.945,143.051,137.945z"/>
</svg>
