<?xml version="1.0" encoding="utf-8"?>
<!-- Generator: Adobe Illustrator 16.0.5, SVG Export Plug-In . SVG Version: 6.00 Build 0)  -->
<!DOCTYPE svg PUBLIC "-//W3C//DTD SVG 1.1//EN" "http://www.w3.org/Graphics/SVG/1.1/DTD/svg11.dtd">
<svg version="1.1" id="Pattern" xmlns="http://www.w3.org/2000/svg" xmlns:xlink="http://www.w3.org/1999/xlink" x="0px" y="0px"
	 width="500px" height="500px" viewBox="-125 -125 500 500" enable-background="new -125 -125 500 500" xml:space="preserve">
<g>
	<path fill="none" d="M289.423,293.18c-2.711-1.236-5.738-0.672-6.609,1.23c-0.869,1.904,0.688,4.559,3.398,5.797
		c2.713,1.238,5.736,0.676,6.609-1.229C293.69,297.078,292.134,294.422,289.423,293.18z"/>
	<polygon fill="none" points="310.015,261.324 280.192,256.816 278.63,260.236 308.454,264.746 	"/>
	<path fill="none" d="M253.431,287.742c-2.711-1.238-5.738-0.676-6.607,1.229c-0.869,1.906,0.686,4.561,3.396,5.799
		c2.713,1.238,5.738,0.676,6.609-1.229C257.7,291.635,256.142,288.98,253.431,287.742z"/>
	<path fill="none" d="M356.114,146.637c18.938,0,31.158-21.408,33.949-26.836c-2.789-5.424-15.008-26.834-33.949-26.834
		s-31.16,21.408-33.949,26.834C324.954,125.225,337.173,146.637,356.114,146.637z M356.114,106.146
		c7.531,0,13.654,6.124,13.654,13.654c0,7.532-6.123,13.656-13.654,13.656s-13.656-6.124-13.656-13.656
		C342.458,112.271,348.583,106.146,356.114,106.146z"/>
	<path fill="none" d="M377.099,325.951c-0.312-0.314-0.559-0.701-0.711-1.133l-7.523-21.533l-13.805,18.152
		c-0.553,0.727-1.41,1.164-2.324,1.184l-22.803,0.502l13.002,18.742c0.523,0.75,0.67,1.699,0.408,2.572l-6.574,21.844l21.846-6.57
		c0.875-0.264,1.822-0.113,2.572,0.408l18.742,13l0.502-22.805c0.023-0.914,0.457-1.77,1.184-2.322l18.154-13.805l-21.537-7.523
		C377.802,326.512,377.415,326.266,377.099,325.951z"/>
	<path fill="none" d="M344.81,232.34c1.033,1.824,4.098,2.123,6.691,0.652c2.594-1.469,3.916-4.246,2.883-6.07
		c-1.031-1.82-4.094-2.119-6.689-0.652C345.103,227.738,343.78,230.516,344.81,232.34z"/>
	<path fill="none" d="M356.114,127.457c4.221,0,7.654-3.435,7.654-7.656c0-4.22-3.434-7.654-7.654-7.654
		c-4.223,0-7.656,3.435-7.656,7.654C348.458,124.022,351.892,127.457,356.114,127.457z"/>
	<path fill="none" d="M301.536-115.237h-8.645v8.648c0,1.655-1.344,3-3,3c-1.66,0-3-1.345-3-3v-8.648h-8.648c-1.656,0-3-1.342-3-3
		c0-1.656,1.344-3,3-3h8.648v-8.646c0-1.656,1.34-3,3-3c1.656,0,3,1.344,3,3v8.646h8.645c1.656,0,3,1.344,3,3
		C304.536-116.577,303.192-115.237,301.536-115.237z M425.247-37.793c-0.191,0.186-4.754,4.582-11.555,6.808
		c-6.469,2.12-16.172,2.652-25.66-6.836c-3.719-3.716-9.342-4.806-16.715-3.238c-3.828,0.812-7.129,2.154-8.977,2.994v0.624
		c0,9.926-8.074,18-18,18h-24.182c-9.928,0-18-8.074-18-18v-4.998c0-9.926,8.072-18.002,18-18.002h24.182
		c9.219,0,16.838,6.969,17.875,15.914c2.105-0.832,4.832-1.758,7.855-2.4c9.355-1.989,17.035-0.306,22.207,4.866
		c13.953,13.952,28.195,0.544,28.793-0.036c1.191-1.146,3.09-1.117,4.238,0.072C426.458-40.839,426.435-38.945,425.247-37.793z"/>
	<path fill="none" d="M-149.661-54.441h-24.182c-6.616,0-12,5.385-12,12.002v4.998c0,6.618,5.384,12,12,12h24.182
		c6.618,0,12-5.382,12-12v-2.488c0-0.004,0-0.006,0-0.01c0-0.002,0-0.004,0-0.006v-2.496
		C-137.661-49.06-143.042-54.441-149.661-54.441z M-147.539-37.821c-0.559,0.56-1.33,0.88-2.12,0.88s-1.564-0.32-2.124-0.88
		c-0.554-0.558-0.876-1.328-0.876-2.12c0-0.79,0.32-1.563,0.876-2.124c0.56-0.554,1.336-0.876,2.124-0.876
		c0.792,0,1.56,0.32,2.12,0.876c0.56,0.561,0.88,1.334,0.88,2.124S-146.979-38.379-147.539-37.821z"/>
	<path fill="none" d="M344.339-54.441h-24.182c-6.617,0-12,5.385-12,12.002v4.998c0,6.618,5.383,12,12,12h24.182
		c6.619,0,12-5.382,12-12v-2.488c0-0.004-0.002-0.006,0-0.01c0-0.002,0-0.004,0-0.006v-2.496
		C356.339-49.06,350.958-54.441,344.339-54.441z M346.462-37.821c-0.559,0.56-1.332,0.88-2.121,0.88s-1.564-0.32-2.125-0.88
		c-0.553-0.558-0.875-1.328-0.875-2.12c0-0.79,0.32-1.563,0.875-2.124c0.561-0.554,1.336-0.876,2.125-0.876
		c0.793,0,1.559,0.32,2.121,0.876c0.559,0.561,0.879,1.334,0.879,2.124S347.021-38.379,346.462-37.821z"/>
	<path fill="none" d="M407.841,335.582l-21.445,16.311l-0.594,26.939c-0.023,1.105-0.652,2.105-1.637,2.605
		c-0.982,0.504-2.162,0.424-3.07-0.207l-22.141-15.355l-25.805,7.764c-1.053,0.318-2.203,0.029-2.982-0.752s-1.07-1.928-0.752-2.986
		l7.764-25.803l-15.357-22.139c-0.629-0.906-0.709-2.088-0.207-3.07c0.502-0.984,1.502-1.615,2.609-1.639l26.938-0.59l16.16-21.246
		c0.115-0.184,0.25-0.354,0.41-0.514c1.172-1.17,3.07-1.17,4.242,0c0,0,0.004,0.006,0.008,0.01c0.312,0.312,0.559,0.695,0.709,1.131
		l8.887,25.438l25.441,8.887c1.041,0.363,1.795,1.273,1.971,2.363C409.161,333.814,408.72,334.914,407.841,335.582z
		 M332.036,187.434c-0.816-1.441-0.309-3.273,1.133-4.09c1.441-0.812,3.273-0.307,4.09,1.135l22.348,39.486
		c2.68,4.732,0.371,11.125-5.148,14.248s-12.188,1.814-14.867-2.92c-2.68-4.73-0.371-11.125,5.15-14.246
		c1.732-0.98,3.576-1.523,5.377-1.664L332.036,187.434z M356.114,86.967c10.646,0,20.975,5.524,29.867,15.972
		c6.543,7.694,10.018,15.307,10.16,15.626c0.357,0.786,0.357,1.687,0,2.469c-0.143,0.319-3.617,7.936-10.16,15.627
		c-8.891,10.451-19.219,15.973-29.867,15.973s-20.977-5.523-29.867-15.973c-6.543-7.695-10.016-15.308-10.16-15.627
		c-0.355-0.784-0.355-1.685,0-2.469c0.145-0.319,3.617-7.934,10.16-15.626C335.138,92.491,345.466,86.967,356.114,86.967z
		 M295.509,59.467h8.648v-8.648c0-1.655,1.344-3,3-3s3,1.345,3,3v8.648h8.648c1.656,0,3,1.344,3,3s-1.344,3-3,3h-8.648v8.646
		c0,1.657-1.344,3-3,3s-3-1.343-3-3v-8.646h-8.648c-1.656,0-3-1.344-3-3S293.853,59.467,295.509,59.467z M284.767,172.344
		c1.172-1.172,3.07-1.172,4.244,0c1.17,1.172,1.172,3.07,0,4.242l-14.803,14.809c-0.047,0.049-0.105,0.084-0.156,0.125
		c-0.41,0.361-0.885,0.602-1.391,0.699c-0.191,0.035-0.381,0.055-0.572,0.055c-0.193,0-0.381-0.02-0.574-0.055
		c-0.057-0.012-0.115-0.039-0.172-0.051c-0.127-0.033-0.258-0.062-0.381-0.115c-0.047-0.018-0.086-0.045-0.131-0.068
		c-0.133-0.059-0.268-0.123-0.393-0.205c-0.062-0.043-0.121-0.104-0.18-0.148c-0.098-0.076-0.199-0.146-0.289-0.236l-6.168-6.174
		c-1.172-1.172-1.172-3.07,0-4.242s3.074-1.17,4.242,0.002l4.045,4.049L284.767,172.344z M247.728,300.227
		c-5.766-2.633-8.623-8.801-6.365-13.748c2.26-4.945,8.791-6.828,14.559-4.195c1.811,0.828,3.334,2.004,4.504,3.377l11.123-24.359
		c0-0.002,0.004-0.004,0.004-0.006l4.123-9.033c0.002-0.004,0.006-0.012,0.01-0.021c0.031-0.061,0.064-0.127,0.102-0.191
		c0.012-0.025,0.027-0.049,0.041-0.076c0.033-0.055,0.068-0.107,0.104-0.16c0.023-0.029,0.043-0.062,0.064-0.092
		c0.029-0.041,0.064-0.08,0.096-0.119s0.059-0.078,0.094-0.113c0.027-0.029,0.055-0.059,0.082-0.086
		c0.043-0.041,0.082-0.082,0.125-0.121c0.027-0.023,0.053-0.045,0.078-0.066c0.047-0.039,0.094-0.08,0.143-0.117
		c0.033-0.025,0.066-0.045,0.1-0.066c0.045-0.031,0.09-0.062,0.137-0.094c0.043-0.027,0.096-0.051,0.143-0.078
		c0.035-0.02,0.068-0.041,0.107-0.055c0.061-0.031,0.125-0.055,0.191-0.082c0.023-0.01,0.045-0.02,0.068-0.031
		c0.07-0.023,0.141-0.045,0.209-0.064c0.023-0.006,0.043-0.014,0.066-0.021c0.062-0.02,0.131-0.031,0.199-0.043
		c0.029-0.004,0.059-0.014,0.088-0.018c0.053-0.01,0.111-0.014,0.168-0.021c0.041-0.004,0.086-0.008,0.127-0.012
		c0.043-0.004,0.09-0.004,0.133-0.004c0.055,0,0.113,0,0.17,0c0.037,0.004,0.072,0.008,0.111,0.008
		c0.062,0.004,0.125,0.012,0.193,0.021c0.008,0,0.018,0,0.027,0.002l35.994,5.447c0.027,0.006,0.055,0.014,0.082,0.018
		c0.062,0.012,0.125,0.023,0.184,0.039c0.043,0.01,0.086,0.023,0.131,0.035c0.049,0.016,0.102,0.033,0.15,0.049
		c0.053,0.018,0.105,0.041,0.156,0.061c0.031,0.014,0.061,0.023,0.094,0.037c0.008,0.006,0.02,0.01,0.027,0.018
		c0.055,0.023,0.104,0.049,0.152,0.076c0.039,0.021,0.078,0.043,0.117,0.064c0.043,0.023,0.078,0.051,0.117,0.078
		c0.047,0.031,0.09,0.059,0.135,0.09c0.025,0.02,0.049,0.043,0.076,0.062c0.051,0.041,0.105,0.082,0.152,0.125
		c0.016,0.016,0.027,0.031,0.043,0.043c0.053,0.055,0.111,0.109,0.16,0.166c0.012,0.012,0.02,0.023,0.031,0.033
		c0.051,0.062,0.105,0.125,0.152,0.188c0.016,0.02,0.025,0.041,0.039,0.059c0.043,0.057,0.082,0.117,0.121,0.178
		c0.02,0.039,0.041,0.076,0.059,0.115c0.027,0.043,0.051,0.09,0.074,0.133c0.027,0.059,0.051,0.117,0.074,0.18
		c0.012,0.027,0.025,0.053,0.035,0.082c0.027,0.066,0.047,0.137,0.066,0.209c0.008,0.021,0.016,0.041,0.02,0.064
		c0.02,0.066,0.033,0.133,0.045,0.205c0.006,0.029,0.014,0.055,0.018,0.082c0.008,0.059,0.016,0.119,0.02,0.176
		c0.004,0.041,0.012,0.08,0.016,0.123c0,0.043,0,0.092,0,0.137c0,0.055,0.004,0.109,0,0.164c0,0.039-0.004,0.074-0.008,0.113
		c-0.004,0.062-0.012,0.127-0.02,0.191c0,0.008-0.002,0.02-0.004,0.027c-0.004,0.031-0.012,0.059-0.016,0.09
		c-0.012,0.057-0.023,0.117-0.035,0.176c-0.016,0.049-0.031,0.098-0.043,0.148c-0.016,0.043-0.027,0.086-0.043,0.129
		c-0.02,0.062-0.047,0.125-0.074,0.186c-0.008,0.025-0.016,0.045-0.027,0.068l-0.027,0.059c-0.002,0.004-0.002,0.004-0.002,0.008
		l-4.152,9.09c0,0.004,0,0.006-0.002,0.008l-14.662,32.111c-2.258,4.947-8.791,6.828-14.557,4.197
		c-5.77-2.635-8.623-8.803-6.365-13.75s8.791-6.828,14.559-4.195c1.811,0.828,3.334,2.002,4.502,3.379l9.443-20.684l-29.818-4.508
		l-13.754,30.121C260.028,300.979,253.497,302.861,247.728,300.227z M301.536,384.762h-8.645v8.648c0,1.656-1.344,3-3,3
		c-1.66,0-3-1.344-3-3v-8.648h-8.648c-1.656,0-3-1.34-3-3c0-1.656,1.344-3,3-3h8.648v-8.645c0-1.656,1.34-3,3-3c1.656,0,3,1.344,3,3
		v8.645h8.645c1.656,0,3,1.344,3,3C304.536,383.422,303.192,384.762,301.536,384.762z"/>
	<path fill="none" d="M238.862-16.581c-1.459,1.355-3.127,2.308-4.848,2.86l5.205,5.605h0.625v-9.546v-0.002
		C239.526-17.299,239.228-16.921,238.862-16.581z"/>
	<path fill="none" d="M228.122-20.067c1.426,1.534,4.475,1.116,6.658-0.914c2.186-2.027,2.828-5.038,1.402-6.569
		c-1.426-1.536-4.471-1.118-6.66,0.909C227.339-24.611,226.698-21.602,228.122-20.067z"/>
	<path fill="none" d="M137.751,276.68c-1.215,1.127-3.113,1.057-4.242-0.156l-30.872-33.25c-3.704-3.982-2.93-10.736,1.714-15.051
		c4.648-4.312,11.438-4.584,15.141-0.598c3.699,3.984,2.93,10.736-1.719,15.051c-1.458,1.357-3.128,2.309-4.848,2.861l24.978,26.904
		C139.036,273.656,138.966,275.555,137.751,276.68z M234.165,222.121c0,16.68-16.625,30.25-37.059,30.25
		c-4.898,0-9.684-0.789-14.234-2.338c-6.273,2.676-12.203,4.033-17.645,4.033c-1.213,0-2.307-0.73-2.773-1.854
		c-0.465-1.123-0.207-2.41,0.652-3.268c2.238-2.242,4.16-4.68,5.73-7.27c-5.691-5.459-8.793-12.32-8.793-19.555
		c0-16.68,16.625-30.248,37.062-30.248C217.54,191.873,234.165,205.441,234.165,222.121z M157.446,162.637
		c0-5.438,5.16-9.863,11.5-9.863s11.5,4.426,11.5,9.863s-5.16,9.863-11.5,9.863S157.446,168.074,157.446,162.637z M169.493,57.391
		c1.555-0.574,3.281,0.221,3.855,1.776l1.984,5.368l16.82-6.227c1.551-0.576,3.277,0.216,3.855,1.772
		c0.574,1.552-0.219,3.28-1.773,3.854l-19.637,7.271c0,0,0,0,0,0.002c-0.062,0.025-0.129,0.031-0.195,0.05
		c-0.52,0.154-1.055,0.174-1.555,0.05c-0.188-0.046-0.371-0.109-0.543-0.189c-0.176-0.082-0.34-0.179-0.5-0.29
		c-0.045-0.036-0.086-0.082-0.131-0.118c-0.107-0.086-0.209-0.168-0.299-0.266c-0.037-0.036-0.059-0.08-0.09-0.118
		c-0.1-0.112-0.193-0.223-0.271-0.351c-0.041-0.065-0.064-0.142-0.105-0.21c-0.055-0.112-0.119-0.216-0.164-0.334v-0.002
		l-3.025-8.186C167.146,59.69,167.938,57.967,169.493,57.391z M50.709,11.415c-1.172-1.172-1.172-3.07,0-4.242s3.073-1.172,4.242,0
		l6.808,6.808l6.808-6.808c1.172-1.172,3.074-1.172,4.246,0c1.168,1.172,1.168,3.07-0.004,4.242l-6.808,6.808l6.808,6.809
		c1.172,1.172,1.172,3.069,0.004,4.241c-0.586,0.587-1.355,0.878-2.124,0.878c-0.766,0-1.536-0.291-2.122-0.878l-6.808-6.808
		l-6.808,6.808c-0.587,0.587-1.353,0.878-2.122,0.878c-0.767,0-1.536-0.291-2.122-0.878c-1.172-1.172-1.172-3.069,0-4.241
		l6.808-6.809L50.709,11.415z M24.513,152.559l56.706-90.348c2.344-3.736,7.292-4.87,11.028-2.524l64.687,40.601
		c3.738,2.344,4.867,7.292,2.523,11.029l-56.707,90.348c-2.344,3.736-7.29,4.871-11.028,2.523l-8.468-5.314l-6.685,10.643
		l-3.542-8.461l-9.162,0.488l6.681-10.645l-43.51-27.309C23.301,161.242,22.169,156.295,24.513,152.559z M-2.557,32.471
		c6.343,0,11.5,4.422,11.5,9.86c0,5.441-5.157,9.864-11.5,9.864c-6.342,0-11.5-4.423-11.5-9.864
		C-14.057,36.893-8.899,32.471-2.557,32.471z M-49.057,118.661c1.99,0,3.866,0.436,5.5,1.204V93.083c0-0.002,0-0.004,0-0.006v-9.929
		c0-0.008,0-0.016,0-0.023c0.002-0.07,0.006-0.143,0.013-0.214c0.002-0.03,0.002-0.059,0.006-0.089
		c0.008-0.062,0.018-0.123,0.03-0.189c0.006-0.036,0.012-0.072,0.02-0.11c0.01-0.05,0.024-0.1,0.038-0.147
		c0.014-0.046,0.023-0.094,0.04-0.141c0.012-0.037,0.028-0.073,0.042-0.111c0.02-0.055,0.04-0.11,0.06-0.162
		c0.017-0.034,0.032-0.062,0.046-0.094c0.026-0.057,0.051-0.112,0.08-0.166c0.021-0.036,0.042-0.068,0.062-0.103
		c0.03-0.046,0.056-0.096,0.088-0.14c0.03-0.044,0.063-0.088,0.098-0.13c0.024-0.032,0.046-0.064,0.072-0.097
		c0.042-0.052,0.092-0.102,0.138-0.151c0.019-0.021,0.036-0.04,0.053-0.057c0.052-0.052,0.107-0.1,0.161-0.147
		c0.019-0.014,0.036-0.032,0.053-0.044c0.05-0.042,0.107-0.082,0.162-0.124c0.023-0.016,0.046-0.036,0.071-0.052
		c0.046-0.032,0.097-0.059,0.145-0.089c0.038-0.021,0.074-0.044,0.111-0.063c0.04-0.022,0.08-0.04,0.122-0.058
		c0.051-0.024,0.103-0.049,0.154-0.07c0.034-0.014,0.068-0.026,0.104-0.038c0.058-0.024,0.119-0.044,0.182-0.062
		c0.01-0.005,0.018-0.009,0.028-0.011l35-10c0.027-0.008,0.054-0.012,0.082-0.02c0.06-0.017,0.122-0.03,0.184-0.042
		c0.044-0.01,0.088-0.015,0.132-0.022c0.052-0.008,0.106-0.016,0.158-0.02c0.056-0.006,0.112-0.006,0.166-0.009
		c0.036-0.002,0.066-0.006,0.102-0.006c0.011,0,0.022,0.002,0.032,0.002c0.059,0,0.116,0.004,0.172,0.009
		c0.042,0.004,0.088,0.006,0.132,0.01c0.047,0.006,0.093,0.014,0.139,0.021c0.052,0.011,0.107,0.019,0.16,0.028
		c0.031,0.008,0.062,0.018,0.094,0.026c0.063,0.016,0.128,0.032,0.193,0.052c0.019,0.006,0.038,0.014,0.055,0.02
		c0.074,0.026,0.146,0.053,0.216,0.084c0.014,0.007,0.028,0.013,0.04,0.019c0.074,0.034,0.148,0.067,0.218,0.108
		c0.021,0.012,0.04,0.025,0.059,0.035c0.06,0.038,0.124,0.074,0.182,0.114c0.038,0.026,0.07,0.052,0.104,0.078
		c0.042,0.032,0.084,0.06,0.124,0.092c0.049,0.042,0.095,0.086,0.141,0.13c0.023,0.021,0.046,0.04,0.067,0.061
		c0.051,0.052,0.099,0.107,0.146,0.162c0.014,0.018,0.032,0.033,0.044,0.05c0.044,0.052,0.084,0.11,0.124,0.166
		c0.016,0.023,0.034,0.044,0.048,0.067c0.034,0.049,0.062,0.101,0.092,0.15c0.022,0.036,0.042,0.07,0.062,0.105
		c0.021,0.043,0.04,0.085,0.06,0.125c0.024,0.05,0.046,0.1,0.068,0.149c0.014,0.034,0.026,0.07,0.038,0.106
		c0.023,0.058,0.044,0.119,0.062,0.182c0.002,0.008,0.006,0.018,0.011,0.026c0.008,0.029,0.012,0.058,0.02,0.088
		c0.014,0.056,0.03,0.116,0.042,0.174c0.01,0.052,0.016,0.104,0.024,0.154c0.006,0.044,0.012,0.09,0.018,0.134
		c0.006,0.066,0.008,0.132,0.01,0.2c0,0.025,0.004,0.048,0.004,0.073v0.066c0,0.002,0,0.004,0,0.006v9.994c0,0.002,0,0.004,0,0.006
		v35.3c0,5.438-5.16,9.864-11.5,9.864c-6.342,0-11.5-4.426-11.5-9.864c0-5.438,5.158-9.861,11.5-9.861c1.99,0,3.866,0.436,5.5,1.204
		V87.129l-29,8.286v33.109c0,5.438-5.16,9.864-11.5,9.864c-6.342,0-11.5-4.426-11.5-9.864
		C-60.557,123.087-55.399,118.661-49.057,118.661z M-20.504,188.676c1.172,1.172,1.172,3.074,0,4.246
		c-0.586,0.586-1.354,0.877-2.122,0.877c-0.769,0-1.536-0.291-2.122-0.877l-6.809-6.809l-6.808,6.809
		c-0.586,0.586-1.354,0.877-2.122,0.877c-0.77,0-1.538-0.291-2.124-0.877c-1.17-1.172-1.17-3.074,0.002-4.246l6.806-6.805
		l-6.806-6.809c-1.172-1.172-1.172-3.07-0.002-4.242c1.172-1.172,3.072-1.172,4.244-0.002l6.808,6.809l6.809-6.809
		c1.172-1.17,3.069-1.17,4.242,0.002c1.172,1.172,1.172,3.07,0,4.242l-6.809,6.809L-20.504,188.676z M-90.095,63.595
		c-1.172-1.172-1.172-3.07-0.002-4.242c1.173-1.172,3.072-1.172,4.244,0l6.809,6.809l6.808-6.809c1.172-1.172,3.07-1.172,4.242,0
		s1.172,3.07,0,4.242l-6.809,6.808l6.809,6.809c1.172,1.172,1.172,3.07,0,4.242c-0.586,0.586-1.354,0.878-2.122,0.878
		c-0.769,0-1.536-0.292-2.122-0.878l-6.808-6.809l-6.809,6.809c-0.586,0.586-1.354,0.878-2.122,0.878
		c-0.77,0-1.538-0.292-2.124-0.878c-1.17-1.172-1.17-3.07,0.002-4.242l6.807-6.809L-90.095,63.595z M-86.405,182.957
		c0,5.439-5.158,9.861-11.5,9.861s-11.5-4.422-11.5-9.861c0-5.438,5.16-9.863,11.5-9.863S-86.405,177.52-86.405,182.957z
		 M-92.157,335.582l-21.446,16.311l-0.592,26.939c-0.024,1.105-0.652,2.105-1.638,2.605c-0.984,0.504-2.164,0.424-3.072-0.207
		l-22.14-15.355l-25.805,7.764c-1.056,0.318-2.204,0.029-2.983-0.752c-0.782-0.781-1.07-1.928-0.752-2.986l7.764-25.803
		l-15.356-22.139c-0.63-0.906-0.708-2.088-0.208-3.07c0.503-0.984,1.503-1.615,2.608-1.639l26.938-0.59l16.159-21.246
		c0.116-0.184,0.252-0.354,0.412-0.514c1.17-1.17,3.07-1.17,4.242,0c0,0,0.004,0.006,0.006,0.01c0.314,0.312,0.559,0.695,0.71,1.131
		l8.889,25.438l25.439,8.887c1.042,0.363,1.798,1.273,1.973,2.363C-90.838,333.814-91.279,334.914-92.157,335.582z M-143.885,86.967
		c10.646,0,20.975,5.524,29.866,15.972c6.544,7.694,10.019,15.307,10.164,15.626c0.354,0.786,0.354,1.687,0,2.469
		c-0.146,0.319-3.618,7.936-10.164,15.627c-8.89,10.451-19.218,15.973-29.866,15.973c-10.647,0-20.976-5.523-29.865-15.973
		c-6.544-7.695-10.019-15.308-10.162-15.627c-0.354-0.784-0.354-1.685,0-2.469c0.144-0.319,3.618-7.934,10.162-15.626
		C-164.863,92.491-154.535,86.967-143.885,86.967z M-53.885,306.896c0-3.459,11.305-0.807,29.236-1.072
		c17.935,0.266,29.238-2.383,29.238,1.072c0,6.25-24.822,9.902-29.238,10C-29.063,316.799-53.885,313.146-53.885,306.896z
		 M50.465,368.332L50.465,368.332l-2.124,2.123l-58.954,58.955c-0.006,0.008-0.014,0.012-0.02,0.02
		c-0.049,0.045-0.101,0.09-0.15,0.133c-0.026,0.023-0.046,0.043-0.072,0.062c-0.05,0.043-0.105,0.08-0.158,0.117
		c-0.027,0.02-0.054,0.043-0.084,0.059c-0.048,0.035-0.102,0.062-0.153,0.092c-0.034,0.021-0.066,0.041-0.103,0.059
		c-0.044,0.023-0.094,0.045-0.14,0.064c-0.042,0.021-0.086,0.041-0.128,0.057c-0.042,0.018-0.084,0.029-0.126,0.045
		c-0.05,0.018-0.104,0.037-0.154,0.051c-0.042,0.012-0.082,0.02-0.124,0.031c-0.054,0.012-0.112,0.027-0.168,0.037
		c-0.01,0.002-0.021,0.004-0.032,0.006l-29.876,5.127c-0.012,0.002-0.023,0.002-0.038,0.004c-0.094,0.014-0.189,0.023-0.285,0.031
		c-0.022,0-0.042,0.004-0.062,0.004c-0.112,0.006-0.222,0.006-0.336-0.004c-0.042-0.004-0.084-0.012-0.126-0.016
		c-0.054-0.008-0.112-0.01-0.166-0.021c-0.01,0-0.018-0.004-0.026-0.006c-0.144-0.025-0.285-0.061-0.422-0.107
		c-0.025-0.008-0.046-0.02-0.072-0.029c-0.105-0.037-0.207-0.082-0.308-0.131c-0.044-0.023-0.088-0.045-0.13-0.07
		c-0.08-0.045-0.156-0.094-0.232-0.145c-0.04-0.027-0.08-0.053-0.117-0.082c-0.103-0.078-0.202-0.162-0.292-0.25
		c-0.005-0.006-0.011-0.008-0.015-0.012c0-0.002,0-0.002-0.002-0.002c0-0.002,0-0.002-0.002-0.002
		c-0.004-0.004-0.006-0.012-0.01-0.016c-0.092-0.09-0.174-0.189-0.252-0.291c-0.03-0.037-0.054-0.078-0.082-0.119
		c-0.05-0.072-0.1-0.15-0.145-0.23c-0.023-0.043-0.048-0.086-0.069-0.129c-0.05-0.104-0.095-0.205-0.132-0.309
		c-0.011-0.027-0.022-0.047-0.03-0.072c-0.044-0.137-0.08-0.279-0.106-0.42c-0.002-0.012-0.006-0.02-0.006-0.027
		c-0.01-0.055-0.014-0.113-0.021-0.168c-0.004-0.041-0.013-0.082-0.017-0.125c-0.008-0.113-0.008-0.225-0.004-0.334
		c0-0.025,0.004-0.041,0.006-0.064c0.006-0.098,0.017-0.191,0.03-0.285c0.004-0.012,0.004-0.027,0.004-0.039l5.126-29.875
		c0.002-0.012,0.004-0.023,0.006-0.031c0.013-0.059,0.026-0.115,0.04-0.17c0.01-0.041,0.019-0.08,0.03-0.123
		c0.014-0.051,0.034-0.102,0.05-0.154c0.017-0.041,0.03-0.086,0.044-0.127c0.019-0.041,0.038-0.086,0.057-0.127
		c0.021-0.045,0.042-0.096,0.065-0.141c0.019-0.035,0.04-0.068,0.059-0.102c0.029-0.053,0.058-0.105,0.092-0.154
		c0.018-0.029,0.04-0.055,0.058-0.082c0.038-0.055,0.076-0.109,0.116-0.16c0.021-0.025,0.042-0.047,0.064-0.07
		c0.041-0.051,0.088-0.104,0.134-0.152c0.006-0.004,0.012-0.012,0.018-0.02l58.956-58.953l2.122-2.121v-0.004
		c7.196-7.193,16.958-6.021,26.116,3.135C56.717,351.605,57.765,361.029,50.465,368.332z M51.305,256.215
		c-0.002,0.006-0.004,0.01-0.004,0.016c-0.842,8.184-3.86,16.727-9.286,22.213c-5.336,5.396-13.296,8.367-22.418,8.367
		c-6.521,0-13.132-1.568-18.614-4.418c-13.439-6.988-15.642-20.385-15.76-27.748c-0.06-3.785,0.452-7.957,1.458-11.477
		c-1.662-0.328-4.794-0.709-10.428-0.709c-5.63,0-8.765,0.377-10.426,0.709c1.008,3.523,1.52,7.693,1.458,11.477
		c-0.118,7.363-2.32,20.76-15.761,27.748c-5.479,2.85-12.092,4.418-18.613,4.418c-9.122,0-17.082-2.971-22.418-8.367
		c-5.427-5.486-8.444-14.033-9.286-22.213c-0.002-0.006-0.002-0.01-0.004-0.016c-2.288-9.256-10.454-8.424-10.454-8.424v-9.248
		c1.666-1.916,25.434-8.072,25.434-8.072l-0.004,0.004c6.042-1.68,11.78-2.506,17.388-2.506c9.612,0,18.656,2.453,27.65,7.498
		c0.234,0.131,0.462,0.291,0.686,0.471c2.604-0.877,6.94-1.479,14.347-1.479c7.408,0,11.744,0.602,14.348,1.479
		c0.222-0.18,0.452-0.34,0.686-0.471c8.994-5.045,18.041-7.498,27.648-7.498c5.612,0,11.35,0.826,17.39,2.506l-0.004-0.004
		c0,0,23.771,6.156,25.437,8.072l-0.002,9.248C61.759,247.791,53.591,246.959,51.305,256.215z M95.809,311.91
		c1.172,1.172,1.172,3.07,0.004,4.242c-0.586,0.586-1.355,0.879-2.124,0.879c-0.766,0-1.536-0.293-2.122-0.879l-6.808-6.809
		l-6.808,6.809c-0.587,0.586-1.353,0.879-2.122,0.879c-0.767,0-1.536-0.293-2.122-0.879c-1.172-1.172-1.172-3.07,0-4.242
		l6.808-6.809l-6.808-6.807c-1.172-1.172-1.172-3.07,0-4.242s3.073-1.172,4.241,0l6.809,6.809l6.808-6.809
		c1.172-1.172,3.074-1.172,4.246,0c1.168,1.172,1.168,3.07-0.004,4.242L89,305.102L95.809,311.91z"/>
	<polygon fill="none" points="239.22,-8.117 239.845,-7.443 239.845,-7.445 239.845,-8.117 	"/>
	<path fill="none" d="M239.845,142.287c-0.953,0.127-1.953,0.479-2.875,1.074c-2.508,1.613-3.672,4.459-2.541,6.221
		c0.943,1.467,3.229,1.783,5.416,0.926V142.287L239.845,142.287z"/>
	<polygon fill="none" points="230.831,112.539 239.845,126.564 239.845,126.564 239.845,102.293 239.845,102.293 	"/>
	<path fill="none" d="M243.685,143.639c-0.715-1.115-2.207-1.568-3.84-1.352v8.221l0,0c0.441-0.172,0.879-0.377,1.301-0.646
		C243.653,148.25,244.817,145.4,243.685,143.639z"/>
	<polygon fill="none" points="247.38,84.643 245.345,81.479 239.845,87.732 239.845,87.734 239.845,93.207 	"/>
	<polygon fill="none" points="239.845,87.734 225.427,104.127 227.462,107.289 239.845,93.209 239.845,93.207 	"/>
	<path fill="none" d="M247.356,335.061c0.121-0.516,0.027-1.049-0.258-1.508s-0.723-0.773-1.238-0.889l-6.016-1.391v36.264
		L247.356,335.061z"/>
	<path fill="none" d="M158.712,395l17.523,4.051c0.006,0,0.012,0,0.018,0.002s0.012,0.004,0.018,0.006l51.479,11.906
		c1.068,0.25,2.16-0.457,2.396-1.498l9.701-41.932V331.27l-114.519-26.486c-0.148-0.037-0.297-0.051-0.446-0.051
		c-0.926,0-1.746,0.65-1.954,1.549l-17.21,74.406c-0.118,0.518-0.028,1.049,0.258,1.506s0.727,0.773,1.242,0.893L158.712,395
		L158.712,395L158.712,395z"/>
	
		<rect x="157.896" y="402.603" transform="matrix(0.9743 0.2253 -0.2253 0.9743 97.154 -26.3152)" fill="none" width="12" height="19.974"/>
	<path fill="none" d="M149.187,17.967c13.566-8.378,22.947-17.45,27.34-26.084h-54.687C126.234,0.517,135.616,9.591,149.187,17.967z
		"/>
	<path fill="none" d="M258.47,122.253c1.131,1.76,4.205,1.886,6.713,0.276c1.881-1.209,3.004-3.114,2.971-4.734
		c-0.012-0.54-0.148-1.048-0.434-1.49c-1.131-1.762-4.207-1.888-6.713-0.275C258.501,117.641,257.337,120.491,258.47,122.253z"/>
	<path fill="none" d="M-60.557,17.561c-2.979,0-5.5,1.771-5.5,3.864s2.519,3.864,5.5,3.864c2.984,0,5.5-1.771,5.5-3.864
		S-57.573,17.561-60.557,17.561z"/>
	<path fill="none" d="M178.749-23.385c-1.836-6.61-7.895-11.227-14.734-11.227c-0.59,0-1.18,0.036-1.762,0.106
		c-5,0.605-8.484,2.941-10.357,6.95c-0.492,1.054-1.549,1.729-2.717,1.729c-1.164,0-2.225-0.676-2.717-1.729
		c-1.869-4.009-5.354-6.345-10.354-6.95c-0.531-0.062-1.02-0.099-1.49-0.106l-0.268-0.004c-6.844,0-12.902,4.618-14.738,11.227
		c-1.313,4.741-0.496,9.922,2.227,15.271h54.687C179.247-13.465,180.063-18.646,178.749-23.385z"/>
	<path fill="none" d="M115.095,231.709c-1.426-1.537-4.472-1.119-6.66,0.91c-2.184,2.029-2.824,5.041-1.402,6.574
		c1.427,1.533,4.477,1.115,6.66-0.914C115.877,236.254,116.521,233.242,115.095,231.709z"/>
	
		<rect x="8.732" y="361.565" transform="matrix(0.7071 0.7071 -0.7071 0.7071 283.6893 108.6173)" fill="none" width="4" height="70.374"/>
	
		<rect x="-33.287" y="383.413" transform="matrix(0.7071 -0.7071 0.7071 0.7071 -273.7343 114.9548)" fill="none" width="70.372" height="9"/>
	<polygon fill="none" points="-37.21,418.701 -28.897,427.016 -18.953,425.309 -35.502,408.758 	"/>
	
		<rect x="-8.94" y="343.88" transform="matrix(-0.7071 -0.7071 0.7071 -0.7071 -279.8877 642.1996)" fill="none" width="4" height="70.374"/>
	<path fill="none" d="M174.544,238.732c1.09,0.902,1.402,2.443,0.75,3.697c-0.855,1.645-1.828,3.242-2.91,4.781
		c2.91-0.664,5.969-1.711,9.145-3.137c0.391-0.176,0.812-0.264,1.23-0.264c0.355,0,0.711,0.062,1.047,0.189
		c4.225,1.574,8.699,2.375,13.299,2.375c17.123,0,31.059-10.879,31.059-24.25s-13.936-24.248-31.059-24.248
		c-17.127,0-31.061,10.877-31.061,24.248C166.044,228.299,169.063,234.197,174.544,238.732z"/>
	<polygon fill="none" points="49.445,243.184 52.41,245.729 59.578,241.389 51.353,239.773 	"/>
	<path fill="none" d="M40.973,238.273c-7.894-2.896-15.102-4.305-22.036-4.305c-8.529,0-16.59,2.191-24.638,6.691
		c-1.294,1.188-3.853,8.551-2.86,17.258c0.704,6.184,3.41,14.525,12.312,19.15c4.642,2.414,10.27,3.742,15.846,3.742
		c7.506,0,13.952-2.338,18.15-6.586c6.68-6.754,9.08-20.635,7.132-29.365C44.085,241.295,42.662,238.895,40.973,238.273z"/>
	
		<rect x="17.931" y="355.376" transform="matrix(0.7071 0.7071 -0.7071 0.7071 262.2018 81.7407)" fill="none" width="29" height="4"/>
	<path fill="none" d="M28.113,341.738l19.969,19.969c2.492-4.314,0.908-9.344-4.738-14.99
		C39.229,342.602,33.481,338.75,28.113,341.738z"/>
	<polygon fill="none" points="-107.063,241.389 -99.895,245.729 -96.931,243.184 -98.838,239.773 	"/>
	<path fill="none" d="M-66.424,233.969c-6.933,0-14.141,1.408-22.036,4.305c-1.687,0.621-3.112,3.021-3.906,6.586
		c-1.948,8.727,0.454,22.611,7.13,29.365c4.2,4.248,10.646,6.586,18.152,6.586c5.576,0,11.204-1.328,15.846-3.742
		c8.9-4.625,11.61-12.967,12.312-19.15c0.99-8.707-1.563-16.07-2.859-17.258C-49.834,236.16-57.897,233.969-66.424,233.969z"/>
	<polygon fill="none" points="-8.557,77.127 -37.557,85.413 -37.557,89.173 -8.557,80.885 	"/>
	<path fill="none" d="M-2.557,46.193c2.98,0,5.5-1.771,5.5-3.864c0-2.095-2.52-3.86-5.5-3.86c-2.981,0-5.5,1.766-5.5,3.86
		C-8.057,44.423-5.539,46.193-2.557,46.193z"/>
	<path fill="none" d="M-14.057,114.661c-2.981,0-5.5,1.768-5.5,3.861c0,2.095,2.519,3.864,5.5,3.864c2.98,0,5.5-1.77,5.5-3.864
		C-8.557,116.429-11.075,114.661-14.057,114.661z"/>
	<path fill="none" d="M-49.057,132.385c2.98,0,5.5-1.77,5.5-3.864c0-2.094-2.52-3.861-5.5-3.861c-2.981,0-5.5,1.768-5.5,3.861
		C-54.557,130.615-52.039,132.385-49.057,132.385z"/>
	<path fill="none" d="M124.881-195.268c-0.926,0-1.746,0.65-1.954,1.549l-17.21,74.405c-0.118,0.519-0.028,1.05,0.258,1.506
		c0.286,0.458,0.727,0.774,1.242,0.895l51.495,11.91l0,0l0,0l17.523,4.052c0.006,0,0.012,0,0.018,0.002s0.012,0.004,0.018,0.006
		l51.479,11.906c1.068,0.25,2.16-0.456,2.396-1.498l9.701-41.932v-36.265l-114.521-26.485
		C125.177-195.251,125.029-195.268,124.881-195.268z"/>
	<path fill="none" d="M168.946,166.5c2.98,0,5.5-1.77,5.5-3.863s-2.52-3.863-5.5-3.863s-5.5,1.77-5.5,3.863
		S165.966,166.5,168.946,166.5z"/>
	<path fill="none" d="M30.227,158.508l5.928,3.719l58.832-93.735l-5.926-3.721c-0.918-0.575-2.184-0.288-2.758,0.63l-56.706,90.35
		C29.019,156.668,29.309,157.926,30.227,158.508z"/>
	<path fill="none" d="M94.912,199.105c0.922,0.574,2.184,0.287,2.758-0.631l56.707-90.348c0.574-0.918,0.291-2.182-0.631-2.758
		l-53.671-33.69l-58.835,93.735L94.912,199.105z"/>
	<path fill="none" d="M-143.885,127.457c4.221,0,7.654-3.435,7.654-7.656c0-4.22-3.434-7.654-7.654-7.654
		c-4.222,0-7.655,3.435-7.655,7.654C-151.541,124.022-148.107,127.457-143.885,127.457z"/>
	
		<rect x="157.865" y="-97.383" transform="matrix(0.9743 0.2253 -0.2253 0.9743 -15.4791 -39.1733)" fill="none" width="12" height="19.977"/>
	<path fill="none" d="M-97.905,186.818c2.98,0,5.5-1.768,5.5-3.861s-2.52-3.863-5.5-3.863c-2.982,0-5.5,1.77-5.5,3.863
		S-100.887,186.818-97.905,186.818z"/>
	<path fill="none" d="M247.356-164.939c0.121-0.516,0.027-1.05-0.258-1.508s-0.723-0.773-1.238-0.89l-6.016-1.393v36.265
		L247.356-164.939z"/>
	<path fill="none" d="M-143.885,146.637c18.938,0,31.158-21.408,33.95-26.836c-2.79-5.424-15.01-26.834-33.95-26.834
		c-18.941,0-31.159,21.408-33.949,26.834C-175.044,125.225-162.827,146.637-143.885,146.637z M-143.885,106.146
		c7.53,0,13.654,6.124,13.654,13.654c0,7.532-6.124,13.656-13.654,13.656c-7.529,0-13.655-6.124-13.655-13.656
		C-157.541,112.271-151.415,106.146-143.885,106.146z"/>
	<path fill="none" d="M-122.901,325.951c-0.313-0.314-0.558-0.701-0.71-1.133l-7.524-21.533l-13.808,18.152
		c-0.552,0.727-1.408,1.164-2.322,1.184l-22.804,0.502l13,18.742c0.522,0.75,0.67,1.699,0.408,2.572l-6.574,21.844l21.844-6.57
		c0.874-0.264,1.822-0.113,2.572,0.408l18.744,13l0.5-22.805c0.02-0.914,0.456-1.77,1.184-2.322l18.156-13.805l-21.536-7.523
		C-122.199,326.512-122.584,326.266-122.901,325.951z"/>
	<path fill="none" d="M-68.75-37.793c-0.192,0.186-4.756,4.582-11.555,6.808c-6.468,2.12-16.172,2.652-25.662-6.836
		c-3.718-3.716-9.342-4.806-16.714-3.238c-3.83,0.812-7.13,2.154-8.978,2.994v0.624c0,9.926-8.074,18-18,18h-24.182
		c-9.925,0-18-8.074-18-18v-4.998c0-9.926,8.073-18.002,18-18.002h24.182c9.22,0,16.836,6.969,17.876,15.914
		c2.102-0.832,4.83-1.758,7.855-2.4c9.353-1.989,17.03-0.308,22.202,4.864c13.952,13.952,28.194,0.544,28.792-0.036
		c1.19-1.146,3.088-1.117,4.238,0.072C-67.542-40.839-67.567-38.945-68.75-37.793z M-79.922-85.163c1.172,1.172,1.172,3.07,0,4.242
		c-0.586,0.586-1.354,0.878-2.122,0.878c-0.769,0-1.536-0.292-2.122-0.878l-6.809-6.809l-6.808,6.809
		c-0.586,0.586-1.354,0.878-2.122,0.878c-0.77,0-1.538-0.292-2.124-0.878c-1.17-1.172-1.17-3.07,0-4.242l6.808-6.808l-6.806-6.811
		c-1.172-1.172-1.172-3.07,0-4.242s3.072-1.172,4.244,0l6.808,6.809l6.809-6.809c1.172-1.172,3.069-1.172,4.242,0
		c1.172,1.172,1.172,3.07,0,4.242l-6.809,6.809L-79.922-85.163z M4.591-13.854c-6.342,0-11.5-4.424-11.5-9.863
		c0-5.438,5.158-9.862,11.5-9.862s11.5,4.424,11.5,9.862C16.091-18.277,10.931-13.854,4.591-13.854z M50.465-131.667L50.465-131.667
		l-2.124,2.122l-58.952,58.954c-0.006,0.006-0.014,0.012-0.02,0.018c-0.049,0.046-0.101,0.092-0.15,0.134
		c-0.026,0.022-0.046,0.042-0.072,0.062c-0.05,0.042-0.105,0.08-0.158,0.118c-0.027,0.02-0.054,0.042-0.084,0.058
		c-0.048,0.034-0.102,0.062-0.153,0.092c-0.034,0.021-0.066,0.042-0.103,0.059c-0.044,0.023-0.094,0.044-0.14,0.063
		c-0.042,0.022-0.086,0.042-0.128,0.058c-0.042,0.017-0.084,0.03-0.126,0.045c-0.05,0.018-0.104,0.037-0.154,0.05
		c-0.042,0.012-0.082,0.02-0.124,0.032c-0.054,0.012-0.112,0.027-0.168,0.037c-0.01,0.002-0.021,0.004-0.032,0.007l-29.876,5.126
		c-0.012,0.002-0.023,0.002-0.038,0.004c-0.094,0.014-0.189,0.023-0.285,0.031c-0.022,0-0.042,0.005-0.062,0.005
		c-0.112,0.006-0.222,0.004-0.336-0.005c-0.042-0.004-0.084-0.012-0.126-0.016c-0.054-0.008-0.112-0.01-0.166-0.021
		c-0.01,0-0.018-0.004-0.026-0.007c-0.144-0.025-0.285-0.06-0.422-0.105c-0.025-0.01-0.046-0.021-0.071-0.03
		c-0.106-0.038-0.208-0.082-0.309-0.13c-0.044-0.024-0.088-0.046-0.13-0.072c-0.08-0.044-0.156-0.094-0.232-0.144
		c-0.039-0.028-0.079-0.052-0.117-0.082c-0.103-0.078-0.202-0.162-0.292-0.25c-0.004-0.006-0.011-0.008-0.015-0.012
		c0-0.002,0-0.002-0.002-0.002c0-0.002,0-0.002-0.002-0.002c-0.004-0.005-0.006-0.011-0.01-0.015
		c-0.092-0.092-0.174-0.189-0.252-0.292c-0.03-0.038-0.054-0.078-0.082-0.118c-0.05-0.073-0.1-0.151-0.145-0.231
		c-0.023-0.042-0.048-0.086-0.069-0.13c-0.05-0.103-0.094-0.204-0.132-0.309c-0.011-0.025-0.022-0.046-0.03-0.071
		c-0.044-0.137-0.08-0.278-0.106-0.42c-0.002-0.011-0.006-0.019-0.006-0.028c-0.01-0.054-0.014-0.112-0.021-0.166
		c-0.004-0.042-0.013-0.084-0.017-0.126c-0.008-0.114-0.008-0.225-0.004-0.334c0-0.024,0.004-0.042,0.006-0.064
		c0.007-0.098,0.017-0.191,0.03-0.286c0.004-0.012,0.004-0.025,0.004-0.038l5.126-29.876c0.002-0.01,0.004-0.021,0.006-0.031
		c0.013-0.057,0.026-0.114,0.04-0.168c0.011-0.042,0.019-0.082,0.03-0.124c0.014-0.051,0.034-0.103,0.05-0.154
		c0.017-0.042,0.03-0.086,0.044-0.126c0.019-0.042,0.038-0.086,0.057-0.128c0.021-0.046,0.042-0.096,0.065-0.141
		c0.019-0.035,0.04-0.067,0.059-0.102c0.029-0.052,0.058-0.105,0.092-0.154c0.018-0.029,0.04-0.054,0.058-0.082
		c0.038-0.054,0.076-0.109,0.116-0.16c0.021-0.025,0.042-0.048,0.064-0.071c0.042-0.05,0.088-0.103,0.134-0.15
		c0.006-0.006,0.012-0.014,0.018-0.02l58.958-58.95l2.122-2.122v-0.002c7.196-7.194,16.958-6.022,26.116,3.134
		C56.717-148.396,57.765-138.971,50.465-131.667z M84.759-60.787c0,5.438-5.156,9.864-11.5,9.864c-6.34,0-11.5-4.427-11.5-9.864
		c0-5.438,5.158-9.864,11.5-9.864c1.992,0,3.868,0.438,5.5,1.204v-36.712c0-1.656,1.344-3,3-3s3,1.344,3,3V-60.787z"/>
	<path fill="none" d="M73.259-64.651c-2.98,0-5.5,1.771-5.5,3.864s2.518,3.864,5.5,3.864c2.984,0,5.5-1.771,5.5-3.864
		S76.244-64.651,73.259-64.651z"/>
	<path fill="none" d="M28.113-158.262l19.969,19.969c2.492-4.314,0.908-9.344-4.738-14.99
		C39.229-157.397,33.481-161.249,28.113-158.262z"/>
	<path fill="none" d="M4.591-27.577c-2.982,0-5.5,1.768-5.5,3.862c0,2.094,2.518,3.863,5.5,3.863c2.979,0,5.5-1.77,5.5-3.863
		C10.091-25.81,7.571-27.577,4.591-27.577z"/>
	
		<rect x="-8.943" y="-156.118" transform="matrix(-0.7072 -0.707 0.707 -0.7072 73.6422 -211.3652)" fill="none" width="4" height="70.374"/>
	<polygon fill="none" points="-37.21,-81.299 -28.897,-72.985 -18.953,-74.691 -35.502,-91.241 	"/>
	
		<rect x="8.735" y="-138.437" transform="matrix(0.7071 0.7071 -0.7071 0.7071 -69.8652 -37.8326)" fill="none" width="4.001" height="70.373"/>
	
		<rect x="17.935" y="-144.628" transform="matrix(0.7071 0.7071 -0.7071 0.7071 -91.3532 -64.7098)" fill="none" width="29" height="4"/>
	
		<rect x="-33.291" y="-116.592" transform="matrix(0.7071 -0.7071 0.7071 0.7071 79.8166 -31.4909)" fill="none" width="70.373" height="9"/>
	<path fill="#2D7E79" d="M239.845-17.663c3.719-4.3,4.146-10.298,0.738-13.97c-0.225-0.242-0.492-0.418-0.738-0.629l0,0v14.595
		V-17.663z"/>
	<path fill="#2D7E79" d="M421.067-42.098c-0.598,0.58-14.84,13.986-28.793,0.036c-5.172-5.172-12.852-6.855-22.207-4.866
		c-3.023,0.643-5.75,1.568-7.855,2.4c-1.037-8.945-8.652-15.914-17.875-15.914h-24.184c-9.926,0-18,8.076-18,18.002v4.998
		c0,9.926,8.074,18,18,18h24.184c9.926,0,18-8.074,18-18v-0.624c1.848-0.84,5.148-2.182,8.977-2.994
		c7.375-1.567,12.996-0.478,16.715,3.238c9.488,9.488,19.191,8.956,25.66,6.836c6.801-2.226,11.363-6.624,11.555-6.808
		c1.188-1.152,1.211-3.046,0.059-4.232C424.157-43.215,422.259-43.243,421.067-42.098z M356.339-39.945c0,0.002,0,0.004,0,0.006
		c-0.002,0.004,0,0.006,0,0.01v2.488c0,6.618-5.381,12-12,12h-24.182c-6.617,0-12-5.382-12-12v-4.998
		c0-6.617,5.383-12.002,12-12.002h24.182c6.619,0,12,5.382,12,12V-39.945z"/>
	<path fill="#2D7E79" d="M344.341-42.939c-0.789,0-1.564,0.32-2.125,0.876c-0.553,0.561-0.875,1.336-0.875,2.124
		c0,0.792,0.32,1.561,0.875,2.12c0.561,0.561,1.336,0.88,2.125,0.88s1.559-0.319,2.121-0.88c0.559-0.558,0.879-1.33,0.879-2.12
		c0-0.792-0.32-1.563-0.879-2.124C345.899-42.619,345.134-42.939,344.341-42.939z"/>
	<path fill="#2D7E79" d="M301.536-121.237h-8.645v-8.646c0-1.656-1.344-3-3-3c-1.66,0-3,1.344-3,3v8.646h-8.648
		c-1.656,0-3,1.344-3,3c0,1.658,1.344,3,3,3h8.648v8.648c0,1.655,1.34,3,3,3c1.656,0,3-1.345,3-3v-8.648h8.645c1.656,0,3-1.342,3-3
		C304.536-119.894,303.192-121.237,301.536-121.237z"/>
	<path fill="#2D7E79" d="M252.188-169.623c-1.133-1.816-2.902-3.082-4.977-3.562l-7.367-1.703v6.159l6.016,1.393
		c0.516,0.118,0.953,0.434,1.238,0.89s0.379,0.992,0.258,1.508l-7.512,32.475v26.63l13.355-57.75
		C253.685-165.661,253.325-167.807,252.188-169.623z"/>
	<path fill="#2D7E79" d="M305.86,270.422l-9.443,20.684c-1.168-1.377-2.693-2.551-4.502-3.379
		c-5.77-2.633-12.301-0.752-14.559,4.195s0.598,11.115,6.367,13.75c5.768,2.631,12.297,0.75,14.555-4.197l14.662-32.111
		c0.002-0.002,0.002-0.004,0.002-0.008l4.152-9.09c0-0.004,0-0.004,0.002-0.008l0.029-0.059c0.008-0.023,0.016-0.045,0.027-0.068
		c0.025-0.061,0.051-0.123,0.074-0.186c0.014-0.043,0.025-0.086,0.041-0.129c0.014-0.051,0.029-0.1,0.041-0.148
		c0.014-0.059,0.025-0.119,0.037-0.176c0.004-0.031,0.012-0.059,0.016-0.09c0.002-0.008,0.004-0.02,0.004-0.027
		c0.01-0.062,0.018-0.125,0.021-0.191c0.004-0.039,0.008-0.074,0.008-0.113c0.004-0.055,0-0.109,0-0.164
		c0-0.045,0-0.094-0.004-0.137c0-0.043-0.008-0.082-0.012-0.123c-0.008-0.057-0.014-0.117-0.021-0.176
		c-0.004-0.029-0.012-0.053-0.018-0.082c-0.014-0.07-0.027-0.135-0.043-0.205c-0.004-0.023-0.014-0.043-0.021-0.064
		c-0.02-0.07-0.041-0.141-0.064-0.209c-0.012-0.029-0.025-0.055-0.037-0.082c-0.025-0.062-0.045-0.121-0.074-0.18
		c-0.023-0.043-0.049-0.09-0.074-0.133c-0.02-0.039-0.041-0.078-0.061-0.115c-0.037-0.061-0.078-0.123-0.119-0.178
		c-0.014-0.02-0.025-0.039-0.041-0.059c-0.045-0.062-0.098-0.123-0.152-0.188c-0.012-0.01-0.02-0.021-0.027-0.035
		c-0.051-0.055-0.109-0.109-0.164-0.164c-0.016-0.012-0.027-0.027-0.041-0.043c-0.049-0.043-0.104-0.086-0.152-0.125
		c-0.029-0.023-0.049-0.043-0.076-0.062c-0.043-0.031-0.088-0.061-0.133-0.09c-0.041-0.027-0.078-0.055-0.119-0.078
		s-0.078-0.043-0.119-0.064c-0.047-0.027-0.098-0.053-0.15-0.078c-0.008-0.006-0.018-0.01-0.029-0.016
		c-0.031-0.014-0.061-0.023-0.094-0.037c-0.049-0.02-0.102-0.043-0.152-0.061s-0.102-0.033-0.152-0.049
		c-0.045-0.012-0.086-0.025-0.131-0.035c-0.061-0.016-0.123-0.027-0.184-0.039c-0.029-0.004-0.053-0.014-0.082-0.018l-35.992-5.441
		c-0.01-0.002-0.02-0.002-0.027-0.002c-0.066-0.012-0.129-0.016-0.193-0.02c-0.039-0.004-0.074-0.008-0.111-0.008
		c-0.057-0.004-0.115-0.004-0.17,0c-0.043,0-0.09,0-0.133,0c-0.041,0.004-0.086,0.008-0.127,0.016
		c-0.057,0.006-0.115,0.01-0.168,0.02c-0.029,0.004-0.059,0.014-0.088,0.018c-0.066,0.014-0.135,0.025-0.199,0.041
		c-0.023,0.01-0.043,0.018-0.066,0.023c-0.068,0.02-0.139,0.043-0.209,0.066c-0.023,0.01-0.045,0.02-0.068,0.029
		c-0.066,0.029-0.129,0.049-0.191,0.082c-0.039,0.016-0.072,0.037-0.107,0.053c-0.047,0.029-0.1,0.055-0.143,0.082
		c-0.047,0.029-0.092,0.059-0.137,0.092c-0.033,0.021-0.066,0.041-0.1,0.064c-0.049,0.039-0.096,0.078-0.143,0.119
		c-0.025,0.021-0.051,0.041-0.078,0.066c-0.043,0.039-0.082,0.08-0.125,0.121c-0.027,0.029-0.055,0.057-0.082,0.086
		c-0.035,0.037-0.062,0.074-0.094,0.111c-0.031,0.041-0.066,0.078-0.096,0.121c-0.021,0.031-0.041,0.062-0.064,0.092
		c-0.035,0.053-0.07,0.107-0.104,0.16c-0.018,0.025-0.029,0.053-0.041,0.076c-0.037,0.062-0.07,0.129-0.102,0.191
		c-0.004,0.008-0.008,0.016-0.01,0.023l-4.123,9.031c0,0.002-0.004,0.004-0.004,0.006l-11.123,24.361
		c-1.17-1.377-2.693-2.551-4.504-3.379c-5.771-2.633-12.299-0.75-14.559,4.195c-2.258,4.949,0.6,11.117,6.365,13.748
		c5.77,2.635,12.299,0.752,14.559-4.193l13.754-30.121L305.86,270.422z M292.821,298.98c-0.873,1.904-3.895,2.467-6.609,1.229
		c-2.713-1.238-4.268-3.893-3.398-5.795c0.871-1.906,3.895-2.469,6.609-1.23C292.134,294.422,293.69,297.078,292.821,298.98z
		 M280.192,256.816l29.822,4.508l-1.561,3.422l-29.824-4.51L280.192,256.816z M256.829,293.541
		c-0.871,1.904-3.895,2.467-6.609,1.229c-2.713-1.238-4.266-3.893-3.396-5.799c0.869-1.904,3.893-2.467,6.607-1.229
		C256.142,288.98,257.7,291.635,256.829,293.541z"/>
	<path fill="#2D7E79" d="M239.845,142.287L239.845,142.287c1.633-0.217,3.125,0.236,3.84,1.352c1.133,1.762-0.031,4.611-2.539,6.223
		c-0.422,0.271-0.859,0.475-1.301,0.646v6.213c0.834-0.164,1.668-0.389,2.488-0.732c0.699-0.291,1.387-0.652,2.055-1.082
		c4.668-3,6.742-8.359,5.219-12.715c-0.219-0.625-0.51-1.225-0.875-1.797l-8.887-13.83l0,0V142.287z"/>
	<path fill="#2D7E79" d="M245.345,81.479l2.035,3.164l-7.535,8.564l0,0v9.084l0,0l10.906-12.4l12.293,19.128
		c-1.793,0.236-3.604,0.882-5.279,1.958c-5.334,3.428-7.283,9.94-4.342,14.515c2.938,4.573,9.668,5.51,15.004,2.081
		c5.336-3.43,7.285-9.941,4.344-14.516l-19.082-29.698c0-0.002-0.002-0.004-0.004-0.006l-5.402-8.407
		c0-0.002-0.002-0.002-0.004-0.005l-0.035-0.056c-0.012-0.02-0.031-0.04-0.043-0.058c-0.037-0.057-0.074-0.112-0.117-0.164
		c-0.027-0.036-0.057-0.068-0.086-0.104c-0.035-0.04-0.066-0.08-0.105-0.118c-0.041-0.042-0.082-0.084-0.127-0.124
		c-0.021-0.021-0.041-0.042-0.064-0.062c-0.008-0.006-0.014-0.012-0.02-0.019c-0.051-0.041-0.102-0.079-0.152-0.119
		c-0.029-0.022-0.059-0.045-0.09-0.068c-0.043-0.032-0.09-0.058-0.137-0.088c-0.039-0.026-0.078-0.048-0.117-0.072
		c-0.039-0.02-0.074-0.038-0.109-0.054c-0.055-0.028-0.105-0.054-0.16-0.078c-0.023-0.012-0.051-0.021-0.078-0.032
		c-0.064-0.025-0.129-0.05-0.195-0.07c-0.02-0.008-0.043-0.014-0.066-0.02c-0.07-0.021-0.139-0.042-0.209-0.056
		c-0.029-0.009-0.061-0.011-0.09-0.017c-0.064-0.012-0.127-0.025-0.189-0.033c-0.051-0.007-0.102-0.009-0.152-0.013
		c-0.043-0.002-0.086-0.008-0.129-0.01c-0.07-0.002-0.143,0-0.213,0.004c-0.025,0.002-0.045,0-0.07,0.002
		c-0.078,0.006-0.16,0.017-0.24,0.028c-0.014,0.004-0.027,0.004-0.043,0.006c-0.074,0.012-0.148,0.03-0.225,0.046
		c-0.02,0.006-0.041,0.01-0.057,0.014c-0.066,0.019-0.127,0.04-0.193,0.061c-0.029,0.01-0.061,0.018-0.092,0.03
		c-0.051,0.02-0.098,0.041-0.148,0.062c-0.043,0.021-0.086,0.038-0.129,0.058c-0.041,0.021-0.078,0.043-0.117,0.062
		c-0.051,0.028-0.1,0.054-0.148,0.086c-0.01,0.006-0.02,0.01-0.027,0.016c-0.031,0.021-0.055,0.04-0.082,0.059
		c-0.047,0.031-0.092,0.062-0.133,0.098c-0.045,0.034-0.086,0.066-0.125,0.102c-0.035,0.032-0.068,0.059-0.102,0.091
		c-0.047,0.042-0.09,0.088-0.131,0.132c-0.021,0.023-0.041,0.042-0.057,0.062l-3.625,4.12v9.084L245.345,81.479z M267.724,116.305
		c0.283,0.44,0.422,0.95,0.434,1.49c0.031,1.62-1.094,3.523-2.973,4.734c-2.51,1.611-5.582,1.483-6.715-0.276
		c-1.131-1.762,0.033-4.612,2.541-6.222C263.517,114.417,266.591,114.543,267.724,116.305z"/>
	<path fill="#2D7E79" d="M339.591,235.295c2.68,4.734,9.348,6.041,14.867,2.92c5.52-3.125,7.828-9.516,5.148-14.248l-22.348-39.486
		c-0.816-1.443-2.648-1.949-4.09-1.133s-1.949,2.648-1.133,4.09l18.086,31.949c-1.801,0.141-3.648,0.684-5.379,1.664
		C339.22,224.172,336.911,230.564,339.591,235.295z M347.696,226.27c2.594-1.467,5.658-1.172,6.691,0.652
		c1.031,1.82-0.293,4.602-2.885,6.07c-2.592,1.467-5.658,1.168-6.689-0.652C343.78,230.516,345.103,227.738,347.696,226.27z"/>
	<path fill="#2D7E79" d="M239.845,1.375l14.754,15.89c1.129,1.212,3.027,1.284,4.242,0.156s1.285-3.026,0.156-4.24L239.845-7.445
		v0.002V1.375z"/>
	<path fill="#2D7E79" d="M407.017,330.361l-25.441-8.887l-8.887-25.438c-0.152-0.436-0.395-0.818-0.711-1.133
		c0-0.002-0.004-0.008-0.004-0.008c-1.172-1.17-3.074-1.17-4.242,0c-0.16,0.16-0.297,0.33-0.414,0.514l-16.158,21.244l-26.939,0.592
		c-1.105,0.023-2.105,0.654-2.607,1.639c-0.502,0.982-0.422,2.164,0.209,3.07l15.355,22.139l-7.764,25.803
		c-0.318,1.059-0.029,2.205,0.752,2.986s1.93,1.07,2.984,0.752l25.805-7.764l22.139,15.355c0.908,0.629,2.088,0.711,3.07,0.207
		c0.986-0.5,1.615-1.5,1.639-2.605l0.59-26.939l21.447-16.311c0.877-0.668,1.32-1.768,1.148-2.857
		C408.813,331.635,408.06,330.725,407.017,330.361z M381.612,347.992c-0.729,0.553-1.162,1.408-1.184,2.322l-0.502,22.805
		l-18.742-13c-0.75-0.521-1.699-0.672-2.572-0.408l-21.846,6.57l6.574-21.844c0.262-0.875,0.113-1.822-0.408-2.572l-13.002-18.742
		l22.805-0.502c0.914-0.02,1.77-0.457,2.32-1.184l13.807-18.152l7.525,21.533c0.152,0.432,0.395,0.818,0.709,1.133
		c0.316,0.314,0.701,0.561,1.131,0.709l21.537,7.523L381.612,347.992z"/>
	<path fill="#2D7E79" d="M263.798,180.98c-1.172,1.172-1.172,3.07,0,4.242l6.168,6.174c0.09,0.09,0.193,0.16,0.291,0.236
		c0.061,0.047,0.119,0.105,0.18,0.148c0.123,0.082,0.26,0.145,0.393,0.205c0.043,0.021,0.084,0.051,0.129,0.068
		c0.125,0.051,0.254,0.082,0.383,0.117c0.059,0.012,0.113,0.039,0.172,0.049c0.191,0.037,0.383,0.053,0.574,0.053
		s0.383-0.02,0.572-0.053c0.506-0.098,0.982-0.338,1.393-0.697c0.049-0.043,0.107-0.078,0.156-0.127l14.801-14.807
		c1.172-1.172,1.17-3.07,0-4.242c-1.174-1.172-3.072-1.172-4.244,0l-12.68,12.686l-4.045-4.049
		C266.872,179.811,264.97,179.809,263.798,180.98z"/>
	<path fill="#2D7E79" d="M356.114,133.457c7.531,0,13.654-6.124,13.654-13.656c0-7.53-6.123-13.654-13.654-13.654
		s-13.656,6.124-13.656,13.654C342.458,127.333,348.583,133.457,356.114,133.457z M356.114,112.146c4.221,0,7.654,3.435,7.654,7.654
		c0,4.222-3.434,7.656-7.654,7.656c-4.223,0-7.656-3.435-7.656-7.656C348.458,115.581,351.892,112.146,356.114,112.146z"/>
	<path fill="#2D7E79" d="M316.087,121.035c0.145,0.319,3.617,7.934,10.16,15.625c8.891,10.453,19.219,15.975,29.867,15.975
		c10.646,0,20.975-5.523,29.867-15.975c6.543-7.691,10.018-15.306,10.16-15.625c0.357-0.784,0.357-1.685,0-2.469
		c-0.143-0.319-3.617-7.934-10.16-15.626c-8.891-10.449-19.219-15.972-29.867-15.972s-20.977,5.524-29.867,15.972
		c-6.543,7.694-10.016,15.307-10.16,15.626C315.731,119.351,315.731,120.253,316.087,121.035z M356.114,92.967
		c18.941,0,31.16,21.41,33.949,26.834c-2.791,5.428-15.012,26.836-33.949,26.836c-18.941,0-31.16-21.412-33.949-26.836
		C324.954,114.375,337.173,92.967,356.114,92.967z"/>
	<path fill="#2D7E79" d="M301.536,378.762h-8.645v-8.645c0-1.656-1.344-3-3-3c-1.66,0-3,1.344-3,3v8.645h-8.648
		c-1.656,0-3,1.344-3,3c0,1.66,1.344,3,3,3h8.648v8.648c0,1.656,1.34,3,3,3c1.656,0,3-1.344,3-3v-8.648h8.645c1.656,0,3-1.34,3-3
		C304.536,380.105,303.192,378.762,301.536,378.762z"/>
	<path fill="#2D7E79" d="M295.509,65.467h8.648v8.646c0,1.657,1.344,3,3,3s3-1.343,3-3v-8.646h8.648c1.656,0,3-1.344,3-3
		s-1.344-3-3-3h-8.648v-8.648c0-1.655-1.344-3-3-3s-3,1.345-3,3v8.648h-8.648c-1.656,0-3,1.344-3,3S293.853,65.467,295.509,65.467z"
		/>
	<path fill="#2D7E79" d="M245.86,332.664c0.516,0.117,0.953,0.434,1.238,0.889s0.379,0.992,0.258,1.508l-7.512,32.475v26.629
		l13.355-57.75c0.484-2.078,0.125-4.221-1.012-6.039c-1.133-1.816-2.902-3.082-4.977-3.562l-7.367-1.703v6.16L245.86,332.664z"/>
	<path fill="#2D7E79" d="M239.22-8.117l-5.205-5.605c1.717-0.551,3.391-1.505,4.848-2.86c0.365-0.34,0.664-0.716,0.982-1.084
		v-14.595c-3.812-3.262-10.039-2.829-14.404,1.225c-4.643,4.314-5.418,11.068-1.713,15.052l7.303,7.868H239.22z M236.183-27.551
		c1.426,1.533,0.783,4.542-1.402,6.569c-2.184,2.03-5.232,2.448-6.658,0.914c-1.424-1.536-0.783-4.544,1.4-6.574
		C231.712-28.667,234.757-29.085,236.183-27.551z"/>
	<path fill="#2D7E79" d="M-49.057-23.947c0-1.656-1.344-3-3-3c-1.655,0-3,1.344-3,3v15.83h6V-23.947z"/>
	<path fill="#2D7E79" d="M119.613-23.389c1.836-6.61,7.894-11.227,14.738-11.227l0.268,0.004c0.471,0.008,0.959,0.042,1.49,0.106
		c5,0.605,8.484,2.941,10.354,6.95c0.492,1.054,1.553,1.729,2.717,1.729c1.168,0,2.227-0.676,2.717-1.729
		c1.873-4.009,5.357-6.345,10.357-6.95c0.582-0.07,1.172-0.106,1.762-0.106c6.84,0,12.898,4.618,14.734,11.227
		c1.314,4.739,0.498,9.92-2.223,15.268h6.582c3.037-7.546,2.361-13.488,1.422-16.874c-2.553-9.196-10.986-15.622-20.516-15.622
		c-0.828,0-1.668,0.05-2.484,0.148c-6.016,0.726-9.877,3.29-12.348,6.147c-2.471-2.86-6.332-5.418-12.348-6.147
		c-0.742-0.09-1.439-0.137-2.115-0.148c-0.123-0.004-0.25-0.004-0.371-0.004c-9.528,0-17.963,6.426-20.519,15.624
		c-0.938,3.384-1.61,9.324,1.426,16.874h6.582C119.117-13.465,118.299-18.647,119.613-23.389z"/>
	<path fill="#2D7E79" d="M230.146-90.533c-0.238,1.042-1.328,1.748-2.398,1.498l-51.479-11.906c1.604,0.382,2.598,1.984,2.229,3.594
		l-0.676,2.923l48.574,11.235c0.59,0.137,1.195,0.208,1.795,0.208c3.693,0,6.969-2.609,7.801-6.2l3.852-16.653v-26.63
		L230.146-90.533z"/>
	<path fill="#2D7E79" d="M158.712-105.001l-51.495-11.91c-0.516-0.122-0.958-0.438-1.242-0.894
		c-0.286-0.457-0.376-0.988-0.258-1.507l17.21-74.405c0.208-0.898,1.028-1.549,1.954-1.549c0.147,0,0.296,0.017,0.446,0.051
		l114.519,26.487v-6.159L126.679-201.06c-0.59-0.136-1.196-0.206-1.795-0.206c-3.688,0-6.968,2.606-7.8,6.198l-17.208,74.404
		c-0.48,2.078-0.122,4.222,1.012,6.04s2.902,3.08,4.979,3.558l48.574,11.236l0.676-2.922
		C155.485-104.371,157.099-105.377,158.712-105.001z"/>
	<path fill="#2D7E79" d="M160.958-101.405l-0.676,2.922l11.691,2.704l0.676-2.922c0.375-1.61,1.98-2.61,3.586-2.25l-17.523-4.052
		C160.325-104.629,161.333-103.018,160.958-101.405z"/>
	<polygon fill="#2D7E79" points="176.231,-100.949 176.269,-100.941 176.251,-100.947 	"/>
	
		<rect x="169.643" y="-95.35" transform="matrix(0.9743 0.2252 -0.2252 0.9743 -14.7879 -41.0679)" fill="#2D7E79" width="5.998" height="19.976"/>
	<path fill="#2D7E79" d="M176.269-100.941l-0.037-0.008c-1.602-0.36-3.209,0.64-3.582,2.25l-0.676,2.922l5.848,1.353l0.676-2.923
		C178.866-98.957,177.872-100.56,176.269-100.941z"/>
	<path fill="#2D7E79" d="M158.712-105.001L158.712-105.001L158.712-105.001z"/>
	<polygon fill="#2D7E79" points="151.509,-73.85 151.511,-73.85 151.507,-73.852 	"/>
	
		<rect x="152.115" y="-99.425" transform="matrix(-0.9743 -0.2253 0.2253 -0.9743 326.3926 -141.6221)" fill="#2D7E79" width="5.998" height="19.974"/>
	<path fill="#2D7E79" d="M160.958-101.405c0.377-1.614-0.631-3.226-2.246-3.598l0,0c-1.613-0.376-3.227,0.63-3.598,2.246
		l-0.676,2.922l5.844,1.352L160.958-101.405z"/>
	<path fill="#2D7E79" d="M149.259-77.447l0.676-2.926l-19.64-4.542c-1.61-0.374-3.227,0.632-3.599,2.248
		c-0.376,1.616,0.633,3.224,2.246,3.6l22.564,5.218C149.892-74.226,148.888-75.835,149.259-77.447z"/>
	<path fill="#2D7E79" d="M169.724-69.717c-0.227,0-0.455-0.024-0.68-0.078c-1.615-0.372-2.623-1.984-2.246-3.599l0.676-2.922
		l-11.693-2.706l-0.676,2.924c-0.318,1.387-1.553,2.324-2.922,2.324c-0.221,0-0.447-0.025-0.674-0.078l40.1,9.274
		c0.227,0.054,0.455,0.078,0.678,0.078c1.367,0,2.602-0.938,2.922-2.324c0.371-1.614-0.633-3.226-2.246-3.598l-19.645-4.544
		l-0.676,2.922C172.321-70.655,171.087-69.717,169.724-69.717z"/>
	<path fill="#2D7E79" d="M166.798-73.394c-0.375,1.614,0.633,3.227,2.246,3.599c0.227,0.054,0.455,0.078,0.68,0.078
		c1.365,0,2.6-0.938,2.918-2.324l0.676-2.922l-5.844-1.353L166.798-73.394z"/>
	<path fill="#2D7E79" d="M155.106-76.096l0.676-2.924l-5.848-1.352l-0.676,2.926c-0.371,1.612,0.633,3.223,2.248,3.596h0.004
		c0.225,0.053,0.451,0.078,0.674,0.078C153.552-73.771,154.786-74.709,155.106-76.096z"/>
	<path fill="#2D7E79" d="M21.473-160.659L21.473-160.659l-2.122,2.124l-58.954,58.952c-0.006,0.006-0.012,0.014-0.018,0.02
		c-0.046,0.048-0.092,0.101-0.134,0.15c-0.022,0.024-0.042,0.046-0.064,0.072c-0.04,0.05-0.078,0.105-0.116,0.159
		c-0.02,0.028-0.042,0.053-0.058,0.082c-0.034,0.049-0.062,0.103-0.092,0.154c-0.021,0.034-0.042,0.066-0.059,0.103
		c-0.023,0.044-0.044,0.094-0.065,0.14c-0.021,0.042-0.04,0.086-0.057,0.128c-0.016,0.042-0.029,0.084-0.044,0.126
		c-0.018,0.052-0.038,0.104-0.05,0.154c-0.012,0.042-0.02,0.082-0.03,0.124c-0.014,0.054-0.027,0.111-0.04,0.168
		c-0.002,0.01-0.004,0.021-0.006,0.032l-5.126,29.875c0,0.013,0,0.026-0.004,0.038c-0.014,0.095-0.023,0.188-0.03,0.286
		c-0.002,0.022-0.006,0.042-0.006,0.064c-0.004,0.109-0.004,0.22,0.004,0.334c0.005,0.042,0.013,0.084,0.017,0.126
		c0.008,0.054,0.012,0.112,0.021,0.166c0,0.01,0.004,0.018,0.006,0.028c0.026,0.142,0.061,0.283,0.106,0.42
		c0.008,0.025,0.02,0.046,0.03,0.071c0.04,0.106,0.082,0.208,0.132,0.309c0.021,0.044,0.046,0.088,0.07,0.13
		c0.044,0.08,0.094,0.158,0.144,0.231c0.028,0.04,0.052,0.08,0.082,0.118c0.078,0.103,0.16,0.2,0.252,0.292
		c0.004,0.004,0.006,0.011,0.01,0.015c0.002,0,0.002,0,0.002,0.002c0.002,0,0.002,0,0.002,0.002
		c0.004,0.004,0.011,0.006,0.015,0.012c0.09,0.088,0.189,0.172,0.292,0.25c0.038,0.03,0.078,0.054,0.118,0.082
		c0.075,0.05,0.151,0.1,0.231,0.144c0.042,0.026,0.086,0.048,0.13,0.072c0.101,0.048,0.204,0.094,0.309,0.13
		c0.025,0.01,0.046,0.021,0.071,0.03c0.137,0.044,0.278,0.08,0.422,0.106c0.009,0.002,0.017,0.006,0.026,0.006
		c0.054,0.012,0.112,0.014,0.166,0.021c0.042,0.004,0.084,0.012,0.126,0.016c0.114,0.009,0.225,0.011,0.336,0.005
		c0.022,0,0.042-0.005,0.062-0.005c0.096-0.008,0.191-0.018,0.286-0.031c0.014-0.002,0.025-0.002,0.037-0.004l29.876-5.126
		c0.011-0.002,0.022-0.004,0.032-0.007c0.057-0.01,0.114-0.025,0.168-0.037c0.042-0.013,0.082-0.021,0.124-0.032
		c0.05-0.015,0.104-0.034,0.154-0.05c0.042-0.017,0.086-0.03,0.126-0.044c0.042-0.019,0.086-0.038,0.128-0.059
		c0.046-0.02,0.096-0.042,0.14-0.063c0.036-0.019,0.068-0.04,0.103-0.059c0.052-0.029,0.105-0.058,0.154-0.092
		c0.029-0.018,0.056-0.04,0.084-0.058c0.052-0.038,0.107-0.074,0.157-0.118c0.026-0.021,0.046-0.042,0.072-0.062
		c0.05-0.042,0.103-0.088,0.15-0.134c0.006-0.006,0.014-0.012,0.02-0.018l58.95-58.96l2.122-2.122h0.002
		c7.3-7.302,6.252-16.727-2.876-25.858C38.429-166.682,28.669-167.854,21.473-160.659z M16.523-147.226l2.828,2.828l-49.76,49.763
		l-2.828-2.828L16.523-147.226z M23.595-140.153l6.366,6.364l-49.765,49.762l-6.365-6.364L23.595-140.153z M-28.897-72.985
		l-8.313-8.313l1.708-9.944l16.55,16.55L-28.897-72.985z M-12.733-76.957l-2.828-2.828l49.763-49.762l2.827,2.828L-12.733-76.957z
		 M41.271-130.961l-20.506-20.506l2.828-2.828l20.506,20.506L41.271-130.961z M48.083-138.293l-19.969-19.969
		c5.368-2.987,11.116,0.866,15.23,4.979C48.992-147.637,50.576-142.607,48.083-138.293z"/>
	<path fill="#2D7E79" d="M81.759-109.159c-1.656,0-3,1.344-3,3v36.712c-1.632-0.766-3.508-1.204-5.5-1.204
		c-6.34,0-11.5,4.426-11.5,9.864c0,5.438,5.158,9.864,11.5,9.864c6.344,0,11.5-4.427,11.5-9.864v-45.372
		C84.759-107.817,83.416-109.159,81.759-109.159z M73.259-56.923c-2.98,0-5.5-1.771-5.5-3.864s2.518-3.864,5.5-3.864
		c2.984,0,5.5,1.771,5.5,3.864S76.244-56.923,73.259-56.923z"/>
	<path fill="#2D7E79" d="M-72.931-42.098c-0.6,0.58-14.842,13.986-28.792,0.036c-5.174-5.174-12.852-6.855-22.208-4.866
		c-3.025,0.643-5.752,1.568-7.855,2.4c-1.038-8.945-8.656-15.914-17.876-15.914h-24.183c-9.926,0-18,8.076-18,18.002v4.998
		c0,9.926,8.074,18,18,18h24.183c9.926,0,18-8.074,18-18v-0.624c1.848-0.84,5.147-2.182,8.978-2.994
		c7.374-1.567,12.996-0.478,16.714,3.238c9.49,9.488,19.192,8.956,25.662,6.836c6.798-2.226,11.364-6.624,11.555-6.808
		c1.186-1.152,1.208-3.046,0.058-4.232C-69.842-43.215-71.741-43.243-72.931-42.098z M-137.661-39.945c0,0.002,0,0.004,0,0.006
		c0,0.004,0,0.006,0,0.01v2.488c0,6.618-5.382,12-12,12h-24.182c-6.616,0-12-5.382-12-12v-4.998c0-6.617,5.384-12.002,12-12.002
		h24.182c6.618,0,12,5.382,12,12V-39.945z"/>
	<path fill="#2D7E79" d="M-149.659-42.939c-0.79,0-1.564,0.32-2.124,0.876c-0.554,0.561-0.876,1.336-0.876,2.124
		c0,0.792,0.32,1.561,0.876,2.12c0.56,0.561,1.334,0.88,2.124,0.88s1.56-0.319,2.12-0.88c0.56-0.558,0.88-1.33,0.88-2.12
		c0-0.792-0.32-1.563-0.88-2.124C-148.099-42.619-148.867-42.939-149.659-42.939z"/>
	<path fill="#2D7E79" d="M-79.922-103.023c-1.173-1.172-3.07-1.172-4.242,0l-6.809,6.809l-6.81-6.809
		c-1.172-1.172-3.072-1.172-4.244,0c-1.17,1.172-1.17,3.07,0,4.242l6.808,6.809l-6.808,6.808c-1.172,1.172-1.172,3.069,0,4.242
		c0.586,0.586,1.354,0.878,2.124,0.878c0.768,0,1.536-0.292,2.122-0.878l6.808-6.809l6.809,6.809
		c0.586,0.586,1.354,0.878,2.122,0.878c0.768,0,1.536-0.292,2.122-0.878c1.172-1.173,1.172-3.07,0-4.242l-6.809-6.808l6.809-6.809
		C-78.75-99.953-78.75-101.852-79.922-103.023z"/>
	<path fill="#2D7E79" d="M4.591-33.577c-6.342,0-11.5,4.424-11.5,9.862c0,5.439,5.158,9.863,11.5,9.863s11.5-4.424,11.5-9.863
		C16.091-29.155,10.931-33.577,4.591-33.577z M4.591-19.854c-2.982,0-5.5-1.77-5.5-3.863c0-2.095,2.518-3.862,5.5-3.862
		c2.979,0,5.5,1.768,5.5,3.862C10.091-21.623,7.571-19.854,4.591-19.854z"/>
	<path fill="#2D7E79" d="M219.409,101.885c-0.043,0.048-0.082,0.1-0.119,0.152c-0.025,0.027-0.047,0.056-0.066,0.086
		c-0.033,0.046-0.062,0.094-0.094,0.144c-0.023,0.036-0.047,0.074-0.07,0.112c-0.02,0.038-0.039,0.078-0.057,0.116
		c-0.025,0.05-0.049,0.102-0.074,0.151c-0.012,0.028-0.02,0.059-0.033,0.084c-0.023,0.064-0.049,0.126-0.07,0.19
		c-0.008,0.024-0.012,0.044-0.02,0.067c-0.021,0.068-0.041,0.141-0.055,0.211c-0.006,0.025-0.012,0.05-0.016,0.075
		c-0.012,0.068-0.027,0.137-0.035,0.204c-0.004,0.042-0.006,0.082-0.01,0.122c-0.004,0.054-0.01,0.11-0.01,0.164
		c-0.004,0.054,0,0.11,0.002,0.164c0,0.04,0,0.078,0.002,0.12c0.006,0.06,0.014,0.124,0.023,0.184
		c0.004,0.034,0.004,0.068,0.012,0.104c0.008,0.056,0.025,0.112,0.037,0.17c0.008,0.038,0.016,0.078,0.025,0.116
		c0.016,0.046,0.031,0.092,0.045,0.14c0.014,0.046,0.029,0.096,0.045,0.144c0.016,0.036,0.031,0.068,0.043,0.103
		c0.025,0.058,0.047,0.12,0.078,0.176c0.012,0.028,0.027,0.052,0.041,0.078c0.033,0.062,0.068,0.124,0.107,0.187
		c0.004,0.006,0.008,0.014,0.012,0.02l5.367,8.354c0.002,0,0.002,0.005,0.004,0.005l14.477,22.532
		c-1.789,0.238-3.602,0.883-5.277,1.959c-5.336,3.428-7.285,9.939-4.344,14.514c2.141,3.336,6.299,4.707,10.461,3.895l0,0v-6.215
		l0,0c-2.188,0.859-4.473,0.543-5.416-0.922c-1.131-1.762,0.033-4.611,2.541-6.223c0.922-0.594,1.922-0.949,2.875-1.074V126.57
		l-9.014-14.025l9.014-10.248v-9.084l-12.383,14.082l-2.035-3.162l14.418-16.392v-0.003v-9.084l-20.418,23.215
		C219.421,101.869,219.415,101.877,219.409,101.885z"/>
	<polygon fill="#2D7E79" points="239.845,1.375 239.845,-7.443 239.22,-8.117 231.03,-8.117 239.845,1.377 	"/>
	<path fill="#2D7E79" d="M36.326,230.471l0.004,0.004c-6.042-1.68-11.78-2.506-17.391-2.506c-9.609,0-18.653,2.453-27.647,7.498
		c-0.234,0.131-0.462,0.291-0.687,0.471c-2.604-0.877-6.939-1.479-14.348-1.479c-7.406,0-11.742,0.602-14.346,1.479
		c-0.223-0.18-0.452-0.34-0.687-0.471c-8.994-5.045-18.04-7.498-27.649-7.498c-5.61,0-11.349,0.826-17.389,2.506l0.004-0.004
		c0,0-23.768,6.156-25.434,8.072v9.248c0,0,8.166-0.832,10.454,8.424c0.002,0.006,0.002,0.01,0.004,0.016
		c0.842,8.184,3.86,16.727,9.286,22.213c5.336,5.396,13.296,8.367,22.418,8.367c6.521,0,13.132-1.568,18.613-4.418
		c13.44-6.988,15.643-20.385,15.761-27.748c0.06-3.785-0.452-7.957-1.458-11.477c1.662-0.328,4.794-0.709,10.426-0.709
		s8.766,0.377,10.428,0.709c-1.008,3.523-1.52,7.693-1.458,11.477c0.118,7.363,2.32,20.76,15.761,27.748
		c5.479,2.85,12.092,4.418,18.613,4.418c9.122,0,17.082-2.971,22.418-8.367c5.426-5.486,8.444-14.033,9.286-22.213
		c0-0.006,0.002-0.01,0.004-0.016c2.286-9.256,10.454-8.424,10.454-8.424l0.002-9.248C60.095,236.627,36.326,230.471,36.326,230.471
		z M-99.895,245.729l-7.168-4.34l8.225-1.615l1.907,3.41L-99.895,245.729z M-38.924,257.918c-0.704,6.184-3.412,14.525-12.312,19.15
		c-4.642,2.414-10.27,3.742-15.846,3.742c-7.506,0-13.954-2.338-18.152-6.586c-6.678-6.754-9.078-20.635-7.13-29.365
		c0.794-3.564,2.22-5.965,3.906-6.586c7.894-2.896,15.104-4.305,22.036-4.305c8.529,0,16.59,2.191,24.64,6.691
		C-40.489,241.844-37.935,249.211-38.924,257.918z M37.75,274.225c-4.2,4.248-10.645,6.586-18.15,6.586
		c-5.576,0-11.204-1.328-15.846-3.742c-8.902-4.625-11.61-12.967-12.312-19.15c-0.992-8.707,1.564-16.07,2.86-17.258
		c8.048-4.5,16.11-6.691,24.638-6.691c6.935,0,14.141,1.408,22.036,4.305c1.688,0.621,3.112,3.021,3.908,6.586
		C46.83,253.59,44.429,267.471,37.75,274.225z M52.41,245.729l-2.965-2.545l1.908-3.41l8.223,1.615L52.41,245.729z"/>
	<path fill="#2D7E79" d="M4.591,306.896c0-3.459-11.304-0.807-29.238-1.072c-17.932,0.266-29.235-2.383-29.235,1.072
		c0,6.25,24.821,9.902,29.235,10C-20.233,316.799,4.591,313.146,4.591,306.896z"/>
	<path fill="#2D7E79" d="M160.958,398.594l-0.676,2.926l11.691,2.703l0.676-2.922c0.375-1.609,1.98-2.609,3.586-2.25L158.712,395
		C160.325,395.369,161.333,396.982,160.958,398.594z"/>
	<path fill="#2D7E79" d="M230.146,409.467c-0.238,1.041-1.328,1.748-2.398,1.498l-51.479-11.906
		c1.604,0.383,2.598,1.984,2.229,3.594l-0.676,2.922l48.574,11.236c0.59,0.137,1.195,0.209,1.795,0.209
		c3.693,0,6.969-2.609,7.801-6.201l3.852-16.654v-26.627L230.146,409.467z"/>
	<path fill="#2D7E79" d="M124.881,298.732c-3.688,0-6.968,2.607-7.8,6.197l-17.208,74.406c-0.48,2.078-0.122,4.221,1.012,6.039
		s2.902,3.08,4.979,3.559l48.574,11.234l0.676-2.922c0.371-1.617,1.984-2.623,3.598-2.246l-51.495-11.91
		c-0.517-0.123-0.958-0.439-1.242-0.895c-0.286-0.457-0.376-0.988-0.258-1.508l17.21-74.404c0.208-0.898,1.028-1.549,1.954-1.549
		c0.147,0,0.296,0.016,0.446,0.051l114.519,26.488v-6.16l-113.168-26.176C126.087,298.801,125.481,298.732,124.881,298.732z"/>
	
		<rect x="169.623" y="404.642" transform="matrix(0.9743 0.2253 -0.2253 0.9743 97.8701 -28.2341)" fill="#2D7E79" width="5.998" height="19.974"/>
	<polygon fill="#2D7E79" points="176.231,399.051 176.269,399.059 176.251,399.053 	"/>
	<path fill="#2D7E79" d="M176.269,399.059l-0.037-0.008c-1.602-0.359-3.209,0.641-3.582,2.25l-0.676,2.922l5.848,1.352l0.676-2.922
		C178.866,401.043,177.872,399.441,176.269,399.059z"/>
	<polygon fill="#2D7E79" points="151.509,426.15 151.511,426.15 151.507,426.15 	"/>
	
		<rect x="152.13" y="400.568" transform="matrix(-0.9742 -0.2256 0.2256 -0.9742 213.6175 845.527)" fill="#2D7E79" width="5.998" height="19.976"/>
	<path fill="#2D7E79" d="M158.712,395L158.712,395L158.712,395z"/>
	<path fill="#2D7E79" d="M160.958,398.594c0.377-1.613-0.631-3.225-2.246-3.598l0,0c-1.613-0.375-3.227,0.631-3.598,2.246
		l-0.676,2.922l5.844,1.355L160.958,398.594z"/>
	<path fill="#2D7E79" d="M169.724,430.283c-0.227,0-0.455-0.025-0.68-0.078c-1.615-0.373-2.623-1.984-2.246-3.6l0.676-2.922
		l-11.693-2.705l-0.676,2.924c-0.318,1.387-1.553,2.324-2.922,2.324c-0.221,0-0.447-0.025-0.674-0.078l40.1,9.273
		c0.227,0.055,0.455,0.078,0.678,0.078c1.367,0,2.602-0.938,2.922-2.324c0.371-1.613-0.633-3.225-2.246-3.598l-19.645-4.543
		l-0.676,2.924C172.321,429.344,171.087,430.283,169.724,430.283z"/>
	<path fill="#2D7E79" d="M149.259,422.553l0.676-2.926l-19.64-4.541c-1.61-0.375-3.227,0.631-3.599,2.246
		c-0.376,1.617,0.633,3.225,2.246,3.602l22.564,5.217C149.892,425.775,148.888,424.168,149.259,422.553z"/>
	<path fill="#2D7E79" d="M166.798,426.605c-0.375,1.615,0.633,3.227,2.246,3.6c0.227,0.053,0.455,0.078,0.68,0.078
		c1.365,0,2.6-0.939,2.918-2.324l0.676-2.924l-5.844-1.352L166.798,426.605z"/>
	<path fill="#2D7E79" d="M155.106,423.904l0.676-2.924l-5.848-1.354l-0.676,2.926c-0.371,1.615,0.633,3.221,2.248,3.598h0.004
		c0.225,0.053,0.451,0.078,0.674,0.078C153.552,426.229,154.786,425.291,155.106,423.904z"/>
	<path fill="#2D7E79" d="M21.473,339.34L21.473,339.34l-2.122,2.125l-58.956,58.953c-0.006,0.008-0.012,0.016-0.018,0.02
		c-0.046,0.049-0.092,0.102-0.134,0.152c-0.022,0.023-0.042,0.045-0.064,0.07c-0.04,0.051-0.078,0.105-0.116,0.16
		c-0.02,0.027-0.042,0.053-0.058,0.082c-0.034,0.049-0.062,0.102-0.092,0.154c-0.021,0.033-0.042,0.066-0.059,0.104
		c-0.023,0.043-0.044,0.094-0.065,0.139c-0.021,0.041-0.04,0.086-0.057,0.127c-0.016,0.043-0.029,0.086-0.044,0.127
		c-0.018,0.053-0.038,0.104-0.05,0.154c-0.012,0.043-0.02,0.082-0.03,0.125c-0.014,0.053-0.027,0.111-0.04,0.168
		c-0.002,0.008-0.004,0.02-0.006,0.031l-5.126,29.875c0,0.012,0,0.027-0.004,0.039c-0.014,0.094-0.023,0.188-0.03,0.285
		c-0.002,0.023-0.006,0.043-0.006,0.064c-0.004,0.109-0.004,0.221,0.004,0.334c0.004,0.043,0.013,0.084,0.017,0.125
		c0.008,0.055,0.012,0.113,0.021,0.168c0,0.008,0.004,0.016,0.006,0.027c0.026,0.141,0.061,0.283,0.106,0.42
		c0.008,0.025,0.02,0.045,0.03,0.072c0.04,0.105,0.082,0.207,0.132,0.309c0.021,0.043,0.046,0.086,0.07,0.129
		c0.044,0.08,0.094,0.158,0.144,0.232c0.028,0.039,0.052,0.08,0.082,0.117c0.078,0.104,0.16,0.201,0.252,0.291
		c0.004,0.006,0.006,0.012,0.01,0.016c0.002,0,0.002,0,0.002,0.002c0.002,0,0.002,0,0.002,0.002
		c0.004,0.004,0.011,0.006,0.015,0.012c0.09,0.088,0.189,0.172,0.292,0.25c0.038,0.031,0.078,0.055,0.117,0.082
		c0.076,0.051,0.152,0.1,0.232,0.145c0.042,0.025,0.086,0.047,0.13,0.07c0.101,0.049,0.204,0.096,0.309,0.131
		c0.025,0.01,0.046,0.021,0.071,0.029c0.137,0.045,0.278,0.082,0.422,0.107c0.009,0.002,0.017,0.006,0.026,0.006
		c0.054,0.012,0.112,0.014,0.166,0.021c0.042,0.004,0.084,0.012,0.126,0.018c0.114,0.008,0.224,0.008,0.336,0.004
		c0.022,0,0.042-0.004,0.062-0.004c0.096-0.01,0.191-0.02,0.285-0.033c0.015-0.002,0.026-0.002,0.038-0.004l29.876-5.127
		c0.011,0,0.022-0.004,0.032-0.004c0.056-0.012,0.114-0.027,0.168-0.039c0.042-0.012,0.082-0.02,0.124-0.031
		c0.05-0.016,0.104-0.035,0.154-0.051c0.042-0.016,0.086-0.031,0.126-0.043c0.042-0.02,0.086-0.039,0.128-0.059
		c0.046-0.02,0.096-0.043,0.14-0.064c0.036-0.018,0.068-0.041,0.103-0.059c0.052-0.029,0.105-0.057,0.154-0.092
		c0.029-0.018,0.056-0.039,0.084-0.059c0.052-0.037,0.107-0.074,0.157-0.117c0.026-0.02,0.046-0.043,0.072-0.062
		c0.05-0.041,0.102-0.088,0.15-0.133c0.006-0.008,0.014-0.012,0.02-0.02l58.954-58.955l2.122-2.123h0.002
		c7.3-7.301,6.252-16.725-2.876-25.857C38.429,333.318,28.669,332.146,21.473,339.34z M16.523,352.773l2.828,2.828l-49.762,49.764
		l-2.828-2.828L16.523,352.773z M23.595,359.848l6.366,6.363l-49.763,49.762l-6.365-6.363L23.595,359.848z M-28.897,427.016
		l-8.313-8.314l1.708-9.943l16.55,16.549L-28.897,427.016z M-12.733,423.043l-2.828-2.828l49.762-49.762l2.828,2.828
		L-12.733,423.043z M41.271,369.039l-20.506-20.506l2.828-2.828l20.506,20.506L41.271,369.039z M48.083,361.707l-19.969-19.969
		c5.368-2.988,11.116,0.867,15.23,4.979C48.992,352.363,50.576,357.393,48.083,361.707z"/>
	<path fill="#2D7E79" d="M27.038,163.59l43.51,27.307l-6.681,10.645l9.162-0.488l3.542,8.463l6.685-10.645l8.468,5.316
		c3.738,2.346,8.685,1.211,11.028-2.523l56.707-90.35c2.344-3.735,1.215-8.686-2.523-11.029L92.248,59.685
		c-3.734-2.346-8.685-1.212-11.028,2.524l-56.706,90.348C22.169,156.295,23.301,161.242,27.038,163.59z M153.743,105.369
		c0.922,0.576,1.207,1.84,0.633,2.758l-56.708,90.348c-0.574,0.918-1.836,1.209-2.758,0.631l-53.673-33.691l58.834-93.735
		L153.743,105.369z M29.595,155.75L86.301,65.4c0.574-0.918,1.84-1.207,2.758-0.63l5.926,3.721l-58.832,93.735l-5.928-3.719
		C29.309,157.926,29.019,156.668,29.595,155.75z"/>
	<path fill="#2D7E79" d="M-49.057,138.385c6.34,0,11.5-4.426,11.5-9.864V95.411l29-8.286v22.736c-1.634-0.769-3.51-1.204-5.5-1.204
		c-6.342,0-11.5,4.424-11.5,9.861c0,5.438,5.158,9.864,11.5,9.864c6.34,0,11.5-4.426,11.5-9.864v-35.3c0-0.002,0-0.004,0-0.006
		v-9.994c0-0.002,0-0.004,0-0.006v-0.066c0-0.025-0.004-0.048-0.004-0.074c-0.002-0.065-0.004-0.132-0.01-0.199
		c-0.006-0.044-0.012-0.09-0.018-0.135c-0.009-0.05-0.015-0.102-0.024-0.153c-0.012-0.058-0.028-0.118-0.042-0.174
		c-0.008-0.03-0.012-0.059-0.02-0.089c-0.005-0.008-0.009-0.018-0.011-0.025c-0.018-0.062-0.04-0.124-0.062-0.182
		c-0.012-0.036-0.024-0.072-0.038-0.106c-0.022-0.05-0.044-0.1-0.068-0.15c-0.021-0.042-0.04-0.084-0.06-0.124
		c-0.021-0.035-0.042-0.069-0.062-0.105c-0.029-0.05-0.058-0.102-0.092-0.15c-0.016-0.023-0.034-0.044-0.048-0.067
		c-0.042-0.057-0.08-0.114-0.124-0.166c-0.014-0.019-0.032-0.034-0.044-0.05c-0.048-0.055-0.096-0.11-0.146-0.162
		c-0.021-0.022-0.044-0.042-0.067-0.061c-0.046-0.044-0.092-0.09-0.141-0.13c-0.039-0.032-0.082-0.06-0.124-0.092
		c-0.033-0.026-0.065-0.052-0.104-0.078c-0.058-0.04-0.122-0.076-0.182-0.114c-0.021-0.01-0.04-0.023-0.059-0.036
		c-0.069-0.04-0.144-0.073-0.218-0.107c-0.012-0.006-0.026-0.013-0.04-0.019c-0.07-0.031-0.142-0.058-0.216-0.084
		c-0.019-0.006-0.038-0.014-0.055-0.02c-0.063-0.022-0.128-0.038-0.193-0.052c-0.032-0.009-0.062-0.019-0.094-0.026
		c-0.053-0.01-0.108-0.018-0.16-0.028c-0.046-0.008-0.092-0.016-0.139-0.021c-0.044-0.004-0.09-0.006-0.132-0.011
		c-0.056-0.004-0.113-0.008-0.172-0.008c-0.01,0-0.021-0.002-0.032-0.002c-0.035,0-0.065,0.004-0.102,0.006
		c-0.054,0.002-0.11,0.002-0.166,0.009c-0.052,0.004-0.106,0.012-0.158,0.02c-0.044,0.008-0.088,0.012-0.132,0.022
		c-0.062,0.012-0.124,0.025-0.184,0.042c-0.028,0.008-0.055,0.012-0.082,0.02l-35,10c-0.011,0.002-0.019,0.006-0.028,0.01
		c-0.062,0.019-0.124,0.04-0.182,0.062c-0.036,0.012-0.07,0.024-0.104,0.038c-0.052,0.021-0.104,0.046-0.154,0.07
		c-0.042,0.02-0.082,0.037-0.122,0.058c-0.037,0.02-0.073,0.042-0.111,0.063c-0.048,0.03-0.099,0.057-0.145,0.088
		c-0.025,0.019-0.048,0.038-0.071,0.053c-0.055,0.042-0.112,0.08-0.162,0.124c-0.019,0.014-0.036,0.032-0.053,0.044
		c-0.054,0.048-0.109,0.096-0.161,0.147c-0.019,0.019-0.036,0.038-0.053,0.057c-0.046,0.05-0.096,0.1-0.138,0.151
		c-0.026,0.032-0.048,0.064-0.072,0.097c-0.034,0.042-0.067,0.086-0.098,0.13c-0.032,0.044-0.058,0.094-0.088,0.14
		c-0.021,0.034-0.042,0.066-0.062,0.103c-0.029,0.054-0.054,0.109-0.08,0.166c-0.016,0.031-0.031,0.06-0.046,0.094
		c-0.021,0.052-0.042,0.107-0.06,0.162c-0.014,0.037-0.03,0.074-0.042,0.111c-0.016,0.047-0.026,0.095-0.04,0.141
		c-0.014,0.048-0.028,0.098-0.038,0.147c-0.008,0.038-0.014,0.074-0.02,0.11c-0.013,0.063-0.022,0.126-0.03,0.189
		c-0.004,0.03-0.004,0.059-0.006,0.088c-0.007,0.072-0.011,0.145-0.013,0.215c0,0.008,0,0.016,0,0.023v9.928
		c0,0.003,0,0.005,0,0.007v26.782c-1.634-0.769-3.51-1.205-5.5-1.205c-6.342,0-11.5,4.425-11.5,9.862
		C-60.557,133.957-55.399,138.385-49.057,138.385z M-14.057,122.385c-2.981,0-5.5-1.77-5.5-3.864c0-2.094,2.519-3.861,5.5-3.861
		c2.98,0,5.5,1.768,5.5,3.861C-8.557,120.615-11.075,122.385-14.057,122.385z M-37.557,85.413l29-8.286v3.758l-29,8.288V85.413z
		 M-49.057,124.661c2.98,0,5.5,1.768,5.5,3.861c0,2.095-2.52,3.864-5.5,3.864c-2.981,0-5.5-1.77-5.5-3.864
		C-54.557,126.429-52.039,124.661-49.057,124.661z"/>
	<path fill="#2D7E79" d="M-60.557,11.561c-6.34,0-11.5,4.426-11.5,9.864s5.158,9.864,11.5,9.864c6.345,0,11.5-4.426,11.5-9.864
		V-8.117h-6v20.88C-56.691,11.999-58.565,11.561-60.557,11.561z M-60.557,25.287c-2.979,0-5.5-1.771-5.5-3.864
		s2.519-3.864,5.5-3.864c2.984,0,5.5,1.771,5.5,3.864S-57.573,25.287-60.557,25.287z"/>
	<path fill="#2D7E79" d="M112.927,245.537c1.718-0.551,3.39-1.504,4.848-2.861c4.648-4.314,5.418-11.066,1.719-15.051
		c-3.704-3.986-10.492-3.715-15.141,0.598c-4.644,4.314-5.418,11.068-1.714,15.051l30.872,33.25
		c1.127,1.213,3.029,1.285,4.242,0.156c1.213-1.127,1.287-3.025,0.156-4.238L112.927,245.537z M107.033,239.193
		c-1.422-1.537-0.781-4.545,1.402-6.574c2.188-2.029,5.234-2.447,6.66-0.91c1.426,1.533,0.782,4.541-1.402,6.57
		C111.509,240.309,108.459,240.727,107.033,239.193z"/>
	<path fill="#2D7E79" d="M147.478,23.951c0.521,0.312,1.115,0.458,1.709,0.426c0.055,0.004,0.111,0.004,0.164,0.004
		c0.541,0,1.074-0.145,1.541-0.43c19.812-11.916,28.621-23.122,32.215-32.068h-6.582c-4.391,8.634-13.773,17.706-27.34,26.084
		c-13.57-8.376-22.952-17.45-27.347-26.084h-6.582C118.857,0.829,127.667,12.035,147.478,23.951z"/>
	<path fill="#2D7E79" d="M160.044,222.121c0,7.234,3.102,14.096,8.793,19.555c-1.57,2.59-3.492,5.027-5.73,7.27
		c-0.859,0.857-1.117,2.145-0.652,3.268c0.467,1.123,1.559,1.854,2.773,1.854c5.443,0,11.373-1.357,17.645-4.033
		c4.551,1.549,9.336,2.338,14.234,2.338c20.434,0,37.059-13.57,37.059-30.25s-16.625-30.248-37.059-30.248
		C176.669,191.873,160.044,205.441,160.044,222.121z M197.106,197.873c17.125,0,31.059,10.877,31.059,24.248
		s-13.934,24.25-31.059,24.25c-4.602,0-9.074-0.799-13.301-2.375c-0.336-0.125-0.691-0.189-1.045-0.189
		c-0.418,0-0.84,0.088-1.23,0.262c-3.176,1.428-6.232,2.475-9.143,3.139c1.082-1.539,2.053-3.135,2.91-4.781
		c0.65-1.254,0.34-2.793-0.75-3.697c-5.48-4.537-8.5-10.434-8.5-16.611C166.044,208.75,179.978,197.873,197.106,197.873z"/>
	<path fill="#2D7E79" d="M-92.985,330.361l-25.439-8.887l-8.889-25.438c-0.151-0.436-0.396-0.818-0.71-1.133
		c-0.002-0.002-0.006-0.008-0.006-0.008c-1.172-1.17-3.072-1.17-4.242,0c-0.16,0.16-0.296,0.33-0.412,0.514l-16.159,21.244
		l-26.938,0.592c-1.104,0.023-2.106,0.654-2.608,1.639c-0.5,0.982-0.422,2.164,0.208,3.07l15.356,22.139l-7.764,25.803
		c-0.318,1.059-0.028,2.205,0.752,2.986c0.779,0.781,1.928,1.07,2.983,0.752l25.805-7.764l22.14,15.355
		c0.908,0.629,2.088,0.711,3.072,0.207c0.985-0.5,1.613-1.5,1.638-2.605l0.592-26.939l21.446-16.311
		c0.878-0.668,1.318-1.768,1.146-2.857C-91.185,331.635-91.941,330.725-92.985,330.361z M-118.387,347.992
		c-0.728,0.553-1.164,1.408-1.184,2.322l-0.5,22.805l-18.744-13c-0.75-0.521-1.698-0.672-2.572-0.408l-21.844,6.57l6.574-21.844
		c0.262-0.875,0.114-1.822-0.408-2.572l-13-18.742l22.804-0.502c0.914-0.02,1.771-0.457,2.322-1.184l13.809-18.152l7.523,21.533
		c0.152,0.432,0.396,0.818,0.71,1.133c0.316,0.314,0.702,0.561,1.132,0.709l21.536,7.523L-118.387,347.992z"/>
	<path fill="#2D7E79" d="M-20.504,170.82c-1.173-1.172-3.07-1.172-4.242-0.002l-6.809,6.809l-6.808-6.809
		c-1.172-1.17-3.072-1.17-4.244,0.002c-1.17,1.172-1.17,3.07,0.002,4.242l6.807,6.809l-6.807,6.805
		c-1.172,1.172-1.172,3.074-0.002,4.246c0.586,0.586,1.354,0.877,2.124,0.877c0.769,0,1.536-0.291,2.122-0.877l6.808-6.809
		l6.809,6.809c0.586,0.586,1.354,0.877,2.122,0.877c0.768,0,1.536-0.291,2.122-0.877c1.172-1.172,1.172-3.074,0-4.246l-6.809-6.805
		l6.809-6.809C-19.333,173.891-19.333,171.992-20.504,170.82z"/>
	<path fill="#2D7E79" d="M-90.097,81.455c0.586,0.586,1.354,0.878,2.124,0.878c0.769,0,1.536-0.292,2.122-0.878l6.809-6.809
		l6.808,6.809c0.586,0.586,1.354,0.878,2.122,0.878s1.536-0.292,2.122-0.878c1.172-1.172,1.172-3.07,0-4.242l-6.808-6.809
		l6.808-6.808c1.172-1.172,1.172-3.069,0-4.242c-1.172-1.172-3.07-1.172-4.242,0l-6.808,6.809l-6.809-6.809
		c-1.172-1.172-3.071-1.172-4.243,0c-1.171,1.173-1.171,3.07,0.002,4.242l6.806,6.808l-6.806,6.809
		C-91.267,78.385-91.267,80.283-90.097,81.455z"/>
	<path fill="#2D7E79" d="M95.813,294.051c-1.172-1.172-3.074-1.172-4.246,0l-6.808,6.809l-6.808-6.809
		c-1.169-1.172-3.07-1.172-4.242,0s-1.172,3.07,0,4.242l6.808,6.809l-6.808,6.809c-1.172,1.172-1.172,3.068,0,4.24
		c0.586,0.586,1.355,0.879,2.122,0.879c0.77,0,1.535-0.293,2.122-0.879l6.808-6.807l6.808,6.807
		c0.586,0.586,1.356,0.879,2.122,0.879c0.771,0,1.54-0.293,2.124-0.879c1.168-1.172,1.168-3.068-0.004-4.24l-6.808-6.809
		l6.808-6.809C96.981,297.121,96.981,295.223,95.813,294.051z"/>
	<path fill="#2D7E79" d="M50.709,29.272c0.586,0.586,1.355,0.878,2.122,0.878c0.77,0,1.535-0.292,2.122-0.878l6.808-6.808
		l6.808,6.808c0.586,0.586,1.356,0.878,2.122,0.878c0.771,0,1.54-0.292,2.124-0.878c1.168-1.172,1.168-3.069-0.004-4.241
		l-6.808-6.809l6.808-6.808c1.172-1.172,1.172-3.07,0.004-4.242c-1.172-1.172-3.073-1.172-4.246,0l-6.808,6.808l-6.808-6.808
		c-1.169-1.172-3.07-1.172-4.242,0s-1.172,3.07,0,4.242l6.808,6.808l-6.808,6.809C49.538,26.203,49.538,28.101,50.709,29.272z"/>
	<path fill="#2D7E79" d="M170.743,69.429L170.743,69.429c0.047,0.12,0.109,0.224,0.164,0.336c0.039,0.068,0.062,0.145,0.105,0.21
		c0.078,0.126,0.172,0.238,0.27,0.351c0.031,0.038,0.055,0.082,0.09,0.118c0.09,0.098,0.195,0.18,0.301,0.266
		c0.047,0.036,0.086,0.082,0.133,0.118c0.16,0.111,0.324,0.208,0.5,0.29c0.172,0.08,0.355,0.142,0.541,0.189
		c0.5,0.124,1.037,0.104,1.553-0.05c0.066-0.021,0.133-0.026,0.197-0.05c0-0.002,0-0.002,0-0.002l19.635-7.271
		c1.555-0.573,2.35-2.3,1.775-3.854c-0.578-1.554-2.305-2.349-3.857-1.772l-16.818,6.227l-1.984-5.368
		c-0.574-1.554-2.299-2.351-3.857-1.776c-1.553,0.576-2.348,2.3-1.773,3.854L170.743,69.429z"/>
	<path fill="#2D7E79" d="M-143.885,133.457c7.53,0,13.654-6.124,13.654-13.656c0-7.53-6.124-13.654-13.654-13.654
		c-7.529,0-13.655,6.124-13.655,13.654C-157.541,127.333-151.415,133.457-143.885,133.457z M-143.885,112.146
		c4.221,0,7.654,3.435,7.654,7.654c0,4.222-3.434,7.656-7.654,7.656c-4.222,0-7.655-3.435-7.655-7.656
		C-151.541,115.581-148.107,112.146-143.885,112.146z"/>
	<path fill="#2D7E79" d="M-183.913,121.035c0.144,0.319,3.618,7.934,10.162,15.625c8.89,10.453,19.218,15.975,29.865,15.975
		c10.646,0,20.975-5.523,29.866-15.975c6.544-7.691,10.019-15.306,10.164-15.625c0.354-0.784,0.354-1.685,0-2.469
		c-0.146-0.319-3.618-7.934-10.164-15.626c-8.89-10.449-19.218-15.972-29.866-15.972c-10.649,0-20.976,5.524-29.867,15.972
		c-6.544,7.694-10.017,15.307-10.162,15.626C-184.269,119.351-184.269,120.253-183.913,121.035z M-143.885,92.967
		c18.94,0,31.16,21.41,33.95,26.834c-2.792,5.428-15.012,26.836-33.95,26.836c-18.941,0-31.159-21.412-33.949-26.836
		C-175.044,114.375-162.827,92.967-143.885,92.967z"/>
	<path fill="#2D7E79" d="M-2.557,52.193c6.343,0,11.5-4.423,11.5-9.864c0-5.438-5.157-9.86-11.5-9.86c-6.342,0-11.5,4.422-11.5,9.86
		C-14.057,47.771-8.899,52.193-2.557,52.193z M-2.557,38.471c2.98,0,5.5,1.766,5.5,3.86c0,2.094-2.52,3.864-5.5,3.864
		c-2.981,0-5.5-1.771-5.5-3.864C-8.057,40.236-5.539,38.471-2.557,38.471z"/>
	<path fill="#2D7E79" d="M-109.405,182.957c0,5.439,5.16,9.861,11.5,9.861s11.5-4.422,11.5-9.861c0-5.438-5.158-9.863-11.5-9.863
		S-109.405,177.52-109.405,182.957z M-97.905,179.094c2.98,0,5.5,1.77,5.5,3.863s-2.52,3.861-5.5,3.861
		c-2.982,0-5.5-1.768-5.5-3.861S-100.887,179.094-97.905,179.094z"/>
	<path fill="#2D7E79" d="M168.946,172.5c6.34,0,11.5-4.426,11.5-9.863s-5.16-9.863-11.5-9.863s-11.5,4.426-11.5,9.863
		S162.606,172.5,168.946,172.5z M168.946,158.773c2.98,0,5.5,1.77,5.5,3.863s-2.52,3.863-5.5,3.863s-5.5-1.77-5.5-3.863
		S165.966,158.773,168.946,158.773z"/>
</g>
</svg>
